<svg width="218" height="54" viewBox="0 0 218 54" fill="none" xmlns="http://www.w3.org/2000/svg">
<path fill-rule="evenodd" clip-rule="evenodd" d="M20.5391 0C9.49337 0 0.539062 8.9543 0.539062 20V22C0.539062 33.0457 9.49337 42 20.5391 42H171.647C174.331 47.6687 179.703 53.8818 194.605 53.7263C195.604 53.7159 196.028 52.2349 195.278 51.5736C193.119 49.6693 190.44 46.4404 190.183 42H197.539C208.585 42 217.539 33.0457 217.539 22V20C217.539 8.95431 208.585 0 197.539 0H20.5391Z" fill="#2E3138"/>
<path fill-rule="evenodd" clip-rule="evenodd" d="M24.4489 11.7227C24.8162 11.4245 25.3422 11.4245 25.7095 11.7227L34.787 19.0927C35.518 19.6862 35.0983 20.869 34.1567 20.869H31.9468V28.2394C31.9468 28.7917 31.4991 29.2394 30.9468 29.2394H19.2109C18.6586 29.2394 18.2109 28.7917 18.2109 28.2394V20.869H16.0017C15.0601 20.869 14.6404 19.6862 15.3714 19.0927L24.4489 11.7227ZM27.6548 22.3711H22.5039V29.239H27.6548V22.3711Z" fill="#3AE3B5"/>
<path d="M43.4953 27V25.75L47.4172 21.7969C48.6594 20.5078 49.2766 19.7891 49.2766 18.7969C49.2766 17.6797 48.3703 16.9688 47.1828 16.9688C45.925 16.9688 45.1281 17.7656 45.1203 18.9688H43.4953C43.4797 16.8984 45.0578 15.5312 47.2141 15.5312C49.3938 15.5312 50.9016 16.9141 50.9172 18.75C50.9016 20.0156 50.3078 21.0234 48.1828 23.1094L45.8859 25.4375V25.5312H51.1047V27H43.4953ZM64.2709 14.3281V28.3281H62.8491V21.0625H61.1147V27.6562H59.7241V14.7031H61.1147V19.8594H62.8491V14.3281H64.2709ZM52.2397 24.3281C55.3491 22.5625 56.6538 20.1797 56.8881 17.3281H52.8334V16.1094H58.3334C58.3256 19.7891 57.1069 23.1016 53.0991 25.3594L52.2397 24.3281ZM81.1347 14.3281V28.3594H79.6503V14.3281H81.1347ZM70.0253 20.2812C70.0253 17.2891 71.5331 15.3828 73.6503 15.375C75.7284 15.3828 77.2597 17.2891 77.2597 20.2812C77.2597 23.3047 75.7284 25.2109 73.6503 25.2031C71.5331 25.2109 70.0253 23.3047 70.0253 20.2812ZM71.4628 20.2812C71.455 22.5078 72.3456 23.875 73.6503 23.875C74.9316 23.875 75.8222 22.5078 75.8222 20.2812C75.8222 18.0859 74.9316 16.7109 73.6503 16.7031C72.3456 16.7109 71.455 18.0859 71.4628 20.2812ZM87.9572 16.5625C87.9494 18.3984 89.2463 20.1094 91.3322 20.7969L90.5353 21.9688C89.0041 21.4297 87.8556 20.3359 87.2463 18.9531C86.6369 20.5234 85.4494 21.7578 83.8166 22.3594L83.0197 21.1719C85.2072 20.3984 86.4728 18.5312 86.4884 16.4375V15.0625H87.9572V16.5625ZM84.9103 25.7031C84.9103 24.0625 86.6994 23.1016 89.6134 23.1094C92.4884 23.1016 94.2541 24.0625 94.2541 25.7031C94.2541 27.3594 92.4884 28.3047 89.6134 28.2969C86.6994 28.3047 84.9103 27.3594 84.9103 25.7031ZM86.3947 25.7031C86.3869 26.625 87.59 27.125 89.6134 27.1406C91.6213 27.125 92.8088 26.625 92.8009 25.7031C92.8088 24.8125 91.6213 24.2812 89.6134 24.2812C87.59 24.2812 86.3869 24.8125 86.3947 25.7031ZM92.6447 22.7812V14.3281H94.1291V17.8438H96.1603V19.0938H94.1291V22.7812H92.6447ZM113.149 21.4688V22.6719H100.383V21.4688H106.024V19.9531H102.055V14.6562H103.524V16.1719H110.008V14.6562H111.493V19.9531H107.493V21.4688H113.149ZM101.805 25.1094V23.9219H111.587V28.3281H110.087V25.1094H101.805ZM103.524 18.7656H110.008V17.2812H103.524V18.7656ZM121.143 15.5625C121.136 17.4219 123.409 19.1641 126.159 19.5312L125.581 20.75C123.292 20.3828 121.284 19.1953 120.37 17.5469C119.456 19.1953 117.448 20.3828 115.175 20.75L114.581 19.5312C117.323 19.1641 119.589 17.4453 119.597 15.5625V14.7969H121.143V15.5625ZM113.972 23.3438V22.125H126.737V23.3438H121.05V28.3281H119.597V23.3438H113.972ZM144.023 21.3438V22.5469H138.476V25.2656H136.976V22.5469H131.21V21.3438H144.023ZM132.617 17.5C132.609 15.75 134.593 14.6641 137.601 14.6562C140.609 14.6641 142.577 15.75 142.57 17.5C142.577 19.2422 140.609 20.3281 137.601 20.3281C134.593 20.3281 132.609 19.2422 132.617 17.5ZM132.82 28.0312V23.9219H134.304V26.8125H142.601V28.0312H132.82ZM134.21 17.5C134.195 18.5078 135.554 19.125 137.601 19.125C139.656 19.125 140.999 18.5078 141.007 17.5C140.999 16.4609 139.656 15.8516 137.601 15.8438C135.554 15.8516 134.195 16.4609 134.21 17.5ZM148.689 15.1406C149.853 15.1328 150.845 15.5703 151.502 16.2969H155.002V14.3281H156.486V22.5938H155.002V20.7031H151.494C150.838 21.4219 149.845 21.8516 148.689 21.8438C146.58 21.8516 145.009 20.4531 145.017 18.5C145.009 16.5234 146.58 15.1328 148.689 15.1406ZM146.439 18.5C146.431 19.7266 147.377 20.5938 148.689 20.5781C149.963 20.5938 150.908 19.7266 150.908 18.5C150.908 17.2422 149.963 16.4062 148.689 16.4219C147.377 16.4062 146.431 17.2422 146.439 18.5ZM147.064 25.6094C147.056 23.8984 148.869 22.8984 151.798 22.9062C154.713 22.8984 156.525 23.8984 156.533 25.6094C156.525 27.3125 154.713 28.3047 151.798 28.2969C148.869 28.3047 147.056 27.3125 147.064 25.6094ZM148.517 25.6094C148.509 26.5703 149.744 27.1328 151.798 27.125C153.853 27.1328 155.08 26.5703 155.08 25.6094C155.08 24.6094 153.853 24.0547 151.798 24.0469C149.744 24.0547 148.509 24.6094 148.517 25.6094ZM152.181 17.4844C152.275 17.7969 152.33 18.1406 152.33 18.5C152.33 18.8438 152.275 19.1797 152.181 19.4844H155.002V17.4844H152.181ZM171.199 20.6562V21.7656H167.84V22.8906H169.621V25.9688H161.402V27.1406H170.058V28.1875H159.918V24.9844H168.152V23.9531H159.902V22.8906H161.762V21.7656H158.387V20.6562H171.199ZM159.996 15.7188V14.6875H169.59V17.7031H161.496V18.7344H169.824V19.7812H160.027V16.7188H168.105V15.7188H159.996ZM163.23 22.8906H166.371V21.7656H163.23V22.8906ZM180.438 15.6875V27H178.703V17.4062H178.641L175.938 19.1719V17.5312L178.75 15.6875H180.438ZM186.963 15.5312C189.042 15.5469 191.221 16.7969 191.229 20.9375C191.229 24.9062 189.518 27.1562 186.807 27.1562C184.721 27.1562 183.268 25.8672 182.995 24.0312H184.698C184.932 24.9844 185.667 25.6484 186.807 25.6562C188.549 25.6484 189.573 24.1328 189.588 21.5469H189.448C188.838 22.5 187.776 23.0781 186.557 23.0781C184.526 23.0781 182.901 21.5234 182.901 19.3594C182.901 17.2031 184.503 15.5156 186.963 15.5312ZM184.573 19.3281C184.581 20.6406 185.557 21.6797 186.932 21.6719C188.299 21.6797 189.354 20.5625 189.354 19.3125C189.354 18.0859 188.346 16.9688 186.963 16.9688C185.596 16.9688 184.565 18.0312 184.573 19.3281ZM198.708 24.2812C198.708 23.0078 199.536 21.9219 201.005 21.9219C202.512 21.9219 203.302 23 203.302 24.2812V24.875C203.302 26.1562 202.489 27.2422 201.005 27.2344C199.512 27.2422 198.708 26.1562 198.708 24.875V24.2812ZM193.005 18.4062V17.8125C193.005 16.5312 193.848 15.4453 195.317 15.4531C196.817 15.4453 197.606 16.5312 197.598 17.8125V18.4062C197.606 19.6797 196.794 20.7578 195.317 20.7656C193.809 20.7578 193.005 19.6797 193.005 18.4062ZM193.552 27L201.333 15.6875H202.645L194.864 27H193.552ZM194.302 18.4062C194.309 19.0312 194.567 19.6484 195.317 19.6406C196.059 19.6484 196.309 19.0312 196.302 18.4062V17.8125C196.309 17.1797 196.075 16.5625 195.317 16.5625C194.583 16.5625 194.309 17.1797 194.302 17.8125V18.4062ZM200.005 24.875C199.997 25.5078 200.255 26.1172 201.005 26.125C201.747 26.1172 202.005 25.5078 202.005 24.875V24.2812C202.005 23.6484 201.77 23.0391 201.005 23.0312C200.27 23.0391 199.997 23.6484 200.005 24.2812V24.875Z" fill="white"/>
</svg>
