<svg width="273" height="74" viewBox="0 0 273 74" fill="none" xmlns="http://www.w3.org/2000/svg">
<path d="M14.8613 35.38C16.0453 35.38 17.08 35.6093 17.9653 36.068C18.8613 36.516 19.5493 37.1667 20.0293 38.02C20.52 38.8627 20.7653 39.8493 20.7653 40.98C20.7653 42.1107 20.52 43.092 20.0293 43.924C19.5493 44.756 18.8613 45.396 17.9653 45.844C17.08 46.2813 16.0453 46.5 14.8613 46.5H11.2293V35.38H14.8613ZM14.8613 45.012C16.1626 45.012 17.16 44.66 17.8533 43.956C18.5466 43.252 18.8933 42.26 18.8933 40.98C18.8933 39.6893 18.5466 38.6813 17.8533 37.956C17.16 37.2307 16.1626 36.868 14.8613 36.868H13.0533V45.012H14.8613ZM28.349 46.5L25.789 42.052H24.397V46.5H22.573V35.38H26.413C27.2664 35.38 27.9864 35.5293 28.573 35.828C29.1704 36.1267 29.613 36.5267 29.901 37.028C30.1997 37.5293 30.349 38.0893 30.349 38.708C30.349 39.4333 30.1357 40.0947 29.709 40.692C29.293 41.2787 28.6477 41.6787 27.773 41.892L30.525 46.5H28.349ZM24.397 40.596H26.413C27.0957 40.596 27.6077 40.4253 27.949 40.084C28.301 39.7427 28.477 39.284 28.477 38.708C28.477 38.132 28.3064 37.684 27.965 37.364C27.6237 37.0333 27.1064 36.868 26.413 36.868H24.397V40.596ZM40.9224 35.38L37.2424 42.468V46.5H35.4184V42.468L31.7224 35.38H33.7544L36.3304 40.836L38.9064 35.38H40.9224ZM45.9182 40.916C45.9182 39.828 46.1688 38.852 46.6702 37.988C47.1822 37.124 47.8702 36.452 48.7342 35.972C49.6088 35.4813 50.5635 35.236 51.5982 35.236C52.7822 35.236 53.8328 35.5293 54.7502 36.116C55.6782 36.692 56.3502 37.5133 56.7662 38.58H54.5742C54.2862 37.9933 53.8862 37.556 53.3742 37.268C52.8622 36.98 52.2702 36.836 51.5982 36.836C50.8622 36.836 50.2062 37.0013 49.6302 37.332C49.0542 37.6627 48.6008 38.1373 48.2702 38.756C47.9502 39.3747 47.7902 40.0947 47.7902 40.916C47.7902 41.7373 47.9502 42.4573 48.2702 43.076C48.6008 43.6947 49.0542 44.1747 49.6302 44.516C50.2062 44.8467 50.8622 45.012 51.5982 45.012C52.2702 45.012 52.8622 44.868 53.3742 44.58C53.8862 44.292 54.2862 43.8547 54.5742 43.268H56.7662C56.3502 44.3347 55.6782 45.156 54.7502 45.732C53.8328 46.308 52.7822 46.596 51.5982 46.596C50.5528 46.596 49.5982 46.356 48.7342 45.876C47.8702 45.3853 47.1822 44.708 46.6702 43.844C46.1688 42.98 45.9182 42.004 45.9182 40.916ZM60.7252 45.028H64.4852V46.5H58.9012V35.38H60.7252V45.028ZM67.8345 36.852V40.116H71.6745V41.604H67.8345V45.012H72.1545V46.5H66.0105V35.364H72.1545V36.852H67.8345ZM81.1052 44.228H76.4492L75.6492 46.5H73.7452L77.7292 35.364H79.8412L83.8252 46.5H81.9052L81.1052 44.228ZM80.5932 42.74L78.7852 37.572L76.9612 42.74H80.5932ZM94.6934 46.5H92.8694L87.3814 38.196V46.5H85.5574V35.364H87.3814L92.8694 43.652V35.364H94.6934V46.5ZM98.9127 35.38V46.5H97.0887V35.38H98.9127ZM110.443 46.5H108.619L103.131 38.196V46.5H101.307V35.364H103.131L108.619 43.652V35.364H110.443V46.5ZM120.887 38.58C120.599 38.0253 120.199 37.6093 119.687 37.332C119.175 37.044 118.583 36.9 117.911 36.9C117.175 36.9 116.519 37.0653 115.943 37.396C115.367 37.7267 114.913 38.196 114.583 38.804C114.263 39.412 114.103 40.116 114.103 40.916C114.103 41.716 114.263 42.4253 114.583 43.044C114.913 43.652 115.367 44.1213 115.943 44.452C116.519 44.7827 117.175 44.948 117.911 44.948C118.903 44.948 119.708 44.6707 120.327 44.116C120.945 43.5613 121.324 42.8093 121.463 41.86H117.287V40.404H123.415V41.828C123.297 42.692 122.988 43.4867 122.487 44.212C121.996 44.9373 121.351 45.5187 120.551 45.956C119.761 46.3827 118.881 46.596 117.911 46.596C116.865 46.596 115.911 46.356 115.047 45.876C114.183 45.3853 113.495 44.708 112.983 43.844C112.481 42.98 112.231 42.004 112.231 40.916C112.231 39.828 112.481 38.852 112.983 37.988C113.495 37.124 114.183 36.452 115.047 35.972C115.921 35.4813 116.876 35.236 117.911 35.236C119.095 35.236 120.145 35.5293 121.063 36.116C121.991 36.692 122.663 37.5133 123.079 38.58H120.887ZM133.034 46.612C132.287 46.612 131.615 46.484 131.018 46.228C130.421 45.9613 129.951 45.588 129.61 45.108C129.269 44.628 129.098 44.068 129.098 43.428H131.05C131.093 43.908 131.279 44.3027 131.61 44.612C131.951 44.9213 132.426 45.076 133.034 45.076C133.663 45.076 134.154 44.9267 134.506 44.628C134.858 44.3187 135.034 43.924 135.034 43.444C135.034 43.0707 134.922 42.7667 134.698 42.532C134.485 42.2973 134.213 42.116 133.882 41.988C133.562 41.86 133.114 41.7213 132.538 41.572C131.813 41.38 131.221 41.188 130.762 40.996C130.314 40.7933 129.93 40.484 129.61 40.068C129.29 39.652 129.13 39.0973 129.13 38.404C129.13 37.764 129.29 37.204 129.61 36.724C129.93 36.244 130.378 35.876 130.954 35.62C131.53 35.364 132.197 35.236 132.954 35.236C134.031 35.236 134.911 35.508 135.594 36.052C136.287 36.5853 136.671 37.3213 136.746 38.26H134.73C134.698 37.8547 134.506 37.508 134.154 37.22C133.802 36.932 133.338 36.788 132.762 36.788C132.239 36.788 131.813 36.9213 131.482 37.188C131.151 37.4547 130.986 37.8387 130.986 38.34C130.986 38.6813 131.087 38.964 131.29 39.188C131.503 39.4013 131.77 39.572 132.09 39.7C132.41 39.828 132.847 39.9667 133.402 40.116C134.138 40.3187 134.735 40.5213 135.194 40.724C135.663 40.9267 136.058 41.2413 136.378 41.668C136.709 42.084 136.874 42.644 136.874 43.348C136.874 43.9133 136.719 44.4467 136.41 44.948C136.111 45.4493 135.669 45.8547 135.082 46.164C134.506 46.4627 133.823 46.612 133.034 46.612ZM146.21 35.38V36.868H143.25V46.5H141.426V36.868H138.45V35.38H146.21ZM154.761 44.228H150.105L149.305 46.5H147.401L151.385 35.364H153.497L157.481 46.5H155.561L154.761 44.228ZM154.249 42.74L152.441 37.572L150.617 42.74H154.249ZM166.398 35.38V36.868H163.438V46.5H161.614V36.868H158.638V35.38H166.398ZM170.069 35.38V46.5H168.245V35.38H170.069ZM177.536 46.612C176.501 46.612 175.546 46.372 174.672 45.892C173.808 45.4013 173.12 44.724 172.608 43.86C172.106 42.9853 171.856 42.004 171.856 40.916C171.856 39.828 172.106 38.852 172.608 37.988C173.12 37.124 173.808 36.452 174.672 35.972C175.546 35.4813 176.501 35.236 177.536 35.236C178.581 35.236 179.536 35.4813 180.4 35.972C181.274 36.452 181.962 37.124 182.464 37.988C182.965 38.852 183.216 39.828 183.216 40.916C183.216 42.004 182.965 42.9853 182.464 43.86C181.962 44.724 181.274 45.4013 180.4 45.892C179.536 46.372 178.581 46.612 177.536 46.612ZM177.536 45.028C178.272 45.028 178.928 44.8627 179.504 44.532C180.08 44.1907 180.528 43.7107 180.848 43.092C181.178 42.4627 181.344 41.7373 181.344 40.916C181.344 40.0947 181.178 39.3747 180.848 38.756C180.528 38.1373 180.08 37.6627 179.504 37.332C178.928 37.0013 178.272 36.836 177.536 36.836C176.8 36.836 176.144 37.0013 175.568 37.332C174.992 37.6627 174.538 38.1373 174.208 38.756C173.888 39.3747 173.728 40.0947 173.728 40.916C173.728 41.7373 173.888 42.4627 174.208 43.092C174.538 43.7107 174.992 44.1907 175.568 44.532C176.144 44.8627 176.8 45.028 177.536 45.028ZM194.147 46.5H192.323L186.835 38.196V46.5H185.011V35.364H186.835L192.323 43.652V35.364H194.147V46.5Z" fill="#0AC290"/>
<path d="M1 34V55H199" stroke="#0AC290" stroke-width="1.8"/>
<path fill-rule="evenodd" clip-rule="evenodd" d="M233.269 32.63C233.269 32.164 233.495 31.7479 233.914 31.4221C234.343 31.0886 234.94 30.884 235.544 30.884C236.161 30.884 236.741 31.0789 237.15 31.4214C237.539 31.7468 237.82 32.2402 237.82 32.9724C237.82 33.6478 237.523 34.6684 236.369 34.966C235.553 35.1765 234.644 35.8898 234.644 37.0192V38.0221C234.097 38.1459 233.57 38.3841 233.099 38.7368L221.118 47.7226C219.45 48.9739 220.335 51.6287 222.42 51.6287H248.669C250.754 51.6287 251.639 48.9739 249.971 47.7226L237.99 38.7368C237.519 38.3841 236.992 38.1459 236.444 38.0221V37.0192C236.444 36.9892 236.454 36.9431 236.513 36.8798C236.578 36.8107 236.686 36.7432 236.818 36.709C239.151 36.1075 239.62 33.9918 239.62 32.9724C239.62 31.7123 239.107 30.7115 238.305 30.0408C237.524 29.3872 236.516 29.084 235.544 29.084C234.562 29.084 233.571 29.4086 232.809 30.0012C232.037 30.6015 231.469 31.5084 231.469 32.63C231.469 33.127 231.872 33.53 232.369 33.53C232.866 33.53 233.269 33.127 233.269 32.63ZM234.179 40.1768C234.988 39.5701 236.101 39.5701 236.91 40.1768L248.891 49.1626C249.175 49.376 249.024 49.8288 248.669 49.8288H222.42C222.065 49.8288 221.914 49.376 222.198 49.1626L234.179 40.1768Z" fill="#0AC290"/>
</svg>
