<svg width="749" height="529" viewBox="0 0 749 529" fill="none" xmlns="http://www.w3.org/2000/svg">
<rect x="2.65918" y="401.96" width="81" height="60" rx="6" fill="#C2C5CD"/>
<path d="M29.5539 440.1H20.5939V437.72H23.8139V427.12H20.7939V424.74H26.5339V437.72H29.5539V440.1ZM48.7819 440.36H31.4219V437.98H38.7819V435.96H37.9019C34.6819 435.96 33.5019 434.06 33.5019 432.12C33.5019 430.16 34.6819 428.26 37.9019 428.26H42.3019C45.5219 428.26 46.7019 430.16 46.7019 432.12C46.7019 434.06 45.5219 435.96 42.3019 435.96H41.5619V437.98H48.7819V440.36ZM47.3619 427.56H32.8419V425.28H38.6819V423.48H41.5219V425.28H47.3619V427.56ZM43.9419 432.12C43.9419 431.08 43.2819 430.54 42.2019 430.54H38.0019C36.9219 430.54 36.2619 431.08 36.2619 432.12C36.2619 433.14 36.9219 433.68 38.0019 433.68H42.2019C43.2819 433.68 43.9419 433.14 43.9419 432.12ZM65.4632 441.58H53.1032V434.36H65.4632V441.58ZM61.0032 431.52L59.2632 433.32L55.4632 430.3L51.4832 433.52L49.7632 431.72L54.0832 428.26V426.68H50.5232V424.34H60.2832V426.68H56.8432V428.26L61.0032 431.52ZM65.4632 433.08L63.4032 433.78C62.9632 433.94 62.7432 433.82 62.7432 433.4V429.72H59.8232V427.32H62.7432V423.56H65.4632V433.08ZM62.7432 439.24V436.7H55.8232V439.24H62.7432Z" fill="white"/>
<path d="M20.8232 492.876H19.4558C19.4185 490.8 20.6368 489.992 21.9171 489.992C22.7624 489.992 23.3716 490.34 24.279 491.123C24.8881 491.646 25.1741 491.844 25.6216 491.844C26.3177 491.844 26.7776 491.322 26.7528 490.328H28.1326C28.1699 492.404 26.9392 493.224 25.6589 493.224C24.8136 493.224 24.2044 492.876 23.297 492.081C22.6879 491.559 22.402 491.36 21.9669 491.36C21.2956 491.36 20.7984 491.795 20.8232 492.876ZM38.2076 497.96H29.941L29.9286 496.804L34.267 492.23C35.7711 490.626 36.4921 489.768 36.5046 488.6C36.4921 487.282 35.3982 486.437 33.9686 486.437C32.4521 486.437 31.4949 487.394 31.4949 488.824H29.9907C29.9783 486.574 31.7186 485.057 34.0184 485.057C36.3305 485.057 37.9714 486.611 37.9838 488.6C37.9714 490.017 37.3126 491.123 35.0501 493.448L32.1413 496.456V496.556H38.2076V497.96ZM44.5618 498.134C41.74 498.134 40.1116 495.76 40.1116 491.596C40.1116 487.469 41.7649 485.057 44.5618 485.057C47.3588 485.057 49.0121 487.469 49.0121 491.596C49.0121 495.76 47.3837 498.134 44.5618 498.134ZM44.5618 496.73C46.4016 496.73 47.4707 494.89 47.4707 491.596C47.4707 488.302 46.3892 486.437 44.5618 486.437C42.7345 486.437 41.653 488.302 41.653 491.596C41.653 494.89 42.7221 496.73 44.5618 496.73ZM59.2787 497.96H51.0121L50.9997 496.804L55.3381 492.23C56.8422 490.626 57.5632 489.768 57.5757 488.6C57.5632 487.282 56.4693 486.437 55.0398 486.437C53.5232 486.437 52.566 487.394 52.566 488.824H51.0619C51.0494 486.574 52.7898 485.057 55.0895 485.057C57.4016 485.057 59.0425 486.611 59.0549 488.6C59.0425 490.017 58.3837 491.123 56.1212 493.448L53.2124 496.456V496.556H59.2787V497.96ZM64.3774 485.231H65.9686V497.96H64.3774V486.884H64.3028L61.2075 488.936V487.344L64.3774 485.231Z" fill="#2E3138"/>
<rect x="106.159" y="337.96" width="87" height="124" rx="6" fill="#C2C5CD"/>
<path d="M130.47 373.06L124.97 386.1H122.03L127.61 373.12H120.41V370.74H130.47V373.06ZM143.038 381.92C143.038 384.8 140.758 386.5 137.458 386.5C134.158 386.5 131.878 384.8 131.878 381.92V381.42C131.878 379.86 132.758 378.7 133.978 377.98C133.018 377.3 132.358 376.32 132.358 375.02V374.54C132.358 371.9 134.458 370.34 137.458 370.34C140.458 370.34 142.558 371.9 142.558 374.54V375.02C142.558 376.32 141.898 377.3 140.938 377.98C142.158 378.7 143.038 379.86 143.038 381.42V381.92ZM140.278 381.86V381.48C140.278 380.14 139.218 379.2 137.458 379.2C135.678 379.2 134.638 380.14 134.638 381.48V381.86C134.638 383.22 135.678 384.12 137.458 384.12C139.218 384.12 140.278 383.22 140.278 381.86ZM139.798 374.96V374.6C139.798 373.44 138.898 372.72 137.458 372.72C136.018 372.72 135.118 373.44 135.118 374.6V374.96C135.118 376.12 136.018 376.84 137.458 376.84C138.898 376.84 139.798 376.12 139.798 374.96ZM161.366 386.36H144.006V383.98H151.366V381.96H150.486C147.266 381.96 146.086 380.06 146.086 378.12C146.086 376.16 147.266 374.26 150.486 374.26H154.886C158.106 374.26 159.286 376.16 159.286 378.12C159.286 380.06 158.106 381.96 154.886 381.96H154.146V383.98H161.366V386.36ZM159.946 373.56H145.426V371.28H151.266V369.48H154.106V371.28H159.946V373.56ZM156.526 378.12C156.526 377.08 155.866 376.54 154.786 376.54H150.586C149.506 376.54 148.846 377.08 148.846 378.12C148.846 379.14 149.506 379.68 150.586 379.68H154.786C155.866 379.68 156.526 379.14 156.526 378.12ZM178.047 387.58H165.687V380.36H178.047V387.58ZM173.587 377.52L171.847 379.32L168.047 376.3L164.067 379.52L162.347 377.72L166.667 374.26V372.68H163.107V370.34H172.867V372.68H169.427V374.26L173.587 377.52ZM178.047 379.08L175.987 379.78C175.547 379.94 175.327 379.82 175.327 379.4V375.72H172.407V373.32H175.327V369.56H178.047V379.08ZM175.327 385.24V382.7H168.407V385.24H175.327Z" fill="white"/>
<path d="M138.073 496.96H129.807L129.794 495.804L134.133 491.23C135.637 489.626 136.358 488.768 136.37 487.6C136.358 486.282 135.264 485.437 133.834 485.437C132.318 485.437 131.36 486.394 131.36 487.824H129.856C129.844 485.574 131.584 484.057 133.884 484.057C136.196 484.057 137.837 485.611 137.849 487.6C137.837 489.017 137.178 490.123 134.916 492.448L132.007 495.456V495.556H138.073V496.96ZM144.427 497.134C141.606 497.134 139.977 494.76 139.977 490.596C139.977 486.469 141.63 484.057 144.427 484.057C147.224 484.057 148.878 486.469 148.878 490.596C148.878 494.76 147.249 497.134 144.427 497.134ZM144.427 495.73C146.267 495.73 147.336 493.89 147.336 490.596C147.336 487.302 146.255 485.437 144.427 485.437C142.6 485.437 141.519 487.302 141.519 490.596C141.519 493.89 142.588 495.73 144.427 495.73ZM159.144 496.96H150.878L150.865 495.804L155.204 491.23C156.708 489.626 157.429 488.768 157.441 487.6C157.429 486.282 156.335 485.437 154.905 485.437C153.389 485.437 152.432 486.394 152.432 487.824H150.927C150.915 485.574 152.655 484.057 154.955 484.057C157.267 484.057 158.908 485.611 158.92 487.6C158.908 489.017 158.249 490.123 155.987 492.448L153.078 495.456V495.556H159.144V496.96ZM169.601 496.96H161.334L161.322 495.804L165.66 491.23C167.164 489.626 167.885 488.768 167.898 487.6C167.885 486.282 166.791 485.437 165.362 485.437C163.845 485.437 162.888 486.394 162.888 487.824H161.384C161.371 485.574 163.112 484.057 165.411 484.057C167.724 484.057 169.364 485.611 169.377 487.6C169.364 489.017 168.706 490.123 166.443 492.448L163.534 495.456V495.556H169.601V496.96Z" fill="#2E3138"/>
<path d="M139.286 508.764V512.842H141.635V513.998H139.286V518.274H137.906V508.764H139.286ZM131.647 513.675C130.976 515.521 129.577 516.963 127.75 517.665L127.004 516.559C129.353 515.688 130.92 513.6 130.932 511.188V509.572H132.287V511.288C132.287 513.413 133.903 515.365 136.166 516.136L135.42 517.23C133.692 516.596 132.324 515.303 131.647 513.675ZM134.276 518.672C137.483 518.672 139.423 519.716 139.423 521.506C139.423 523.321 137.483 524.353 134.276 524.353C131.057 524.353 129.092 523.321 129.092 521.506C129.092 519.716 131.057 518.672 134.276 518.672ZM134.276 523.259C136.638 523.246 138.08 522.612 138.08 521.506C138.08 520.437 136.638 519.778 134.276 519.778C131.914 519.778 130.46 520.437 130.472 521.506C130.46 522.612 131.914 523.246 134.276 523.259ZM154.734 508.777V513.501H157.084V514.669H154.734V520.251H153.355V508.777H154.734ZM149.091 509.896H150.458V517.615H143.186V509.896H144.541V512.531H149.091V509.896ZM144.541 516.496H149.091V513.625H144.541V516.496ZM144.951 519.132H146.319V522.898H155.455V524.042H144.951V519.132ZM169.499 524.39V508.764H170.879V524.39H169.499ZM158.883 510.467H166.255C166.242 514.955 164.154 518.933 158.908 521.456L158.162 520.325C162.389 518.324 164.546 515.315 164.85 511.586H158.883V510.467Z" fill="#818897"/>
<rect x="219.659" y="293.96" width="100" height="168" rx="6" fill="#C2C5CD"/>
<path d="M243.886 342.1H234.926V339.72H238.146V329.12H235.126V326.74H240.866V339.72H243.886V342.1ZM256.754 337.5C256.754 341 254.354 342.5 251.374 342.5C248.394 342.5 245.994 341 245.994 337.5V331.34C245.994 327.84 248.394 326.34 251.374 326.34C254.354 326.34 256.754 327.84 256.754 331.34V337.5ZM254.014 337.36V331.48C254.014 329.6 252.854 328.76 251.374 328.76C249.894 328.76 248.734 329.6 248.734 331.48V337.36C248.734 339.24 249.894 340.08 251.374 340.08C252.854 340.08 254.014 339.24 254.014 337.36ZM268.822 337.96C268.822 340.94 266.662 342.5 263.542 342.5C260.002 342.5 258.262 340.48 258.262 337.62L261.042 337.44C260.982 338.9 261.822 340.1 263.462 340.1C265.162 340.1 266.082 339.28 266.082 337.9V337.54C266.082 336.2 265.362 335.28 263.602 335.28H262.322V332.96H263.502C264.782 332.96 265.682 331.98 265.682 330.96V330.7C265.682 329.5 264.962 328.74 263.442 328.74C262.122 328.74 261.202 329.62 261.242 331.04L258.462 330.86C258.462 328.02 260.462 326.34 263.502 326.34C266.522 326.34 268.422 327.96 268.422 330.5V330.86C268.422 332.06 267.942 333.2 266.722 333.98C268.082 334.74 268.822 335.94 268.822 337.42V337.96ZM287.45 342.36H270.09V339.98H277.45V337.96H276.57C273.35 337.96 272.17 336.06 272.17 334.12C272.17 332.16 273.35 330.26 276.57 330.26H280.97C284.19 330.26 285.37 332.16 285.37 334.12C285.37 336.06 284.19 337.96 280.97 337.96H280.23V339.98H287.45V342.36ZM286.03 329.56H271.51V327.28H277.35V325.48H280.19V327.28H286.03V329.56ZM282.61 334.12C282.61 333.08 281.95 332.54 280.87 332.54H276.67C275.59 332.54 274.93 333.08 274.93 334.12C274.93 335.14 275.59 335.68 276.67 335.68H280.87C281.95 335.68 282.61 335.14 282.61 334.12ZM304.131 343.58H291.771V336.36H304.131V343.58ZM299.671 333.52L297.931 335.32L294.131 332.3L290.151 335.52L288.431 333.72L292.751 330.26V328.68H289.191V326.34H298.951V328.68H295.511V330.26L299.671 333.52ZM304.131 335.08L302.071 335.78C301.631 335.94 301.411 335.82 301.411 335.4V331.72H298.491V329.32H301.411V325.56H304.131V335.08ZM301.411 341.24V338.7H294.491V341.24H301.411Z" fill="white"/>
<path d="M258.073 496.96H249.807L249.794 495.804L254.133 491.23C255.637 489.626 256.358 488.768 256.37 487.6C256.358 486.282 255.264 485.437 253.834 485.437C252.318 485.437 251.36 486.394 251.36 487.824H249.856C249.844 485.574 251.584 484.057 253.884 484.057C256.196 484.057 257.837 485.611 257.849 487.6C257.837 489.017 257.178 490.123 254.916 492.448L252.007 495.456V495.556H258.073V496.96ZM264.427 497.134C261.606 497.134 259.977 494.76 259.977 490.596C259.977 486.469 261.63 484.057 264.427 484.057C267.224 484.057 268.878 486.469 268.878 490.596C268.878 494.76 267.249 497.134 264.427 497.134ZM264.427 495.73C266.267 495.73 267.336 493.89 267.336 490.596C267.336 487.302 266.255 485.437 264.427 485.437C262.6 485.437 261.519 487.302 261.519 490.596C261.519 493.89 262.588 495.73 264.427 495.73ZM279.144 496.96H270.878L270.865 495.804L275.204 491.23C276.708 489.626 277.429 488.768 277.441 487.6C277.429 486.282 276.335 485.437 274.905 485.437C273.389 485.437 272.432 486.394 272.432 487.824H270.927C270.915 485.574 272.655 484.057 274.955 484.057C277.267 484.057 278.908 485.611 278.92 487.6C278.908 489.017 278.249 490.123 275.987 492.448L273.078 495.456V495.556H279.144V496.96ZM289.601 496.96H281.334L281.322 495.804L285.66 491.23C287.164 489.626 287.885 488.768 287.898 487.6C287.885 486.282 286.791 485.437 285.362 485.437C283.845 485.437 282.888 486.394 282.888 487.824H281.384C281.371 485.574 283.112 484.057 285.411 484.057C287.724 484.057 289.364 485.611 289.377 487.6C289.364 489.017 288.706 490.123 286.443 492.448L283.534 495.456V495.556H289.601V496.96Z" fill="#2E3138"/>
<path d="M259.162 515.204H261.772V516.36H259.162V524.39H257.794V508.764H259.162V515.204ZM250.994 508.951H252.374V511.275H256.278V512.419H246.979V511.275H250.994V508.951ZM251.703 513.712C253.916 513.712 255.519 515.191 255.532 517.304C255.519 519.418 253.916 520.884 251.703 520.884C249.478 520.884 247.862 519.418 247.874 517.304C247.862 515.191 249.478 513.712 251.703 513.712ZM251.703 519.716C253.145 519.728 254.202 518.721 254.214 517.304C254.202 515.887 253.145 514.868 251.703 514.868C250.249 514.868 249.179 515.887 249.192 517.304C249.179 518.721 250.249 519.728 251.703 519.716ZM274.734 508.777V513.501H277.084V514.669H274.734V520.251H273.355V508.777H274.734ZM269.091 509.896H270.458V517.615H263.186V509.896H264.541V512.531H269.091V509.896ZM264.541 516.496H269.091V513.625H264.541V516.496ZM264.951 519.132H266.319V522.898H275.455V524.042H264.951V519.132ZM289.499 524.39V508.764H290.879V524.39H289.499ZM278.883 510.467H286.255C286.242 514.955 284.154 518.933 278.908 521.456L278.162 520.325C282.389 518.324 284.546 515.315 284.85 511.586H278.883V510.467Z" fill="#818897"/>
<rect x="343.659" y="235.96" width="106" height="226" rx="6" fill="#C2C5CD"/>
<path d="M370.886 284.1H361.926V281.72H365.146V271.12H362.126V268.74H367.866V281.72H370.886V284.1ZM383.454 284.1H373.494V281.38C373.494 279.32 374.494 278.14 376.654 276.8L379.274 275.18C379.934 274.78 380.614 273.98 380.614 273.1V272.7C380.614 271.5 379.794 270.74 378.274 270.74C377.034 270.74 376.134 271.58 376.134 272.9V273.52H373.394V272.94C373.394 270.02 375.414 268.34 378.334 268.34C381.274 268.34 383.354 270 383.354 272.58V272.92C383.354 275.26 381.954 276.38 380.334 277.38L377.714 279C376.674 279.64 376.234 280.26 376.234 281.24V281.72H383.454V284.1ZM395.622 284.1H385.662V281.38C385.662 279.32 386.662 278.14 388.822 276.8L391.442 275.18C392.102 274.78 392.782 273.98 392.782 273.1V272.7C392.782 271.5 391.962 270.74 390.442 270.74C389.202 270.74 388.302 271.58 388.302 272.9V273.52H385.562V272.94C385.562 270.02 387.582 268.34 390.502 268.34C393.442 268.34 395.522 270 395.522 272.58V272.92C395.522 275.26 394.122 276.38 392.502 277.38L389.882 279C388.842 279.64 388.402 280.26 388.402 281.24V281.72H395.622V284.1ZM414.45 284.36H397.09V281.98H404.45V279.96H403.57C400.35 279.96 399.17 278.06 399.17 276.12C399.17 274.16 400.35 272.26 403.57 272.26H407.97C411.19 272.26 412.37 274.16 412.37 276.12C412.37 278.06 411.19 279.96 407.97 279.96H407.23V281.98H414.45V284.36ZM413.03 271.56H398.51V269.28H404.35V267.48H407.19V269.28H413.03V271.56ZM409.61 276.12C409.61 275.08 408.95 274.54 407.87 274.54H403.67C402.59 274.54 401.93 275.08 401.93 276.12C401.93 277.14 402.59 277.68 403.67 277.68H407.87C408.95 277.68 409.61 277.14 409.61 276.12ZM431.131 285.58H418.771V278.36H431.131V285.58ZM426.671 275.52L424.931 277.32L421.131 274.3L417.151 277.52L415.431 275.72L419.751 272.26V270.68H416.191V268.34H425.951V270.68H422.511V272.26L426.671 275.52ZM431.131 277.08L429.071 277.78C428.631 277.94 428.411 277.82 428.411 277.4V273.72H425.491V271.32H428.411V267.56H431.131V277.08ZM428.411 283.24V280.7H421.491V283.24H428.411Z" fill="white"/>
<path d="M384.801 496.96H376.534L376.522 495.804L380.86 491.23C382.364 489.626 383.085 488.768 383.098 487.6C383.085 486.282 381.991 485.437 380.562 485.437C379.045 485.437 378.088 486.394 378.088 487.824H376.584C376.571 485.574 378.312 484.057 380.611 484.057C382.924 484.057 384.564 485.611 384.577 487.6C384.564 489.017 383.906 490.123 381.643 492.448L378.734 495.456V495.556H384.801V496.96ZM391.155 497.134C388.333 497.134 386.705 494.76 386.705 490.596C386.705 486.469 388.358 484.057 391.155 484.057C393.952 484.057 395.605 486.469 395.605 490.596C395.605 494.76 393.977 497.134 391.155 497.134ZM391.155 495.73C392.995 495.73 394.064 493.89 394.064 490.596C394.064 487.302 392.982 485.437 391.155 485.437C389.328 485.437 388.246 487.302 388.246 490.596C388.246 493.89 389.315 495.73 391.155 495.73ZM405.872 496.96H397.605L397.593 495.804L401.931 491.23C403.435 489.626 404.156 488.768 404.169 487.6C404.156 486.282 403.062 485.437 401.633 485.437C400.116 485.437 399.159 486.394 399.159 487.824H397.655C397.642 485.574 399.383 484.057 401.683 484.057C403.995 484.057 405.636 485.611 405.648 487.6C405.636 489.017 404.977 490.123 402.714 492.448L399.805 495.456V495.556H405.872V496.96ZM412.462 497.134C409.926 497.134 408.111 495.78 408.024 493.766H409.628C409.715 494.971 410.921 495.73 412.437 495.73C414.116 495.73 415.334 494.822 415.334 493.492C415.334 492.112 414.227 491.13 412.238 491.13H411.207V489.738H412.238C413.792 489.738 414.874 488.868 414.874 487.55C414.874 486.282 413.941 485.437 412.487 485.437C411.132 485.437 409.889 486.183 409.827 487.426H408.298C408.372 485.412 410.249 484.057 412.512 484.057C414.936 484.057 416.415 485.648 416.403 487.476C416.415 488.918 415.57 489.974 414.24 490.347V490.447C415.893 490.695 416.9 491.876 416.888 493.505C416.9 495.593 414.998 497.134 412.462 497.134Z" fill="#2E3138"/>
<path d="M386.286 508.764V512.842H388.635V513.998H386.286V518.274H384.906V508.764H386.286ZM378.647 513.675C377.976 515.521 376.577 516.963 374.75 517.665L374.004 516.559C376.353 515.688 377.92 513.6 377.932 511.188V509.572H379.287V511.288C379.287 513.413 380.903 515.365 383.166 516.136L382.42 517.23C380.692 516.596 379.324 515.303 378.647 513.675ZM381.276 518.672C384.483 518.672 386.423 519.716 386.423 521.506C386.423 523.321 384.483 524.353 381.276 524.353C378.057 524.353 376.092 523.321 376.092 521.506C376.092 519.716 378.057 518.672 381.276 518.672ZM381.276 523.259C383.638 523.246 385.08 522.612 385.08 521.506C385.08 520.437 383.638 519.778 381.276 519.778C378.914 519.778 377.46 520.437 377.472 521.506C377.46 522.612 378.914 523.246 381.276 523.259ZM401.734 508.777V513.501H404.084V514.669H401.734V520.251H400.355V508.777H401.734ZM396.091 509.896H397.458V517.615H390.186V509.896H391.541V512.531H396.091V509.896ZM391.541 516.496H396.091V513.625H391.541V516.496ZM391.951 519.132H393.319V522.898H402.455V524.042H391.951V519.132ZM416.499 524.39V508.764H417.879V524.39H416.499ZM405.883 510.467H413.255C413.242 514.955 411.154 518.933 405.908 521.456L405.162 520.325C409.389 518.324 411.546 515.315 411.85 511.586H405.883V510.467Z" fill="#818897"/>
<rect x="475.659" y="170.96" width="108" height="291" rx="6" fill="#C2C5CD"/>
<path d="M503.886 219.1H494.926V216.72H498.146V206.12H495.126V203.74H500.866V216.72H503.886V219.1ZM516.654 214.96C516.654 217.94 514.494 219.5 511.374 219.5C507.834 219.5 506.094 217.48 506.094 214.62L508.874 214.44C508.814 215.9 509.654 217.1 511.294 217.1C512.994 217.1 513.914 216.28 513.914 214.9V214.54C513.914 213.2 513.194 212.28 511.434 212.28H510.154V209.96H511.334C512.614 209.96 513.514 208.98 513.514 207.96V207.7C513.514 206.5 512.794 205.74 511.274 205.74C509.954 205.74 509.034 206.62 509.074 208.04L506.294 207.86C506.294 205.02 508.294 203.34 511.334 203.34C514.354 203.34 516.254 204.96 516.254 207.5V207.86C516.254 209.06 515.774 210.2 514.554 210.98C515.914 211.74 516.654 212.94 516.654 214.42V214.96ZM528.602 214.62C528.602 218.08 526.242 219.5 523.442 219.5C520.722 219.5 518.702 218.14 518.402 215.46L521.162 215.22C521.262 216.32 522.062 217.1 523.442 217.1C524.862 217.1 525.882 216.32 525.882 214.64V213.1C525.142 213.6 524.202 213.88 523.042 213.88C520.742 213.88 518.302 212.46 518.302 209.02V208.22C518.302 204.78 520.622 203.34 523.442 203.34C526.242 203.34 528.602 204.78 528.602 208.22V214.62ZM525.882 209.04V208.2C525.882 206.52 524.862 205.74 523.442 205.74C522.022 205.74 521.002 206.52 521.002 208.2V209.04C521.002 210.72 522.022 211.48 523.442 211.48C524.862 211.48 525.882 210.72 525.882 209.04ZM547.45 219.36H530.09V216.98H537.45V214.96H536.57C533.35 214.96 532.17 213.06 532.17 211.12C532.17 209.16 533.35 207.26 536.57 207.26H540.97C544.19 207.26 545.37 209.16 545.37 211.12C545.37 213.06 544.19 214.96 540.97 214.96H540.23V216.98H547.45V219.36ZM546.03 206.56H531.51V204.28H537.35V202.48H540.19V204.28H546.03V206.56ZM542.61 211.12C542.61 210.08 541.95 209.54 540.87 209.54H536.67C535.59 209.54 534.93 210.08 534.93 211.12C534.93 212.14 535.59 212.68 536.67 212.68H540.87C541.95 212.68 542.61 212.14 542.61 211.12ZM564.131 220.58H551.771V213.36H564.131V220.58ZM559.671 210.52L557.931 212.32L554.131 209.3L550.151 212.52L548.431 210.72L552.751 207.26V205.68H549.191V203.34H558.951V205.68H555.511V207.26L559.671 210.52ZM564.131 212.08L562.071 212.78C561.631 212.94 561.411 212.82 561.411 212.4V208.72H558.491V206.32H561.411V202.56H564.131V212.08ZM561.411 218.24V215.7H554.491V218.24H561.411Z" fill="white"/>
<path d="M517.801 496.96H509.534L509.522 495.804L513.86 491.23C515.364 489.626 516.085 488.768 516.098 487.6C516.085 486.282 514.991 485.437 513.562 485.437C512.045 485.437 511.088 486.394 511.088 487.824H509.584C509.571 485.574 511.312 484.057 513.611 484.057C515.924 484.057 517.564 485.611 517.577 487.6C517.564 489.017 516.906 490.123 514.643 492.448L511.734 495.456V495.556H517.801V496.96ZM524.155 497.134C521.333 497.134 519.705 494.76 519.705 490.596C519.705 486.469 521.358 484.057 524.155 484.057C526.952 484.057 528.605 486.469 528.605 490.596C528.605 494.76 526.977 497.134 524.155 497.134ZM524.155 495.73C525.995 495.73 527.064 493.89 527.064 490.596C527.064 487.302 525.982 485.437 524.155 485.437C522.328 485.437 521.246 487.302 521.246 490.596C521.246 493.89 522.315 495.73 524.155 495.73ZM538.872 496.96H530.605L530.593 495.804L534.931 491.23C536.435 489.626 537.156 488.768 537.169 487.6C537.156 486.282 536.062 485.437 534.633 485.437C533.116 485.437 532.159 486.394 532.159 487.824H530.655C530.642 485.574 532.383 484.057 534.683 484.057C536.995 484.057 538.636 485.611 538.648 487.6C538.636 489.017 537.977 490.123 535.714 492.448L532.805 495.456V495.556H538.872V496.96ZM545.462 497.134C542.926 497.134 541.111 495.78 541.024 493.766H542.628C542.715 494.971 543.921 495.73 545.437 495.73C547.116 495.73 548.334 494.822 548.334 493.492C548.334 492.112 547.227 491.13 545.238 491.13H544.207V489.738H545.238C546.792 489.738 547.874 488.868 547.874 487.55C547.874 486.282 546.941 485.437 545.487 485.437C544.132 485.437 542.889 486.183 542.827 487.426H541.298C541.372 485.412 543.249 484.057 545.512 484.057C547.936 484.057 549.415 485.648 549.403 487.476C549.415 488.918 548.57 489.974 547.24 490.347V490.447C548.893 490.695 549.9 491.876 549.888 493.505C549.9 495.593 547.998 497.134 545.462 497.134Z" fill="#2E3138"/>
<path d="M519.162 515.204H521.772V516.36H519.162V524.39H517.794V508.764H519.162V515.204ZM510.994 508.951H512.374V511.275H516.278V512.419H506.979V511.275H510.994V508.951ZM511.703 513.712C513.916 513.712 515.519 515.191 515.532 517.304C515.519 519.418 513.916 520.884 511.703 520.884C509.478 520.884 507.862 519.418 507.874 517.304C507.862 515.191 509.478 513.712 511.703 513.712ZM511.703 519.716C513.145 519.728 514.202 518.721 514.214 517.304C514.202 515.887 513.145 514.868 511.703 514.868C510.249 514.868 509.179 515.887 509.192 517.304C509.179 518.721 510.249 519.728 511.703 519.716ZM534.734 508.777V513.501H537.084V514.669H534.734V520.251H533.355V508.777H534.734ZM529.091 509.896H530.458V517.615H523.186V509.896H524.541V512.531H529.091V509.896ZM524.541 516.496H529.091V513.625H524.541V516.496ZM524.951 519.132H526.319V522.898H535.455V524.042H524.951V519.132ZM549.499 524.39V508.764H550.879V524.39H549.499ZM538.883 510.467H546.255C546.242 514.955 544.154 518.933 538.908 521.456L538.162 520.325C542.389 518.324 544.546 515.315 544.85 511.586H538.883V510.467Z" fill="#818897"/>
<path fill-rule="evenodd" clip-rule="evenodd" d="M675.999 2.81327C673.62 0.207427 669.516 0.207424 667.137 2.81327L596.74 79.9147C593.224 83.766 595.956 89.9604 601.171 89.9604H617.568V455.96C617.568 459.274 620.254 461.96 623.568 461.96H719.568C722.882 461.96 725.568 459.274 725.568 455.96V89.9604H741.965C747.18 89.9604 749.912 83.766 746.396 79.9148L675.999 2.81327Z" fill="url(#paint0_linear_2633_6084)"/>
<path d="M659.789 496.96H651.522L651.51 495.804L655.848 491.23C657.352 489.626 658.073 488.768 658.086 487.6C658.073 486.282 656.98 485.437 655.55 485.437C654.033 485.437 653.076 486.394 653.076 487.824H651.572C651.56 485.574 653.3 484.057 655.6 484.057C657.912 484.057 659.553 485.611 659.565 487.6C659.553 489.017 658.894 490.123 656.631 492.448L653.723 495.456V495.556H659.789V496.96ZM666.143 497.134C663.321 497.134 661.693 494.76 661.693 490.596C661.693 486.469 663.346 484.057 666.143 484.057C668.94 484.057 670.593 486.469 670.593 490.596C670.593 494.76 668.965 497.134 666.143 497.134ZM666.143 495.73C667.983 495.73 669.052 493.89 669.052 490.596C669.052 487.302 667.971 485.437 666.143 485.437C664.316 485.437 663.234 487.302 663.234 490.596C663.234 493.89 664.303 495.73 666.143 495.73ZM680.86 496.96H672.593L672.581 495.804L676.919 491.23C678.424 489.626 679.145 488.768 679.157 487.6C679.145 486.282 678.051 485.437 676.621 485.437C675.105 485.437 674.147 486.394 674.147 487.824H672.643C672.631 485.574 674.371 484.057 676.671 484.057C678.983 484.057 680.624 485.611 680.636 487.6C680.624 489.017 679.965 490.123 677.703 492.448L674.794 495.456V495.556H680.86V496.96ZM690.128 492.97H691.918V494.362H690.128V496.96H688.624V494.362H682.458V493.057L688.189 484.231H690.128V492.97ZM688.474 486.233L684.161 492.871V492.97H688.624V486.233H688.474Z" fill="#2E3138"/>
<path d="M661.195 508.764V512.842H663.544V513.998H661.195V518.274H659.815V508.764H661.195ZM653.556 513.675C652.885 515.521 651.486 516.963 649.659 517.665L648.913 516.559C651.263 515.688 652.829 513.6 652.841 511.188V509.572H654.196V511.288C654.196 513.413 655.812 515.365 658.075 516.136L657.329 517.23C655.601 516.596 654.234 515.303 653.556 513.675ZM656.185 518.672C659.393 518.672 661.332 519.716 661.332 521.506C661.332 523.321 659.393 524.353 656.185 524.353C652.966 524.353 651.002 523.321 651.002 521.506C651.002 519.716 652.966 518.672 656.185 518.672ZM656.185 523.259C658.547 523.246 659.989 522.612 659.989 521.506C659.989 520.437 658.547 519.778 656.185 519.778C653.823 519.778 652.369 520.437 652.381 521.506C652.369 522.612 653.823 523.246 656.185 523.259ZM676.644 508.777V513.501H678.993V514.669H676.644V520.251H675.264V508.777H676.644ZM671 509.896H672.367V517.615H665.095V509.896H666.45V512.531H671V509.896ZM666.45 516.496H671V513.625H666.45V516.496ZM666.86 519.132H668.228V522.898H677.365V524.042H666.86V519.132ZM691.409 524.39V508.764H692.788V524.39H691.409ZM680.793 510.467H688.164C688.152 514.955 686.063 518.933 680.817 521.456L680.072 520.325C684.298 518.324 686.455 515.315 686.759 511.586H680.793V510.467Z" fill="#818897"/>
<g clip-path="url(#clip0_2633_6084)">
<path d="M638.896 74.9272V76.6027H627.769V65.1855H629.584V74.9272H638.896Z" fill="white"/>
<path d="M638.895 65.1963V72.8865H637.209V72.285C636.554 72.7898 635.716 73.0905 634.739 73.0905C632.58 73.0905 630.851 71.2861 630.851 69.0521C630.851 66.8073 632.58 65.0137 634.739 65.0137C635.716 65.0137 636.554 65.3037 637.209 65.8192V65.2177H638.895V65.1963ZM637.209 70.4269V67.6451C636.64 66.8288 635.834 66.5281 634.986 66.5281C633.579 66.5281 632.548 67.6558 632.548 69.0306C632.548 70.4054 633.579 71.5332 634.986 71.5332C635.834 71.5332 636.64 71.2432 637.209 70.4269Z" fill="white"/>
<path d="M651.333 71.5869C651.333 74.7983 649.336 76.8068 646.328 76.8068C643.342 76.8068 641.323 74.7876 641.323 71.5869V65.1855H643.138V71.5869C643.138 73.692 644.417 75.1313 646.328 75.1313C648.24 75.1313 649.54 73.6813 649.54 71.5869V65.1855H651.333V71.5869Z" fill="white"/>
<path d="M663.309 65.1855V76.6135H661.859L655.426 68.5473V76.6135H653.61V65.1855H655.007L661.505 73.4128V65.1855H663.309Z" fill="white"/>
<path d="M675.994 70.8243C675.994 74.1646 673.437 76.6027 669.925 76.6027H665.801V65.1855H669.925C673.437 65.1855 675.994 67.5699 675.994 70.8243ZM674.157 70.8243C674.157 68.5581 672.331 66.8396 669.925 66.8396H667.616V74.9165H669.925C672.331 74.9272 674.157 73.1765 674.157 70.8243Z" fill="white"/>
<path d="M682.406 72.7469H679.634V76.6135H677.819V65.1855H682.545C685.101 65.1855 686.949 66.6677 686.949 68.9662C686.949 70.6632 685.939 71.9199 684.393 72.4569L687.582 76.6027H685.37L682.406 72.7469ZM679.634 71.0821H682.481C684.006 71.0821 685.166 70.2766 685.166 68.9662C685.166 67.6559 684.006 66.8503 682.481 66.8503H679.634V71.0821Z" fill="white"/>
<path d="M698.537 65.1855L693.919 72.7147V76.6135H692.093V72.7147L687.475 65.1855H689.472L692.995 70.964L696.54 65.1855H698.537Z" fill="white"/>
<path d="M703.715 70.6417C704.95 69.6321 705.67 68.8051 705.691 67.527C705.702 66.8825 705.477 66.3025 705.026 65.8514C704.499 65.3144 703.726 65.0352 702.845 65.0352C701.17 65.0459 699.988 66.1737 699.988 67.7633C699.988 67.9351 700.01 68.2358 700.042 68.4829H701.61C701.589 68.3218 701.578 68.1069 701.578 67.8277C701.599 66.9685 702.072 66.4422 702.835 66.4422C703.522 66.4422 703.994 66.9148 703.994 67.5807C703.994 68.4506 703.382 68.9877 702.104 70.051L699.935 71.8232V72.9187H705.713V71.5224H702.63L703.715 70.6417Z" fill="white"/>
<path d="M711.856 65.1855H709.428L706.281 70.298V71.2754H710.33V72.8972H711.845V71.2754H713.144V69.9006H711.845V65.1855H711.856ZM710.341 69.9006H708.215L710.341 66.4314V69.9006Z" fill="white"/>
</g>
<path d="M642.249 115.113H632.393V112.495H635.935V100.835H632.613V98.2169H638.927V112.495H642.249V115.113ZM655.853 110.383C655.853 113.661 653.521 115.553 650.221 115.553C646.921 115.553 644.611 113.551 644.611 110.471L647.669 110.273C647.647 111.835 648.285 112.913 650.155 112.913C651.871 112.913 652.839 111.967 652.839 110.515V108.711C652.839 107.259 651.761 106.291 650.265 106.291C648.791 106.291 647.977 106.973 647.647 107.545L644.787 107.347V98.2169H655.303V100.835H647.801V104.355C648.483 103.937 649.451 103.673 650.397 103.673C653.653 103.673 655.853 105.411 655.853 108.689V110.383ZM669.018 115.113H658.062V112.121C658.062 109.855 659.162 108.557 661.538 107.083L664.42 105.301C665.146 104.861 665.894 103.981 665.894 103.013V102.573C665.894 101.253 664.992 100.417 663.32 100.417C661.956 100.417 660.966 101.341 660.966 102.793V103.475H657.952V102.837C657.952 99.6249 660.174 97.7769 663.386 97.7769C666.62 97.7769 668.908 99.6029 668.908 102.441V102.815C668.908 105.389 667.368 106.621 665.586 107.721L662.704 109.503C661.56 110.207 661.076 110.889 661.076 111.967V112.495H669.018V115.113ZM689.509 115.399H670.413V112.781H678.509V110.559H677.541C673.999 110.559 672.701 108.469 672.701 106.335C672.701 104.179 673.999 102.089 677.541 102.089H682.381C685.923 102.089 687.221 104.179 687.221 106.335C687.221 108.469 685.923 110.559 682.381 110.559H681.567V112.781H689.509V115.399ZM687.947 101.319H671.975V98.8109H678.399V96.8309H681.523V98.8109H687.947V101.319ZM684.185 106.335C684.185 105.191 683.459 104.597 682.271 104.597H677.651C676.463 104.597 675.737 105.191 675.737 106.335C675.737 107.457 676.463 108.051 677.651 108.051H682.271C683.459 108.051 684.185 107.457 684.185 106.335ZM707.638 116.741H694.042V108.799H707.638V116.741ZM702.732 105.675L700.818 107.655L696.638 104.333L692.26 107.875L690.368 105.895L695.12 102.089V100.351H691.204V97.7769H701.94V100.351H698.156V102.089L702.732 105.675ZM707.638 107.391L705.372 108.161C704.888 108.337 704.646 108.205 704.646 107.743V103.695H701.434V101.055H704.646V96.9189H707.638V107.391ZM704.646 114.167V111.373H697.034V114.167H704.646Z" fill="white"/>
<defs>
<linearGradient id="paint0_linear_2633_6084" x1="693.659" y1="8.96045" x2="693.659" y2="461.96" gradientUnits="userSpaceOnUse">
<stop stop-color="#2EA887"/>
<stop offset="1" stop-color="#3CD1A9"/>
</linearGradient>
<clipPath id="clip0_2633_6084">
<rect width="86.875" height="23.9655" fill="white" transform="translate(627.722 58.8589)"/>
</clipPath>
</defs>
</svg>
