<svg width="188" height="188" viewBox="0 0 188 188" fill="none" xmlns="http://www.w3.org/2000/svg">
<g id="icon_competitive_02">
<g id="Group">
<g id="Group_2">
<path id="Vector" d="M170.507 86.9893L179.416 86.4082L178.932 110.91C178.932 110.91 123.247 147.904 43.6406 175.892L42.4785 156.039L170.507 86.9893Z" fill="#79D3B7"/>
<path id="Vector_2" d="M128.089 37.9858L179.417 86.408C179.417 86.408 105.04 139.866 42.5756 156.33L5.09678 99.9663C4.99994 99.9663 75.4058 79.0479 128.089 37.9858Z" fill="#3BB794"/>
<path id="Vector_3" d="M43.5441 175.892C43.3504 175.602 22.0446 142.19 5.29053 118.948L5 99.9663L42.4788 156.33L43.5441 175.892Z" fill="#86EACB"/>
</g>
<g id="Group_3">
<path id="Vector_4" d="M132.253 13.5813C89.545 56.6771 61.2664 68.2015 5.67773 89.5073L42.866 156.33C75.9868 142.094 103.684 127.083 125.377 113.815C142.228 102.291 158.498 89.7978 179.32 75.7554C164.503 53.3843 150.847 33.047 132.253 13.5813Z" fill="#C3FCEC"/>
<path id="Vector_5" d="M132.35 13.3875C108.43 36.049 87.1238 55.3211 56.2305 68.7824L96.5177 130.182C108.623 123.693 119.47 117.301 129.057 111.297C145.812 99.7727 161.791 87.4734 179.32 75.5616C164.599 53.2873 150.847 32.7563 132.35 13.3875Z" fill="#86EACB"/>
<path id="Vector_6" d="M126.152 105.874C139.613 97.0611 153.559 86.7956 166.73 77.1111C168.57 75.7553 170.313 74.4963 172.056 73.1405C170.41 71.3973 167.989 68.9762 166.149 67.5235C161.403 63.5529 155.399 63.6498 149.588 67.5235C144.649 70.8163 142.906 72.2689 137.87 75.8522C130.704 80.9849 123.537 86.2145 116.177 90.7662L115.887 90.6694C114.337 87.183 109.204 81.3723 101.36 85.4398C93.5155 89.6041 82.0878 97.8358 77.8267 100.644L96.4208 130.279C106.493 124.855 115.693 119.529 124.021 114.493L125.184 104.421C125.474 105.002 125.861 105.487 126.152 105.874Z" fill="#7CD7BB"/>
<path id="Vector_7" d="M168.183 74.593C161.113 71.6877 155.109 72.3656 147.942 74.2056C147.168 74.3993 146.877 74.2057 146.102 74.3993C140.195 78.951 134.287 83.5027 128.283 87.7639C127.605 89.5071 127.314 89.7008 126.249 91.5408C123.925 95.2209 121.697 99.6757 120.826 104.324C120.535 105.874 120.729 107.811 120.923 109.36C137.677 98.901 153.366 86.9891 169.248 75.2709C168.958 75.0772 168.473 74.593 168.183 74.593Z" fill="#39D3A7"/>
<path id="Vector_8" d="M145.811 79.9197C146.78 77.0144 146.102 74.3996 146.102 74.4964C146.102 74.4964 144.746 74.3996 143.196 73.7217C142.034 73.3343 140.678 72.3658 139.516 71.9785C138.257 71.5911 137.676 71.4942 136.514 72.3658C134.093 74.2059 131.285 76.4333 128.767 78.467C127.798 79.3386 127.604 79.9197 127.604 81.1787C127.604 82.4377 128.476 86.7956 128.573 87.0862C128.767 87.9578 128.67 88.5388 129.638 88.7325C129.541 88.8294 129.735 88.7325 129.638 88.7325C138.935 90.1852 143.003 88.6357 145.811 79.9197Z" fill="#D0FAF0"/>
<path id="Vector_9" d="M117.727 71.3973C119.179 74.5931 119.76 75.7553 122.472 78.6606C125.184 81.6628 130.994 84.0839 135.352 80.4038C139.613 76.7237 141.163 71.7847 139.904 66.0708C141.55 64.3276 142.712 61.9065 141.357 59.8728C139.517 57.1612 137.483 57.8391 135.159 59.1949C129.542 57.3548 125.377 58.6138 120.729 62.2939C118.211 64.4245 116.274 68.2983 117.727 71.3973Z" fill="#C1F4E6"/>
<path id="Vector_10" d="M132.447 47.283C129.154 43.4092 123.44 42.3439 119.47 45.3461C114.337 49.2199 114.531 52.7063 115.402 58.4201C112.788 62.0033 113.272 64.5213 115.499 68.395C116.08 69.4603 117.049 70.7193 117.727 71.6878C117.727 68.2982 119.567 65.7803 122.085 63.8434C126.443 60.5507 130.026 58.5169 135.449 59.2917C137.677 57.5485 139.129 57.9359 141.357 59.5822C141.26 59.6791 135.74 51.0599 132.447 47.283Z" fill="#3BB794"/>
<path id="Vector_11" d="M129.348 83.9871C131.479 85.246 137.386 88.2482 140.195 90.1851C141.066 90.863 141.938 89.7977 141.841 89.1198C141.841 86.4082 141.454 76.5301 141.26 75.3679C141.163 72.3657 140.388 72.2689 140.098 72.3657C139.807 72.4626 139.323 74.1089 138.839 74.9805C137.386 77.5953 135.933 79.4354 133.706 80.5975C132.156 81.4691 129.735 81.2754 129.057 81.1786C128.283 80.9849 127.121 81.1786 127.024 81.6628C126.927 82.147 127.702 83.1155 129.348 83.9871Z" fill="#3BB794"/>
<path id="Vector_12" d="M133.028 13C123.15 21.2318 87.027 53.9652 56.2305 68.7824L60.2979 74.8836C90.5134 57.7421 110.366 43.7965 131.866 24.0403L171.282 73.7214C170.604 74.2057 169.926 74.6899 169.248 75.1741C170.991 76.7236 172.541 78.4668 174.187 80.0163C174.574 79.7258 183 72.9467 183 72.9467L133.028 13Z" fill="#79D3B7"/>
<path id="Vector_13" d="M45.4809 131.441C44.803 132.409 44.222 133.378 43.5441 134.152C43.4472 134.249 43.3504 134.346 43.2535 134.346C43.1567 134.346 43.0598 134.54 42.8661 134.346C42.7693 134.249 42.7693 134.249 42.5756 133.959C42.3819 133.668 41.9945 132.893 41.8977 132.603C41.8009 132.312 41.704 132.312 41.8009 132.119C41.8977 131.925 41.9945 131.828 41.9945 131.634C42.6725 130.666 43.2535 129.601 43.9314 128.729C44.1251 128.439 44.222 128.439 44.4157 128.245C44.6093 128.051 44.7062 128.051 44.9967 127.857C45.2873 127.664 45.6746 127.47 45.9652 127.373C46.2557 127.276 46.6431 127.18 46.8368 127.664C49.0642 131.828 51.8727 137.251 53.9064 141.416C54.1969 141.9 54.0032 142.094 53.6159 142.384C53.2285 142.675 52.6474 142.965 52.1632 143.159C51.679 143.256 51.4853 143.353 51.1948 142.868C49.4516 139.382 47.2241 134.83 45.4809 131.441Z" fill="#3BB794"/>
<path id="Vector_14" d="M52.5505 132.7C51.8726 130.86 51.3883 128.826 52.0663 126.889C52.7442 125.049 53.9063 124.081 55.6495 123.403C57.3927 122.725 59.039 122.434 60.7822 123.403C62.6223 124.274 63.8813 126.114 64.656 127.954C65.4308 129.794 66.0118 131.731 65.4308 133.765C64.7529 135.702 63.3002 136.573 61.4602 137.445C59.6201 138.123 57.8769 138.414 56.0369 137.348C54.2937 136.477 53.4221 134.54 52.5505 132.7ZM55.359 131.731C55.8432 132.893 56.4242 134.152 57.5864 134.83C58.6517 135.605 59.5233 135.508 60.5886 135.024C61.6538 134.637 62.4286 134.056 62.6223 132.797C62.9128 131.538 62.4286 130.182 61.9444 129.02C61.4602 127.857 60.8791 126.599 59.717 125.921C58.6517 125.34 57.7801 125.243 56.7148 125.824C55.6495 126.211 54.9716 126.792 54.7779 128.051C54.4874 129.213 54.8747 130.569 55.359 131.731Z" fill="#3BB794"/>
<path id="Vector_15" d="M66.012 127.567C65.2372 125.727 64.5593 123.79 65.0435 121.756C65.6246 119.723 66.8836 118.851 68.6268 118.076C70.37 117.302 72.0163 117.011 73.8564 117.786C75.6964 118.561 76.9554 120.304 78.0207 122.144C78.9891 123.984 79.7639 125.921 79.1828 127.858C78.6017 129.891 77.2459 130.86 75.4059 131.731C73.5658 132.506 71.8226 132.894 69.9826 132.022C68.1426 131.054 66.9804 129.31 66.012 127.567ZM68.8205 126.308C69.4015 127.47 70.1763 128.632 71.2416 129.31C72.3069 129.891 73.2753 129.891 74.3406 129.31C75.4059 128.923 76.1806 128.342 76.2775 126.986C76.4712 125.824 75.9869 124.468 75.309 123.306C74.728 122.144 73.8564 120.982 72.7911 120.304C71.7258 119.723 70.7574 119.723 69.8858 120.304C68.8205 120.788 68.1426 121.272 68.0457 122.531C67.7552 123.79 68.3362 125.146 68.8205 126.308Z" fill="#3BB794"/>
<path id="Vector_16" d="M79.3762 121.466C78.4077 119.626 77.633 117.689 78.0203 115.752C78.5046 113.815 79.5698 112.653 81.313 111.781C83.0562 110.91 84.5089 110.619 86.4458 111.297C88.3827 111.975 89.8353 113.525 90.9006 115.365C91.9659 117.011 92.8375 118.948 92.547 120.885C92.2565 122.918 90.9006 124.081 89.0606 125.049C87.3174 126.018 85.5742 126.405 83.6373 125.727C81.7004 125.146 80.3446 123.306 79.3762 121.466ZM81.991 120.11C82.6689 121.272 83.5405 122.434 84.6058 122.918C85.7679 123.403 86.6395 123.306 87.7048 122.725C88.7701 122.144 89.3511 121.563 89.448 120.304C89.5448 119.045 88.8669 117.786 88.189 116.624C87.5111 115.461 86.5426 114.299 85.5742 113.912C84.5089 113.525 83.6373 113.525 82.572 114.106C81.5067 114.59 80.9257 115.268 80.8288 116.43C80.732 117.786 81.313 118.948 81.991 120.11Z" fill="#3BB794"/>
<path id="Vector_17" d="M92.0628 114.687C90.9975 113.04 90.1259 111.103 90.3196 109.167C90.707 107.23 91.6754 106.164 93.3218 105.196C94.8713 104.228 96.5176 103.84 98.4545 104.421C100.391 105.002 101.844 106.552 103.006 108.198C104.168 109.844 105.137 111.685 105.04 113.718C104.846 115.752 103.684 116.817 101.941 117.786C100.198 118.754 98.5514 119.335 96.5176 118.657C94.6776 117.979 93.1281 116.43 92.0628 114.687ZM94.5807 113.137C95.3555 114.106 96.4208 115.268 97.4861 115.655C98.6482 116.043 99.5198 115.849 100.585 115.365C101.65 114.784 102.135 114.202 102.135 112.944C102.135 111.685 101.36 110.522 100.585 109.457C99.8103 108.489 98.8419 107.23 97.7766 106.842C96.6145 106.358 95.8397 106.455 94.7744 107.133C93.806 107.714 93.2249 108.295 93.2249 109.554C93.2249 110.91 93.9028 112.169 94.5807 113.137Z" fill="#3BB794"/>
<path id="Vector_18" d="M93.7095 125.34L96.518 130.376C106.202 125.146 115.112 120.013 123.247 115.074C122.182 113.234 121.407 111.394 120.923 109.36C111.335 115.171 103.491 120.013 93.7095 125.34Z" fill="#7FE2C6"/>
<path id="Vector_19" d="M169.926 74.6899C153.946 86.4081 137.58 98.7074 120.826 109.263C121.407 111.297 122.182 113.234 123.247 115.074C127.411 112.556 131.382 110.135 135.062 107.714C146.489 99.6758 163.534 87.7639 174.09 80.0164L169.926 74.6899Z" fill="#7FE2C6"/>
</g>
<path id="Vector_20" d="M91.9662 46.7019C83.8312 54.0621 67.0771 62.9718 67.0771 62.9718C78.4079 83.6965 111.238 122.241 111.238 122.241V147.904L137.967 135.411V105.583C118.792 86.1176 91.9662 46.7019 91.9662 46.7019Z" fill="#3BB794"/>
<path id="Vector_21" d="M112.11 147.323V121.659C112.11 121.659 130.22 110.91 138.742 105.196V134.83C138.742 135.895 138.161 136.864 137.193 137.251C134.19 138.704 126.733 142.287 113.466 148.195C112.885 148.485 112.11 148.001 112.11 147.323Z" fill="#AFE8D6"/>
<path id="Vector_22" d="M112.11 121.66C112.11 121.66 81.2166 86.1178 67.9489 62.0035C67.7552 61.713 67.852 61.3256 68.2394 61.1319C71.0479 59.5824 83.5408 52.7064 90.901 46.0242C91.5789 45.4431 92.5474 45.54 93.0316 46.3147C97.777 53.3844 119.664 85.7304 138.742 105.196C138.742 105.196 129.348 112.169 112.11 121.66Z" fill="#C3FCEC"/>
</g>
</g>
</svg>
