<svg width="50" height="50" viewBox="0 0 50 50" fill="none" xmlns="http://www.w3.org/2000/svg">
<g id="icon_dry_03">
<g id="Group 115">
<path id="Vector 684" d="M3.19824 31.4777V38.4833H15.0539V35.9998C17.0298 36.8979 24 37.9444 32.8373 37.9444C42.3218 37.9444 46.3096 36.1481 47.3874 35.2499V30.3999" stroke="#5A9BF7" stroke-width="1.98267" stroke-linecap="round" stroke-linejoin="round"/>
<path id="Vector 685" d="M24.2154 14.772L19.9043 20.1609" stroke="#5A9BF7" stroke-width="1.98267" stroke-linecap="round" stroke-linejoin="round"/>
<path id="Vector 686" d="M29.0653 18.0054L24.7542 23.3943" stroke="#5A9BF7" stroke-width="1.98267" stroke-linecap="round" stroke-linejoin="round"/>
<path id="Vector 687" d="M34.4541 21.2388L30.6819 26.0888" stroke="#5A9BF7" stroke-width="1.98267" stroke-linecap="round" stroke-linejoin="round"/>
<path id="Vector 683" d="M3.19841 30.939C0.503964 23.9334 3.01876 16.5686 4.27618 13.1556C5.53359 14.413 8.58733 16.9278 12.3596 16.3889C17.1608 15.703 19.3651 11 19.3651 11C23.6763 13.8741 32.7297 19.8378 34.4541 20.7001C36.6097 21.7778 38.2264 21.7778 42.5375 21.7778C47.2798 22.209 47.7468 27.7057 47.3875 30.4001C44.6931 32.5557 41.0445 33.5 33.5 33.5C24.8778 33.5 8.58735 32.5557 3.19841 30.939Z" stroke="#5A9BF7" stroke-width="1.98267" stroke-linecap="round" stroke-linejoin="round"/>
</g>
</g>
</svg>
