<svg width="100" height="100" viewBox="0 0 100 100" fill="none" xmlns="http://www.w3.org/2000/svg">
<path fill-rule="evenodd" clip-rule="evenodd" d="M50.2974 83.833H88.3484L82.831 55.6189H50.2974L50.1747 55.6249L50.0519 55.6189H17.5184L12.001 83.833L50.0519 83.833L50.1747 83.827L50.2974 83.833ZM85.6172 54.2351C85.4336 53.2963 84.6109 52.6189 83.6543 52.6189H50.2739C50.2406 52.6189 50.2075 52.6197 50.1747 52.6213C50.1418 52.6197 50.1087 52.6189 50.0755 52.6189H16.695C15.7384 52.6189 14.9158 53.2963 14.7322 54.2351L9.05675 83.2572C8.69442 85.11 10.1131 86.833 12.001 86.833H50.0755C50.1087 86.833 50.1418 86.8321 50.1747 86.8305C50.2075 86.8321 50.2406 86.833 50.2739 86.833H88.3484C90.2363 86.833 91.6549 85.11 91.2926 83.2572L85.6172 54.2351Z" fill="#B5ECDD"/>
<path d="M22.666 13C22.666 9.68629 25.3523 7 28.666 7H71.7887C75.1024 7 77.7887 9.68629 77.7887 13V65.6266C77.7887 68.9403 75.1024 71.6266 71.7887 71.6266H28.666C25.3523 71.6266 22.666 68.9403 22.666 65.6266V13Z" fill="white"/>
<path fill-rule="evenodd" clip-rule="evenodd" d="M71.7887 10H28.666C27.0092 10 25.666 11.3431 25.666 13V65.6266C25.666 67.2834 27.0092 68.6266 28.666 68.6266H71.7887C73.4455 68.6266 74.7887 67.2834 74.7887 65.6266V13C74.7887 11.3431 73.4455 10 71.7887 10ZM28.666 7C25.3523 7 22.666 9.68629 22.666 13V65.6266C22.666 68.9403 25.3523 71.6266 28.666 71.6266H71.7887C75.1024 71.6266 77.7887 68.9403 77.7887 65.6266V13C77.7887 9.68629 75.1024 7 71.7887 7H28.666Z" fill="#0AC290"/>
<path fill-rule="evenodd" clip-rule="evenodd" d="M76.8386 24.6567H23.6167V21.6567H76.8386V24.6567Z" fill="#0AC290"/>
<path fill-rule="evenodd" clip-rule="evenodd" d="M51.1776 32.2598C43.083 32.2598 36.521 38.8218 36.521 46.9164C36.521 55.011 43.083 61.573 51.1776 61.573C59.2723 61.573 65.8343 55.011 65.8343 46.9164C65.8343 38.8218 59.2723 32.2598 51.1776 32.2598ZM33.521 46.9164C33.521 37.1649 41.4261 29.2598 51.1776 29.2598C60.9291 29.2598 68.8343 37.1649 68.8343 46.9164C68.8343 56.6679 60.9291 64.573 51.1776 64.573C41.4261 64.573 33.521 56.6679 33.521 46.9164Z" fill="#0AC290"/>
<path d="M47.7566 45.9661C43.9075 45.9661 42.6245 48.6933 42.6245 49.1478C43.4799 54.1477 48.612 56.4204 51.6057 56.4204C57.08 56.4204 59.3039 50.2084 59.7315 47.3297C54.5994 51.875 51.6057 45.9661 47.7566 45.9661Z" fill="#B5ECDD"/>
<path fill-rule="evenodd" clip-rule="evenodd" d="M51.1777 38.9126C46.7573 38.9126 43.1738 42.4961 43.1738 46.9165C43.1738 51.3369 46.7573 54.9204 51.1777 54.9204C55.5982 54.9204 59.1816 51.3369 59.1816 46.9165C59.1816 42.4961 55.5982 38.9126 51.1777 38.9126ZM40.1738 46.9165C40.1738 40.8392 45.1004 35.9126 51.1777 35.9126C57.255 35.9126 62.1816 40.8392 62.1816 46.9165C62.1816 52.9938 57.255 57.9204 51.1777 57.9204C45.1004 57.9204 40.1738 52.9938 40.1738 46.9165Z" fill="#B5ECDD"/>
<path d="M60.6818 15.5536C60.6818 17.1282 59.4053 18.4047 57.8307 18.4047C56.256 18.4047 54.9795 17.1282 54.9795 15.5536C54.9795 13.9789 56.256 12.7024 57.8307 12.7024C59.4053 12.7024 60.6818 13.9789 60.6818 15.5536Z" fill="#0AC290"/>
<path d="M70.1857 15.5536C70.1857 17.1282 68.9092 18.4047 67.3346 18.4047C65.7599 18.4047 64.4834 17.1282 64.4834 15.5536C64.4834 13.9789 65.7599 12.7024 67.3346 12.7024C68.9092 12.7024 70.1857 13.9789 70.1857 15.5536Z" fill="#0AC290"/>
</svg>
