<svg width="50" height="50" viewBox="0 0 50 50" fill="none" xmlns="http://www.w3.org/2000/svg">
<g id="icon_dry_01">
<path id="Union" fill-rule="evenodd" clip-rule="evenodd" d="M23.2964 4.98076L23.2969 4.97909C23.3006 4.96712 23.3181 4.90988 23.3918 4.80803C23.4918 4.67004 23.6565 4.50567 23.883 4.34629C24.3431 4.02255 24.9406 3.8 25.4959 3.8C26.0789 3.8 26.6326 3.99537 27.0287 4.3475C27.4083 4.68491 27.6952 5.21044 27.6952 5.99933C27.6952 6.40817 27.3565 7.32497 26.4696 7.83349C25.9388 8.13782 25.3609 8.54371 24.9067 9.06502C24.4474 9.59229 24.0793 10.2814 24.0793 11.1187V11.6814C24.0793 11.7019 24.08 11.7222 24.0813 11.7423C23.7999 11.8083 23.5241 11.9058 23.2592 12.0348L8.20975 19.3615C6.85788 20.0196 6 21.3914 6 22.895V41.9701C6 44.1406 7.75952 45.9001 9.93 45.9001H40.0288C42.1993 45.9001 43.9588 44.1406 43.9588 41.9701V22.895C43.9588 21.3914 43.1009 20.0196 41.7491 19.3615L26.6997 12.0348C26.4346 11.9058 26.1588 11.8083 25.8773 11.7422C25.8786 11.7221 25.8793 11.7019 25.8793 11.6814V11.1187C25.8793 10.8403 25.9963 10.5547 26.264 10.2474C26.5369 9.9341 26.9279 9.6456 27.3649 9.39503C28.8316 8.55411 29.4952 7.02956 29.4952 5.99933C29.4952 4.722 29.0072 3.69787 28.2246 3.00216C27.4585 2.32118 26.4625 2 25.4959 2C24.5014 2 23.5493 2.3801 22.8471 2.87424C22.4925 3.12379 22.173 3.42217 21.9339 3.75231C21.7031 4.07105 21.4965 4.49114 21.4965 4.96622C21.4965 5.46327 21.8995 5.86622 22.3965 5.86622C22.8887 5.86622 23.2887 5.47111 23.2964 4.98076ZM25.9118 13.6532C25.3232 13.3667 24.6356 13.3667 24.0471 13.6532L8.99765 20.9798C8.26496 21.3366 7.8 22.08 7.8 22.895V41.9701C7.8 43.1464 8.75363 44.1001 9.93 44.1001H40.0288C41.2052 44.1001 42.1588 43.1464 42.1588 41.9701V22.895C42.1588 22.08 41.6939 21.3366 40.9612 20.9798L25.9118 13.6532ZM29.7096 26.3549L32.9274 31.9623V34.9079C32.9274 35.1682 33.0575 35.2983 33.3177 35.2983H34.2523C34.5126 35.2983 34.6427 35.1682 34.6427 34.9079V31.9386L37.8486 26.3549C37.9117 26.2523 37.9078 26.1695 37.8368 26.1064C37.7658 26.0355 37.6712 26 37.5529 26H36.358C36.2397 26 36.1569 26.0355 36.1096 26.1064C36.0623 26.1695 36.0071 26.2523 35.944 26.3549L33.7791 30.2824L31.6142 26.3549C31.5511 26.2523 31.4959 26.1695 31.4486 26.1064C31.4013 26.0355 31.3185 26 31.2002 26H30.0053C29.887 26 29.7924 26.0355 29.7214 26.1064C29.6504 26.1695 29.6465 26.2523 29.7096 26.3549ZM25.9966 30.661C26.9193 30.661 27.3807 30.1602 27.3807 29.1586C27.3807 28.157 26.9193 27.6562 25.9966 27.6562H23.4768V30.661H25.9966ZM26.0676 26C27.0613 26 27.8145 26.2681 28.3271 26.8044C28.8397 27.3407 29.0961 28.1254 29.0961 29.1586C29.0961 30.5466 28.6347 31.4812 27.7119 31.9623L29.2144 34.9198C29.2696 35.0223 29.2696 35.1091 29.2144 35.18C29.167 35.2589 29.0763 35.2983 28.9423 35.2983H28.0077C27.8578 35.2983 27.7435 35.2747 27.6646 35.2274C27.5858 35.1879 27.5227 35.1209 27.4753 35.0262L26.1149 32.3172H23.4768V34.9079C23.4768 35.1682 23.3467 35.2983 23.0864 35.2983H22.1519C21.8916 35.2983 21.7615 35.1682 21.7615 34.9079V26.6861C21.7615 26.2287 21.9862 26 22.4358 26H26.0676ZM17.3693 33.4765C17.0617 33.587 16.7107 33.6422 16.3164 33.6422H14.814V27.6562H16.3164C16.7107 27.6562 17.0617 27.7114 17.3693 27.8218C17.6768 27.9322 17.9371 28.1097 18.15 28.3542C18.363 28.5908 18.5247 28.8983 18.6351 29.2769C18.7534 29.6555 18.8125 30.1129 18.8125 30.6492C18.8125 31.1855 18.7534 31.6429 18.6351 32.0215C18.5247 32.4 18.363 32.7115 18.15 32.956C17.9371 33.1926 17.6768 33.3661 17.3693 33.4765ZM13.0986 34.6122C13.0986 35.0697 13.3234 35.2984 13.7729 35.2984H16.34C17.6887 35.2984 18.7218 34.9238 19.4395 34.1745C20.1651 33.4253 20.5279 32.2502 20.5279 30.6492C20.5279 29.0482 20.1651 27.8731 19.4395 27.1238C18.7218 26.3746 17.6887 26 16.34 26H13.7729C13.3234 26 13.0986 26.2287 13.0986 26.6861V34.6122Z" fill="#5A9BF7"/>
</g>
</svg>
