<svg width="100" height="100" viewBox="0 0 100 100" fill="none" xmlns="http://www.w3.org/2000/svg">
<g clip-path="url(#clip0_3434_6675)">
<path fill-rule="evenodd" clip-rule="evenodd" d="M67.8833 47.176H19.6989C19.5832 47.176 19.4895 47.2698 19.4895 47.3854V84.0606C19.4895 84.1763 19.5832 84.27 19.6988 84.27H67.8833C67.9989 84.27 68.0926 84.1763 68.0926 84.0606V47.3854C68.0926 47.2698 67.9989 47.176 67.8833 47.176ZM19.6989 44.3291C18.0109 44.3291 16.6426 45.6974 16.6426 47.3854V84.0606C16.6426 85.7486 18.0109 87.1169 19.6988 87.1169H67.8833C69.5712 87.1169 70.9396 85.7486 70.9396 84.0606V47.3854C70.9396 45.6974 69.5712 44.3291 67.8833 44.3291H19.6989Z" fill="#0AC290"/>
<path d="M36.5713 66.7421C36.5713 65.6168 37.4835 64.7046 38.6088 64.7046H48.7964C49.9217 64.7046 50.8339 65.6168 50.8339 66.7421V85.0797C50.8339 86.205 49.9217 87.1173 48.7964 87.1173H38.6088C37.4835 87.1173 36.5713 86.205 36.5713 85.0797V66.7421Z" fill="#0AC290"/>
<path fill-rule="evenodd" clip-rule="evenodd" d="M17.5386 24.3877H69.8389C71.1552 24.3877 72.3148 25.2535 72.6889 26.5156L77.3775 42.3359H77.3529C77.3693 42.6112 77.3776 42.8892 77.3776 43.1694C77.3776 49.7361 72.813 55.0595 67.1823 55.0595C63.9512 55.0595 61.0712 53.3066 59.2033 50.5718C57.3354 53.3066 54.4554 55.0595 51.2243 55.0595C48.2389 55.0595 45.5532 53.563 43.6887 51.1782C41.8241 53.563 39.1384 55.0595 36.153 55.0595C32.922 55.0595 30.042 53.3067 28.1741 50.5719C26.3062 53.3066 23.4263 55.0594 20.1953 55.0594C14.5646 55.0594 10 49.736 10 43.1693C10 42.8891 10.0083 42.6112 10.0247 42.3359H10L14.6886 26.5156C15.0627 25.2535 16.2223 24.3877 17.5386 24.3877Z" fill="#B5ECDD"/>
<path fill-rule="evenodd" clip-rule="evenodd" d="M77.3529 44.0028C77.3689 43.7343 77.3771 43.4633 77.3775 43.1902C77.3775 43.1832 77.3776 43.1763 77.3776 43.1694C77.3776 43.1624 77.3775 43.1555 77.3775 43.1486C77.3772 42.8779 77.369 42.6093 77.3533 42.3431C77.3532 42.3407 77.3531 42.3383 77.3529 42.3359H77.3775L72.6889 26.5156C72.3148 25.2535 71.1552 24.3877 69.8389 24.3877H17.5386C16.2223 24.3877 15.0627 25.2535 14.6886 26.5156L10 42.3359H10.0247C10.0245 42.3383 10.0244 42.3407 10.0242 42.3431C10.0082 42.616 10 42.8915 10 43.1693C10 43.4494 10.0083 43.7273 10.0247 44.0027C10.3914 50.1806 14.8048 55.0594 20.1953 55.0594C22.4557 55.0594 24.5443 54.2015 26.2347 52.7497C26.9606 52.1263 27.613 51.3934 28.1741 50.5719C28.7352 51.3934 29.3877 52.1263 30.1135 52.7497C31.8039 54.2016 33.8926 55.0595 36.153 55.0595C38.1769 55.0595 40.0631 54.3717 41.6491 53.1856C42.4025 52.6222 43.0882 51.9463 43.6887 51.1782C44.2892 51.9463 44.9748 52.6222 45.7283 53.1856C47.3142 54.3717 49.2004 55.0595 51.2243 55.0595C53.4848 55.0595 55.5735 54.2015 57.2639 52.7496C57.9898 52.1262 58.6422 51.3933 59.2033 50.5718C59.7644 51.3933 60.4168 52.1262 61.1427 52.7496C62.8331 54.2015 64.9218 55.0595 67.1823 55.0595C72.5727 55.0595 76.9861 50.1807 77.3529 44.0028ZM12.856 42.7185L17.4182 27.3245C17.434 27.2712 17.483 27.2346 17.5386 27.2346H69.8389C69.8945 27.2346 69.9435 27.2712 69.9593 27.3245L74.5216 42.7185C74.5276 42.8677 74.5306 43.018 74.5306 43.1694C74.5306 48.5903 70.8456 52.2126 67.1823 52.2126C65.0403 52.2126 62.9813 51.0555 61.5542 48.9661L59.2033 45.5241L56.8524 48.9661C55.4253 51.0555 53.3663 52.2126 51.2243 52.2126C49.2406 52.2126 47.3389 51.2248 45.9315 49.4247L43.6887 46.5561L41.4459 49.4247C40.0384 51.2248 38.1368 52.2126 36.153 52.2126C34.0111 52.2126 31.9521 51.0555 30.525 48.9662L28.1741 45.5243L25.8232 48.9662C24.3962 51.0555 22.3372 52.2125 20.1953 52.2125C16.5319 52.2125 12.8469 48.5902 12.8469 43.1693C12.8469 43.018 12.85 42.8677 12.856 42.7185Z" fill="#0AC290"/>
<path fill-rule="evenodd" clip-rule="evenodd" d="M11.8594 40.8687H76.4541V43.7156H11.8594V40.8687Z" fill="#0AC290"/>
<path d="M43.8574 20.3878C43.8574 14.0985 48.9559 9 55.2452 9H85.6125C91.9018 9 97.0003 14.0985 97.0003 20.3878C97.0003 26.677 91.9018 31.7755 85.6125 31.7755H55.2452C48.9559 31.7755 43.8574 26.677 43.8574 20.3878Z" fill="#B5ECDD"/>
<path fill-rule="evenodd" clip-rule="evenodd" d="M55.2452 6H85.6125C93.5587 6 100 12.4416 100 20.3878C100 28.3339 93.5587 34.7755 85.6125 34.7755H55.2452C47.299 34.7755 40.8574 28.3339 40.8574 20.3878C40.8574 12.4416 47.299 6 55.2452 6ZM55.2452 9C48.9559 9 43.8574 14.0985 43.8574 20.3878C43.8574 26.677 48.9559 31.7755 55.2452 31.7755H85.6125C91.9018 31.7755 97.0003 26.677 97.0003 20.3878C97.0003 14.0985 91.9018 9 85.6125 9H55.2452Z" fill="white"/>
<path d="M78.709 15.835H80.6335L84.3099 21.7443H84.3345V15.835H86.148V24.6434H84.2112L80.5472 18.7464H80.5225V24.6434H78.709V15.835Z" fill="white"/>
<path d="M70.833 15.835H77.4208V17.4634H72.7699V19.3509H77.0384V20.856H72.7699V23.0149H77.5195V24.6434H70.833V15.835Z" fill="white"/>
<path d="M64.6644 19.9801H66.1695C66.3916 19.9801 66.6054 19.9637 66.811 19.9308C67.0166 19.8979 67.1975 19.8362 67.3538 19.7457C67.5101 19.647 67.6334 19.5113 67.7239 19.3386C67.8226 19.1659 67.872 18.9397 67.872 18.6601C67.872 18.3804 67.8226 18.1543 67.7239 17.9816C67.6334 17.8088 67.5101 17.6772 67.3538 17.5868C67.1975 17.4881 67.0166 17.4223 66.811 17.3894C66.6054 17.3565 66.3916 17.34 66.1695 17.34H64.6644V19.9801ZM62.7275 15.835H66.7C67.251 15.835 67.7198 15.9172 68.1064 16.0817C68.4929 16.238 68.8054 16.4477 69.0439 16.7109C69.2907 16.9741 69.4675 17.2742 69.5744 17.6115C69.6896 17.9487 69.7471 18.2982 69.7471 18.6601C69.7471 19.0137 69.6896 19.3633 69.5744 19.7087C69.4675 20.0459 69.2907 20.3461 69.0439 20.6093C68.8054 20.8725 68.4929 21.0863 68.1064 21.2508C67.7198 21.4071 67.251 21.4852 66.7 21.4852H64.6644V24.6434H62.7275V15.835Z" fill="white"/>
<path d="M54.8036 20.2759C54.8036 20.6461 54.8447 21.0079 54.9269 21.3616C55.0174 21.707 55.1572 22.0195 55.3464 22.2992C55.5355 22.5788 55.7823 22.805 56.0866 22.9777C56.3909 23.1422 56.761 23.2244 57.1969 23.2244C57.6328 23.2244 58.0029 23.1422 58.3072 22.9777C58.6115 22.805 58.8582 22.5788 59.0474 22.2992C59.2366 22.0195 59.3723 21.707 59.4545 21.3616C59.545 21.0079 59.5902 20.6461 59.5902 20.2759C59.5902 19.8894 59.545 19.5152 59.4545 19.1533C59.3723 18.7914 59.2366 18.4707 59.0474 18.191C58.8582 17.9032 58.6115 17.677 58.3072 17.5125C58.0029 17.3398 57.6328 17.2534 57.1969 17.2534C56.761 17.2534 56.3909 17.3398 56.0866 17.5125C55.7823 17.677 55.5355 17.9032 55.3464 18.191C55.1572 18.4707 55.0174 18.7914 54.9269 19.1533C54.8447 19.5152 54.8036 19.8894 54.8036 20.2759ZM52.8667 20.2759C52.8667 19.618 52.9654 19.0094 53.1628 18.4501C53.3602 17.8826 53.6439 17.3892 54.014 16.9697C54.3841 16.5503 54.8365 16.2213 55.3711 15.9828C55.9139 15.7443 56.5225 15.625 57.1969 15.625C57.8795 15.625 58.4881 15.7443 59.0227 15.9828C59.5573 16.2213 60.0097 16.5503 60.3798 16.9697C60.7499 17.3892 61.0336 17.8826 61.231 18.4501C61.4284 19.0094 61.5271 19.618 61.5271 20.2759C61.5271 20.9175 61.4284 21.5178 61.231 22.0771C61.0336 22.6282 60.7499 23.1093 60.3798 23.5205C60.0097 23.9317 59.5573 24.2566 59.0227 24.4951C58.4881 24.7254 57.8795 24.8405 57.1969 24.8405C56.5225 24.8405 55.9139 24.7254 55.3711 24.4951C54.8365 24.2566 54.3841 23.9317 54.014 23.5205C53.6439 23.1093 53.3602 22.6282 53.1628 22.0771C52.9654 21.5178 52.8667 20.9175 52.8667 20.2759Z" fill="white"/>
</g>
<defs>
<clipPath id="clip0_3434_6675">
<rect width="100" height="100" fill="white"/>
</clipPath>
</defs>
</svg>
