<svg width="50" height="50" viewBox="0 0 50 50" fill="none" xmlns="http://www.w3.org/2000/svg">
<g id="icon_dry_02">
<path id="Union" fill-rule="evenodd" clip-rule="evenodd" d="M15.6233 11.9C15.6233 9.1938 17.8171 7 20.5233 7H43.0983C45.8045 7 47.9983 9.1938 47.9983 11.9V36.6879H47.9946C47.9969 36.7623 47.9981 36.837 47.9981 36.912C47.9981 40.7295 44.9034 43.8243 41.0858 43.8243H3.9C3.40294 43.8243 3 43.4213 3 42.9243C3 42.4272 3.40294 42.0243 3.9 42.0243H8.63471V34.9H3.9C3.40294 34.9 3 34.4971 3 34C3 33.5029 3.40294 33.1 3.9 33.1H8.63471V25.9H3.9C3.40294 25.9 3 25.4971 3 25C3 24.5029 3.40294 24.1 3.9 24.1H8.63471V17.0001C8.63471 16.9665 8.63558 16.9331 8.6373 16.9H3.9C3.40294 16.9 3 16.4971 3 16C3 15.5029 3.40294 15.1 3.9 15.1H10.4452C10.4579 15.1 10.4705 15.1003 10.4831 15.1008C10.5002 15.1003 10.5174 15.1001 10.5347 15.1001H15.6233V11.9ZM10.4347 42.0243H41.0858C43.9093 42.0243 46.1981 39.7354 46.1981 36.912C46.1981 34.0885 43.9093 31.7997 41.0858 31.7997H19.742C18.4784 31.7997 17.454 32.824 17.454 34.0877C17.454 35.3513 18.4784 36.3757 19.742 36.3757H39.954C40.4511 36.3757 40.854 36.7787 40.854 37.2757C40.854 37.7728 40.4511 38.1757 39.954 38.1757H19.742C17.4843 38.1757 15.654 36.3454 15.654 34.0877C15.654 33.9223 15.6638 33.7593 15.6829 33.5991H15.6233V16.9001H10.5347C10.4795 16.9001 10.4347 16.9449 10.4347 17.0001V42.0243ZM17.4233 30.7204C18.0822 30.2658 18.881 29.9997 19.742 29.9997H41.0858C43.1117 29.9997 44.934 30.8712 46.1983 32.2597V11.9C46.1983 10.1879 44.8104 8.8 43.0983 8.8H20.5233C18.8112 8.8 17.4233 10.1879 17.4233 11.9V16.0001V30.7204Z" fill="#5A9BF7"/>
</g>
</svg>
