<svg width="110" height="110" viewBox="0 0 110 110" fill="none" xmlns="http://www.w3.org/2000/svg">
<path fill-rule="evenodd" clip-rule="evenodd" d="M14.5157 82.6547C14.5919 82.1977 14.5047 81.7297 14.284 81.3223C12.1894 77.4567 11 73.0291 11 68.3237C11 53.2333 23.2332 41 38.3237 41C53.4142 41 65.6475 53.2333 65.6475 68.3237C65.6475 83.4142 53.4142 95.6475 38.3237 95.6475C33.0112 95.6475 28.0528 94.1313 23.8576 91.5082C23.4038 91.2244 22.8602 91.1146 22.3359 91.2225L15.6129 92.6055C14.2373 92.8885 13.006 91.7027 13.2372 90.3174L14.5157 82.6547Z" fill="#B5ECDD"/>
<mask id="path-2-inside-1_1984_5320" fill="white">
<path fill-rule="evenodd" clip-rule="evenodd" d="M97.5034 64.5295C97.4272 64.0724 97.514 63.6043 97.7363 63.1977C100.218 58.6582 101.629 53.4494 101.629 47.9111C101.629 30.2871 87.342 16 69.718 16C52.094 16 37.8069 30.2871 37.8069 47.9111C37.8069 65.5351 52.094 79.8222 69.718 79.8222C75.9728 79.8222 81.8072 78.0227 86.7319 74.9132C87.1844 74.6275 87.7283 74.5181 88.2525 74.626L96.7212 76.3681C98.0968 76.6511 99.328 75.4653 99.0969 74.08L97.5034 64.5295Z"/>
</mask>
<path fill-rule="evenodd" clip-rule="evenodd" d="M97.5034 64.5295C97.4272 64.0724 97.514 63.6043 97.7363 63.1977C100.218 58.6582 101.629 53.4494 101.629 47.9111C101.629 30.2871 87.342 16 69.718 16C52.094 16 37.8069 30.2871 37.8069 47.9111C37.8069 65.5351 52.094 79.8222 69.718 79.8222C75.9728 79.8222 81.8072 78.0227 86.7319 74.9132C87.1844 74.6275 87.7283 74.5181 88.2525 74.626L96.7212 76.3681C98.0968 76.6511 99.328 75.4653 99.0969 74.08L97.5034 64.5295Z" fill="white"/>
<path d="M86.7319 74.9132L88.3336 77.4499L86.7319 74.9132ZM88.2525 74.626L88.857 71.6875L88.2525 74.626ZM96.7212 76.3681L97.3257 73.4297L96.7212 76.3681ZM99.0969 74.08L96.1378 74.5737L99.0969 74.08ZM97.7363 63.1977L100.369 64.6369L97.7363 63.1977ZM97.5034 64.5295L94.5443 65.0232L97.5034 64.5295ZM98.6291 47.9111C98.6291 52.934 97.3508 57.6493 95.104 61.7585L100.369 64.6369C103.086 59.6672 104.629 53.9649 104.629 47.9111H98.6291ZM69.718 19C85.6852 19 98.6291 31.9439 98.6291 47.9111H104.629C104.629 28.6302 88.9989 13 69.718 13V19ZM40.8069 47.9111C40.8069 31.9439 53.7508 19 69.718 19V13C50.4371 13 34.8069 28.6302 34.8069 47.9111H40.8069ZM69.718 76.8222C53.7508 76.8222 40.8069 63.8783 40.8069 47.9111H34.8069C34.8069 67.192 50.4371 82.8222 69.718 82.8222V76.8222ZM85.1302 72.3766C80.6708 75.1923 75.3893 76.8222 69.718 76.8222V82.8222C76.5562 82.8222 82.9436 80.8532 88.3336 77.4499L85.1302 72.3766ZM97.3257 73.4297L88.857 71.6875L87.648 77.5644L96.1167 79.3066L97.3257 73.4297ZM94.5443 65.0232L96.1378 74.5737L102.056 73.5863L100.463 64.0357L94.5443 65.0232ZM88.3336 77.4499C88.1658 77.5558 87.9236 77.6211 87.648 77.5644L88.857 71.6875C87.533 71.4151 86.2031 71.6991 85.1302 72.3766L88.3336 77.4499ZM96.1167 79.3066C99.5558 80.0141 102.634 77.0495 102.056 73.5863L96.1378 74.5737C96.0222 73.8811 96.6379 73.2882 97.3257 73.4297L96.1167 79.3066ZM95.104 61.7585C94.5765 62.7234 94.3518 63.8692 94.5443 65.0232L100.463 64.0357C100.503 64.2756 100.452 64.4851 100.369 64.6369L95.104 61.7585Z" fill="#0AC290" mask="url(#path-2-inside-1_1984_5320)"/>
<circle cx="55.5472" cy="47.9116" r="3.03661" fill="#0AC290"/>
<circle cx="69.7181" cy="47.9116" r="3.03661" fill="#0AC290"/>
<circle cx="83.8889" cy="47.9116" r="3.03661" fill="#0AC290"/>
</svg>
