<svg xmlns="http://www.w3.org/2000/svg" width="180.702" height="25" viewBox="0 0 180.702 25">
  <g id="그룹_2" data-name="그룹 2" transform="translate(-180.663 -809.611)">
    <path id="패스_1" data-name="패스 1" d="M204.219,831.608v3.555H180.663V810.989h3.84v20.619Z" transform="translate(0 -0.978)" fill="#fff"/>
    <path id="패스_2" data-name="패스 2" d="M220.19,810.026v16.266h-3.565v-1.28a8.549,8.549,0,1,1,0-13.705v-1.28ZM216.625,821.1v-5.884a5.431,5.431,0,0,0-4.706-2.353,5.3,5.3,0,0,0,0,10.59,5.432,5.432,0,0,0,4.706-2.353" transform="translate(-15.971)" fill="#fff"/>
    <path id="패스_3" data-name="패스 3" d="M300.692,824.534c0,6.79-4.231,11.056-10.594,11.056-6.328,0-10.594-4.266-10.594-11.056V810.989h3.84v13.545c0,4.443,2.7,7.5,6.754,7.5s6.79-3.058,6.79-7.5V810.989h3.8Z" transform="translate(-70.162 -0.978)" fill="#fff"/>
    <path id="패스_4" data-name="패스 4" d="M389.7,810.989v24.174h-3.057L373.02,818.1v17.064h-3.84V810.989h2.951l13.761,17.42v-17.42Z" transform="translate(-133.82 -0.978)" fill="#fff"/>
    <path id="패스_5" data-name="패스 5" d="M479.642,822.934c0,7.074-5.4,12.229-12.834,12.229H458.09V810.989h8.718c7.43,0,12.834,5.048,12.834,11.945m-3.875,0c0-4.8-3.875-8.425-8.959-8.425H461.93v17.1h4.879a8.621,8.621,0,0,0,8.959-8.674" transform="translate(-196.932 -0.978)" fill="#fff"/>
    <path id="패스_6" data-name="패스 6" d="M555.42,826.987h-5.874v8.177h-3.839V810.989h10c5.4,0,9.314,3.128,9.314,8a7.606,7.606,0,0,1-5.4,7.394l6.755,8.781h-4.693Zm-5.874-3.519h6.016c3.235,0,5.688-1.707,5.688-4.479s-2.453-4.479-5.688-4.479h-6.016Z" transform="translate(-259.127 -0.978)" fill="#fff"/>
    <path id="패스_7" data-name="패스 7" d="M639.51,810.989l-9.776,15.926v8.248h-3.875v-8.248l-9.776-15.926h4.23l7.466,12.229,7.5-12.229Z" transform="translate(-309.084 -0.978)" fill="#fff"/>
    <path id="패스_8" data-name="패스 8" d="M715.12,821.735c2.617-2.126,4.14-3.888,4.185-6.6a4.806,4.806,0,0,0-1.4-3.54,6.328,6.328,0,0,0-4.613-1.728c-3.553.024-6.035,2.4-6.035,5.775a12.053,12.053,0,0,0,.113,1.514h3.326a11.22,11.22,0,0,1-.057-1.394c.035-1.814,1.052-2.94,2.653-2.94a2.326,2.326,0,0,1,2.457,2.405c0,1.831-1.3,2.985-3.99,5.216l-4.593,3.742v2.328h12.232v-2.955h-6.531Z" transform="translate(-373.737 -0.182)" fill="#fff"/>
    <path id="패스_9" data-name="패스 9" d="M765.148,811.014h-5.139l-6.65,10.823v2.06h8.578v3.43h3.211V823.9H767.9v-2.9h-2.747Zm-3.211,9.98h-4.5l4.5-7.347Z" transform="translate(-406.53 -0.996)" fill="#fff"/>
  </g>
</svg>
