<svg width="77" height="77" viewBox="0 0 77 77" fill="none" xmlns="http://www.w3.org/2000/svg">
<g style="mix-blend-mode:multiply" filter="url(#filter0_f_3021_7239)">
<path d="M63.2621 59.9638C58.5489 69.7387 43.6841 69.4279 38.7701 72.7849C36.5526 67.9738 34.2455 62.2559 33.8418 56.2775C33.0631 44.7453 41.0046 42.1436 50.3019 40.6229C59.5992 39.1022 68.8507 48.3733 63.2621 59.9638Z" fill="url(#paint0_linear_3021_7239)" fill-opacity="0.3"/>
</g>
<path d="M60.5229 9.84992L59.5763 8.8881C53.7598 2.97815 46.13 0.0115881 38.5001 0C30.8702 0.0115881 23.2404 2.96656 17.4239 8.8881L16.4773 9.84992C5.33472 21.1715 5.33472 39.5271 16.4773 50.8487L36.4586 71.1396C37.5877 72.2868 39.4125 72.2868 40.5416 71.1396L60.5229 50.8372C71.6655 39.5271 71.6655 21.1715 60.5229 9.84992Z" fill="#0AC290"/>
<path d="M30.0428 33.6445H26.9431V40.753H30.0428C32.2334 40.753 33.8215 39.2415 33.8215 37.1495C33.8106 35.1232 32.2224 33.6445 30.0428 33.6445ZM30.0428 39.7124H28.0713V34.6851H30.0428C31.5433 34.6851 32.6824 35.7475 32.6824 37.1604C32.6715 38.6172 31.5324 39.7124 30.0428 39.7124Z" fill="white"/>
<path d="M29.9767 30.4455C30.9734 30.4455 31.7839 30.1169 32.4082 29.5364V30.2155H33.5583V23.2166H32.4082V23.9833C31.7949 23.4138 30.9734 23.0742 29.9767 23.0742C28.038 23.0742 26.3951 24.7172 26.3951 26.7544C26.3841 28.8135 28.0271 30.4455 29.9767 30.4455ZM30.0862 24.1367C31.0062 24.1367 31.8277 24.4871 32.3973 25.3305V28.2002C31.8277 29.0435 31.0062 29.394 30.0862 29.394C28.6404 29.394 27.5342 28.2221 27.5342 26.7653C27.5342 25.3196 28.6514 24.1367 30.0862 24.1367Z" fill="white"/>
<path d="M47.1948 19.4502C47.9506 18.8368 48.3996 18.322 48.4106 17.5334C48.4215 17.1391 48.2792 16.7777 48.0053 16.5038C47.6767 16.1752 47.2058 16 46.6691 16C45.6395 16.011 44.9166 16.701 44.9166 17.6758C44.9166 17.7853 44.9276 17.9606 44.9495 18.1139H45.9133C45.9024 18.0153 45.8914 17.8839 45.8914 17.7086C45.9024 17.1829 46.1981 16.8543 46.6581 16.8543C47.0743 16.8543 47.3701 17.1391 47.3701 17.5553C47.3701 18.092 46.9977 18.4206 46.2091 19.0668L44.8728 20.1511V20.8302H48.4215V19.9759H46.5486L47.1948 19.4502Z" fill="white"/>
<path d="M52.2005 16.1094H50.7109L48.7832 19.2529V19.8553H51.2695V20.852H52.2005V19.8553H53.0001V19.0119H52.2005V16.1094ZM51.2695 19.0009H49.9661L51.2695 16.8651V19.0009Z" fill="white"/>
<path d="M52.2221 43.3813V44.6738H22.9998V16.0977H24.2922V43.3813H52.2221Z" fill="white"/>
<path d="M37.3811 38.3445H40.1522L41.9923 40.7542H43.3723L41.3898 38.1693C42.3537 37.8297 42.978 37.0521 42.978 35.9896C42.978 34.5548 41.828 33.6348 40.2398 33.6348H36.2529V40.7432H37.3811V38.3445ZM37.3811 34.6753H40.196C41.1489 34.6753 41.8718 35.1791 41.8718 35.9896C41.8718 36.8002 41.1489 37.304 40.196 37.304H37.3811V34.6753Z" fill="white"/>
<path d="M49.4945 40.753V38.3214L52.6928 33.6445H51.4003L48.914 37.2371L46.4277 33.6445H45.1353L48.3226 38.3214V40.753H49.4945Z" fill="white"/>
<path d="M39.5826 30.4484C41.587 30.4484 42.9123 29.145 42.9123 27.1516V23.2305H41.7622V27.1516C41.7622 28.455 40.8531 29.4079 39.5826 29.4079C38.3121 29.4079 37.4139 28.466 37.4139 27.1516V23.2305H36.2529V27.1516C36.2529 29.145 37.6001 30.4484 39.5826 30.4484Z" fill="white"/>
<path d="M52.222 23.2305V30.3389H51.3896L46.7565 25.191V30.3389H45.6064V23.2305H46.4389L51.0719 28.3893V23.2305H52.222Z" fill="white"/>
<defs>
<filter id="filter0_f_3021_7239" x="29.7891" y="36.459" width="39.1675" height="40.3262" filterUnits="userSpaceOnUse" color-interpolation-filters="sRGB">
<feFlood flood-opacity="0" result="BackgroundImageFix"/>
<feBlend mode="normal" in="SourceGraphic" in2="BackgroundImageFix" result="shape"/>
<feGaussianBlur stdDeviation="2" result="effect1_foregroundBlur_3021_7239"/>
</filter>
<linearGradient id="paint0_linear_3021_7239" x1="41.9926" y1="69.715" x2="46.7508" y2="24.9675" gradientUnits="userSpaceOnUse">
<stop stop-color="#181818"/>
<stop offset="1" stop-color="white" stop-opacity="0"/>
</linearGradient>
</defs>
</svg>
