<?xml version="1.0" encoding="utf-8"?>
<!-- Generator: Adobe Illustrator 27.4.1, SVG Export Plug-In . SVG Version: 6.00 Build 0)  -->
<svg version="1.1" id="Layer_1" xmlns="http://www.w3.org/2000/svg" xmlns:xlink="http://www.w3.org/1999/xlink" x="0px" y="0px"
	 viewBox="0 0 100 100" style="enable-background:new 0 0 100 100;" xml:space="preserve">
<style type="text/css">
	.st0{fill:#B5ECDD;}
	.st1{fill:#0AC290;}
	.st2{fill:#FFFFFF;}
	.st3{fill:none;}
</style>
<path class="st0" d="M29.3,32.8h10.4c0.6,0,1,0.4,1,1v10.4c0,0.6-0.4,1-1,1H29.3c-0.6,0-1-0.4-1-1V33.8
	C28.3,33.3,28.7,32.8,29.3,32.8z"/>
<path class="st0" d="M29.3,55.6h10.4c0.6,0,1,0.4,1,1V67c0,0.6-0.4,1-1,1H29.3c-0.6,0-1-0.4-1-1V56.6C28.3,56.1,28.7,55.6,29.3,55.6
	z"/>
<path class="st0" d="M66.1,36.4H46.9c-0.8,0-1.5-0.7-1.5-1.5s0.7-1.5,1.5-1.5h19.2c0.8,0,1.5,0.7,1.5,1.5S66.9,36.4,66.1,36.4z"/>
<path class="st0" d="M57.3,44.7H46.9c-0.8,0-1.5-0.7-1.5-1.5s0.7-1.5,1.5-1.5h10.4c0.8,0,1.5,0.7,1.5,1.5S58.1,44.7,57.3,44.7z"/>
<path class="st1" d="M23.1,18.3c-1.7,0-3.1,1.4-3.1,3.1v62.1c0,1.7,1.4,3.1,3.1,3.1h34.1c-0.6-1-1.1-2-1.5-3H23.1
	c-0.1,0-0.1,0-0.1-0.1V21.4c0-0.1,0-0.1,0.1-0.1h14.5v-3H23.1z"/>
<path class="st1" d="M74.9,18.3H60.4v3h14.5c0.1,0,0.1,0,0.1,0.1v30.7c0.7-0.1,1.3-0.1,2-0.1c0.3,0,0.7,0,1,0V21.4
	C78,19.7,76.6,18.3,74.9,18.3z"/>
<path class="st0" d="M78,58.1c-0.3,0-0.7-0.1-1-0.1c-0.7,0-1.3,0.1-2,0.1c-8.4,1-15,8.2-15,16.9c0,3.2,0.9,6.1,2.4,8.7
	c0.6,1.1,1.4,2.1,2.3,3C67.8,89.9,72.1,92,77,92c9.4,0,17-7.6,17-17C94,66,86.9,58.6,78,58.1z"/>
<path class="st2" d="M75.2,82.5c-0.4,0-0.8-0.2-1.1-0.5l-6.2-6.9c-0.6-0.6-0.5-1.6,0.1-2.1c0.6-0.6,1.6-0.5,2.1,0.1l5,5.6l7.7-10.1
	c0.5-0.7,1.4-0.8,2.1-0.3c0.7,0.5,0.8,1.4,0.3,2.1l-8.8,11.5C76.2,82.3,75.7,82.5,75.2,82.5C75.3,82.5,75.3,82.5,75.2,82.5z"/>
<path class="st0" d="M59.4,14.2h-5.2c0,0,0,0,0,0c0-2.9-2.3-5.2-5.2-5.2s-5.2,2.3-5.2,5.2c0,0,0,0,0,0h-5.2c-0.6,0-1,0.5-1,1v3.1v3
	v2.2c0,0.6,0.5,1,1,1h20.7c0.6,0,1-0.5,1-1v-2.2v-3v-3.1C60.4,14.6,59.9,14.2,59.4,14.2z"/>
<path class="st3" d="M78,58.1c-0.3,0-0.7-0.1-1-0.1c-0.7,0-1.3,0.1-2,0.1c-8.4,1-15,8.2-15,16.9c0,3.2,0.9,6.1,2.4,8.7
	c0.6,1.1,1.4,2.1,2.3,3C67.8,89.9,72.1,92,77,92c9.4,0,17-7.6,17-17C94,66,86.9,58.6,78,58.1z"/>
<path class="st0" d="M46.9,56.2c-0.8,0-1.5,0.7-1.5,1.5s0.7,1.5,1.5,1.5h13.4c1.1-1.1,2.2-2.1,3.5-3H46.9z"/>
<path class="st0" d="M46.9,64.5c-0.8,0-1.5,0.7-1.5,1.5s0.7,1.5,1.5,1.5h8.4c0.4-1,0.8-2,1.3-3H46.9z"/>
</svg>
