<?xml version="1.0" encoding="UTF-8"?>
<svg xmlns="http://www.w3.org/2000/svg" xmlns:xlink="http://www.w3.org/1999/xlink" version="1.1" viewBox="0 0 188 188">
  <defs>
    <style>
      .cls-1 {
        fill: url(#linear-gradient);
      }

      .cls-2 {
        fill: #fff;
      }

      .cls-3 {
        fill: url(#linear-gradient-2);
        isolation: isolate;
        opacity: .7;
      }

      .cls-4 {
        fill: #6bdbbd;
      }

      .cls-5 {
        fill: #cdfff1;
      }
    </style>
    <linearGradient id="linear-gradient" x1="94.4" y1="159.2" x2="94.4" y2="20.4" gradientTransform="translate(0 187.9) scale(1 -1)" gradientUnits="userSpaceOnUse">
      <stop offset="0" stop-color="#52d5b1"/>
      <stop offset=".3" stop-color="#5ad8b5"/>
      <stop offset="1" stop-color="#8ce9cd"/>
    </linearGradient>
    <linearGradient id="linear-gradient-2" x1="94.4" y1="107.9" x2="94.4" y2="73.1" gradientTransform="translate(0 187.9) scale(1 -1)" gradientUnits="userSpaceOnUse">
      <stop offset="0" stop-color="#09ae81" stop-opacity=".8"/>
      <stop offset=".6" stop-color="#42c8a2" stop-opacity=".6"/>
      <stop offset="1" stop-color="#8ce9cd" stop-opacity="0"/>
    </linearGradient>
  </defs>
  <!-- Generator: Adobe Illustrator 28.7.1, SVG Export Plug-In . SVG Version: 1.2.0 Build 142)  -->
  <g>
    <g id="Layer_1">
      <path class="cls-1" d="M174.4,34.5H14.4c-2.8,0-5,2.2-5,5v41c0,2.8,2.2,5,5,5h8.9v77.8c0,2.9,2.3,5.3,5.3,5.3h131.6c2.9,0,5.3-2.3,5.3-5.3v-77.8h8.9c2.8,0,5-2.2,5-5v-41c0-2.7-2.2-5-5-5Z"/>
      <path class="cls-3" d="M165.5,85.5H23.4v29.2h142.1v-29.2Z"/>
      <g>
        <path class="cls-2" d="M45.7,66.3v2.6h-17.2v-17.6h2.8v15.1h14.3Z"/>
        <path class="cls-2" d="M45.7,51.2v11.9h-2.6v-1c-1,.7-2.3,1.2-3.8,1.2-3.3,0-6-2.8-6-6.2s2.7-6.2,6-6.2,2.8.5,3.8,1.2v-1h2.6ZM43.1,59.3v-4.3c-.9-1.2-2.1-1.7-3.4-1.7-2.2,0-3.8,1.7-3.8,3.9s1.6,3.9,3.8,3.9c1.2-.1,2.5-.5,3.4-1.8Z"/>
        <path class="cls-2" d="M65,61.1c0,4.9-3.1,8.1-7.7,8.1s-7.7-3.1-7.7-8.1v-9.9h2.8v9.9c0,3.2,2,5.5,4.9,5.5s4.9-2.2,4.9-5.5v-9.9h2.8v9.9Z"/>
        <path class="cls-2" d="M83.5,51.2v17.6h-2.2l-9.9-12.5v12.5h-2.8v-17.6h2.2l10,12.7v-12.7h2.7Z"/>
        <path class="cls-2" d="M103.1,59.9c0,5.1-3.9,8.9-9.3,8.9h-6.4v-17.6h6.4c5.3,0,9.3,3.7,9.3,8.7ZM100.2,59.9c0-3.6-2.8-6.1-6.5-6.1h-3.6v12.5h3.6c3.6,0,6.5-2.7,6.5-6.4Z"/>
        <path class="cls-2" d="M113,63h-4.3v6h-2.8v-17.6h7.3c3.9,0,6.9,2.3,6.9,5.9s-1.6,4.5-3.9,5.4l4.9,6.4h-3.6l-4.5-6ZM108.7,60.4h4.4c2.3,0,4.2-1.2,4.2-3.3s-1.8-3.3-4.2-3.3h-4.4v6.6Z"/>
        <path class="cls-2" d="M137.8,51.2l-7.1,11.6v6h-2.8v-6l-7.1-11.6h3.1l5.5,8.9,5.5-8.9h2.9Z"/>
        <path class="cls-2" d="M145.8,59.6c2-1.6,3.1-2.8,3.1-4.8s-.4-1.8-1-2.6c-.9-.9-2-1.2-3.3-1.2-2.6,0-4.4,1.7-4.4,4.2s0,.7.1,1.1h2.4v-1c0-1.3.7-2.2,2-2.2s1.8.7,1.8,1.7-1,2.2-2.9,3.8l-3.3,2.7v1.7h8.9v-2.2h-4.8l1.3-1.2Z"/>
        <path class="cls-2" d="M158.4,51.2h-3.8l-4.9,8v1.5h6.2v2.5h2.3v-2.5h2v-2.1h-2v-7.3h.1ZM156.1,58.5h-3.3l3.3-5.4v5.4Z"/>
      </g>
      <path class="cls-5" d="M120.2,107.5h-51.5c-2.6,0-4.8,2.2-4.8,4.8v56.3h61.1v-56.3c0-2.6-2.2-4.8-4.8-4.8ZM66.7,112.3c0-1.1.9-2,2-2h24.3v55.5h-26.3v-53.5ZM122.2,165.8h-26.3v-55.5h24.3c1.1,0,2,.9,2,2v53.5Z"/>
      <path class="cls-4" d="M93,110.3h-24.3c-1.1,0-2,.9-2,2v53.5h26.3v-55.5Z"/>
      <path class="cls-4" d="M122.2,112.3c0-1.1-.9-2-2-2h-24.3v55.5h26.3v-53.5Z"/>
      <g>
        <rect class="cls-5" x="83.4" y="133.7" width="3.9" height="10.2" rx=".8" ry=".8"/>
        <rect class="cls-5" x="101.5" y="133.7" width="3.9" height="10.2" rx=".8" ry=".8"/>
      </g>
    </g>
  </g>
</svg>