<svg width="188" height="188" viewBox="0 0 188 188" fill="none" xmlns="http://www.w3.org/2000/svg">
<g id="icon_competitive_03">
<g id="Group">
<path id="Vector" d="M94.0825 186.501C129.144 186.501 157.567 158.078 157.567 123.016C157.567 87.9544 129.144 59.5312 94.0825 59.5312C59.0208 59.5312 30.5977 87.9544 30.5977 123.016C30.5977 158.078 59.0208 186.501 94.0825 186.501Z" fill="white"/>
<path id="Vector_2" d="M94.0821 71.8789C82.8012 71.8789 73.5391 81.0224 73.5391 92.422C73.5391 99.0718 76.6265 104.89 81.4951 108.69C84.9387 111.421 89.3323 112.965 94.0821 112.965C98.8319 112.965 103.107 111.303 106.669 108.69C111.538 104.89 114.625 99.0718 114.625 92.422C114.625 81.0224 105.482 71.8789 94.0821 71.8789Z" fill="#7FE2C6"/>
<path id="Vector_3" d="M132.273 16.625H56.3398C47.1395 16.625 39.7793 24.13 39.7793 33.2345C39.7793 42.339 47.2622 49.844 56.3398 49.844H85.658L88.7248 54.0271L91.9143 58.3333C93.141 59.9327 95.4717 59.9327 96.6984 58.3333L99.8878 54.0271L102.955 49.844H132.273C141.473 49.844 148.833 42.339 148.833 33.2345C148.833 24.13 141.35 16.625 132.273 16.625Z" fill="#3ABE99"/>
<path id="Vector_4" d="M130.776 140.631C130.776 140.631 121.632 119.97 109.401 116.17C107.858 115.695 106.195 116.051 104.77 116.882C101.683 118.782 98.0018 119.97 94.0831 119.97C90.1645 119.97 86.4834 118.901 83.396 116.882C81.971 116.051 80.3086 115.695 78.7649 116.17C66.5341 120.088 57.3907 140.631 57.3907 140.631C55.0158 147.281 57.0344 152.269 61.3093 155C67.6028 159.037 77.6962 163.668 94.0831 163.668C110.47 163.668 120.445 159.156 126.857 155C131.251 152.15 133.269 147.281 130.776 140.631Z" fill="#7FE2C6"/>
<g id="Group_2">
<path id="Vector_5" d="M59.9411 31.8854V28.947C59.9411 28.6205 60.05 28.5117 60.3765 28.5117H61.356C61.6825 28.5117 61.7912 28.6205 61.7912 28.947V31.8854H64.512C64.7296 31.8854 64.9473 31.9942 64.9473 32.3207V33.3002C64.9473 33.5178 64.8384 33.7355 64.512 33.7355H61.7912V36.6739C61.7912 37.0003 61.6825 37.1092 61.356 37.1092H60.3765C60.05 37.1092 59.9411 37.0003 59.9411 36.6739V33.7355H57.2204C57.0028 33.7355 56.7852 33.6267 56.7852 33.3002V32.3207C56.7852 32.1031 56.8939 31.8854 57.2204 31.8854H59.9411Z" fill="white"/>
<path id="Vector_6" d="M66.906 30.4702C66.7972 30.4702 66.7972 30.5791 66.6884 30.5791C66.4707 30.5791 66.4707 30.4703 66.4707 30.2526V29.0555C66.4707 28.9466 66.4707 28.8378 66.5796 28.729C66.5796 28.6201 66.6884 28.6202 66.7972 28.5113L69.0826 27.0965C69.3003 26.9877 69.5179 26.8789 69.7356 26.8789H70.4974C70.715 26.8789 70.9327 26.9877 70.9327 27.3142V38.9589C70.9327 39.2854 70.8239 39.3942 70.4974 39.3942H69.518C69.1915 39.3942 69.0826 39.2854 69.0826 38.9589V29.1643L66.906 30.4702Z" fill="white"/>
<path id="Vector_7" d="M73.1094 33.0816C73.1094 30.905 73.5447 29.2726 74.3065 28.2931C75.1771 27.2048 76.2654 26.7695 77.8978 26.7695C79.4214 26.7695 80.6186 27.3137 81.4892 28.2931C82.3598 29.3814 82.6863 30.905 82.6863 33.0816C82.6863 35.2581 82.251 36.8906 81.4892 37.8701C80.7274 38.8495 79.5302 39.3936 77.8978 39.3936C76.3742 39.3936 75.1771 38.8495 74.3065 37.8701C73.4358 36.8906 73.1094 35.2581 73.1094 33.0816ZM74.9595 33.0816C74.9595 34.714 75.1771 35.8023 75.7212 36.5641C76.2654 37.3259 76.9183 37.6524 77.8978 37.6524C78.8772 37.6524 79.639 37.3259 80.0744 36.5641C80.6185 35.8023 80.8362 34.6052 80.8362 33.0816C80.8362 31.558 80.6185 30.3609 80.0744 29.5991C79.5302 28.8373 78.8772 28.5108 77.8978 28.5108C76.9183 28.5108 76.1565 28.8373 75.7212 29.5991C75.2859 30.3609 74.9595 31.558 74.9595 33.0816Z" fill="white"/>
<path id="Vector_8" d="M83.9922 33.0816C83.9922 30.905 84.4275 29.2726 85.1893 28.2931C86.0599 27.2048 87.1482 26.7695 88.7806 26.7695C90.3042 26.7695 91.5014 27.3137 92.372 28.2931C93.2426 29.3814 93.5691 30.905 93.5691 33.0816C93.5691 35.2581 93.1338 36.8906 92.372 37.8701C91.6102 38.8495 90.413 39.3936 88.7806 39.3936C87.257 39.3936 86.0599 38.8495 85.1893 37.8701C84.3186 36.8906 83.9922 35.2581 83.9922 33.0816ZM85.8423 33.0816C85.8423 34.714 86.0599 35.8023 86.604 36.5641C87.1482 37.3259 87.8011 37.6524 88.7806 37.6524C89.7601 37.6524 90.5219 37.3259 90.9572 36.5641C91.5013 35.8023 91.719 34.6052 91.719 33.0816C91.719 31.558 91.5013 30.3609 90.9572 29.5991C90.413 28.8373 89.7601 28.5108 88.7806 28.5108C87.8011 28.5108 87.0393 28.8373 86.604 29.5991C86.0599 30.3609 85.8423 31.558 85.8423 33.0816Z" fill="white"/>
<path id="Vector_9" d="M96.6156 38.1953C96.9421 38.1953 97.2686 38.3041 97.4862 38.5218C97.7039 38.7394 97.8128 39.066 97.8128 39.5013C97.8128 40.1542 97.5951 40.6984 97.2686 41.0249C96.8333 41.3513 96.398 41.569 95.745 41.569C95.6362 41.569 95.6362 41.4602 95.6362 41.3513V41.0249C95.6362 40.916 95.6362 40.8072 95.745 40.8072C96.0715 40.8072 96.2891 40.6984 96.398 40.3719C96.0715 40.3719 95.8538 40.1542 95.745 40.0454C95.6362 39.9366 95.5273 39.6101 95.5273 39.2836C95.5273 38.9571 95.6362 38.6306 95.8538 38.413C96.0715 38.1953 96.1803 38.1953 96.6156 38.1953Z" fill="white"/>
<path id="Vector_10" d="M99.2285 33.0816C99.2285 30.905 99.6638 29.2726 100.426 28.2931C101.296 27.2048 102.385 26.7695 104.017 26.7695C105.541 26.7695 106.738 27.3137 107.608 28.2931C108.479 29.3814 108.805 30.905 108.805 33.0816C108.805 35.2581 108.37 36.8906 107.608 37.8701C106.847 38.8495 105.649 39.3936 104.017 39.3936C102.493 39.3936 101.296 38.8495 100.426 37.8701C99.555 36.8906 99.2285 35.2581 99.2285 33.0816ZM101.079 33.0816C101.079 34.714 101.296 35.8023 101.84 36.5641C102.385 37.3259 103.037 37.6524 104.017 37.6524C104.996 37.6524 105.758 37.3259 106.193 36.5641C106.738 35.8023 106.955 34.6052 106.955 33.0816C106.955 31.558 106.738 30.3609 106.193 29.5991C105.649 28.8373 104.996 28.5108 104.017 28.5108C103.037 28.5108 102.276 28.8373 101.84 29.5991C101.296 30.3609 101.079 31.558 101.079 33.0816Z" fill="white"/>
<path id="Vector_11" d="M110.111 33.0816C110.111 30.905 110.547 29.2726 111.308 28.2931C112.179 27.2048 113.267 26.7695 114.9 26.7695C116.423 26.7695 117.621 27.3137 118.491 28.2931C119.362 29.3814 119.688 30.905 119.688 33.0816C119.688 35.2581 119.253 36.8906 118.491 37.8701C117.729 38.8495 116.532 39.3936 114.9 39.3936C113.376 39.3936 112.179 38.8495 111.308 37.8701C110.438 36.8906 110.111 35.2581 110.111 33.0816ZM111.961 33.0816C111.961 34.714 112.179 35.8023 112.723 36.5641C113.267 37.3259 113.92 37.6524 114.9 37.6524C115.879 37.6524 116.641 37.3259 117.076 36.5641C117.62 35.8023 117.838 34.6052 117.838 33.0816C117.838 31.558 117.62 30.3609 117.076 29.5991C116.532 28.8373 115.879 28.5108 114.9 28.5108C113.92 28.5108 113.158 28.8373 112.723 29.5991C112.179 30.3609 111.961 31.558 111.961 33.0816Z" fill="white"/>
<path id="Vector_12" d="M120.994 33.0816C120.994 30.905 121.429 29.2726 122.191 28.2931C123.062 27.2048 124.15 26.7695 125.783 26.7695C127.306 26.7695 128.503 27.3137 129.374 28.2931C130.245 29.3814 130.571 30.905 130.571 33.0816C130.571 35.2581 130.136 36.8906 129.374 37.8701C128.612 38.8495 127.415 39.3936 125.783 39.3936C124.259 39.3936 123.062 38.8495 122.191 37.8701C121.321 36.8906 120.994 35.2581 120.994 33.0816ZM122.844 33.0816C122.844 34.714 123.062 35.8023 123.606 36.5641C124.15 37.3259 124.803 37.6524 125.783 37.6524C126.762 37.6524 127.524 37.3259 127.959 36.5641C128.503 35.8023 128.721 34.6052 128.721 33.0816C128.721 31.558 128.503 30.3609 127.959 29.5991C127.415 28.8373 126.762 28.5108 125.783 28.5108C124.803 28.5108 124.041 28.8373 123.606 29.5991C123.062 30.3609 122.844 31.558 122.844 33.0816Z" fill="white"/>
</g>
</g>
</g>
</svg>
