<svg width="110" height="110" viewBox="0 0 110 110" fill="none" xmlns="http://www.w3.org/2000/svg">
<g clip-path="url(#clip0_1984_5342)">
<path d="M40.0641 21.3789L40.0641 77.879" stroke="#B5ECDD" stroke-width="3"/>
<path d="M65.8728 28.2666L65.8728 83.3913" stroke="#B5ECDD" stroke-width="3"/>
<mask id="path-3-inside-1_1984_5342" fill="white">
<path fill-rule="evenodd" clip-rule="evenodd" d="M15 28.5049C15 27.1238 15.9428 25.9212 17.2839 25.5916L40.0316 20C40.0316 20 40.0317 20 40.0317 20C40.0317 20 40.0317 20 40.0317 20L65.1919 25.9851C65.6558 26.0954 66.1392 26.0936 66.6023 25.9798L87.2133 20.9134C89.1038 20.4487 90.9294 21.8799 90.9294 23.8267V68.13V76.8706C90.9294 78.2517 89.9866 79.4543 88.6455 79.7839L78.4135 82.299L66.6023 85.2023C66.1392 85.3161 65.6558 85.3179 65.1919 85.2076L40.7375 79.3904C40.2736 79.2801 39.7901 79.2819 39.3271 79.3957L18.7161 84.4621C16.8256 84.9268 15 83.4956 15 81.5488V28.5049Z"/>
</mask>
<path d="M78.4135 82.299L79.1297 85.2123L78.4135 82.299ZM18.7161 84.4621L18 81.5488L18.7161 84.4621ZM40.7375 79.3904L41.4318 76.4719L40.7375 79.3904ZM39.3271 79.3957L38.611 76.4824L39.3271 79.3957ZM66.6023 85.2023L67.3184 88.1156L66.6023 85.2023ZM65.1919 85.2076L65.8862 82.289L65.1919 85.2076ZM88.6455 79.7839L87.9294 76.8706L88.6455 79.7839ZM87.2133 20.9134L86.4972 18.0002L87.2133 20.9134ZM65.1919 25.9851L64.4976 28.9036L65.1919 25.9851ZM66.6023 25.9798L65.8862 23.0665L66.6023 25.9798ZM40.0317 20L39.3374 22.9186L40.0317 20ZM40.0316 20L40.7477 22.9133L40.0316 20ZM39.3155 17.0867L16.5678 22.6783L18 28.5049L40.7477 22.9133L39.3155 17.0867ZM65.8862 23.0665L40.7259 17.0814L39.3374 22.9186L64.4976 28.9036L65.8862 23.0665ZM86.4972 18.0002L65.8862 23.0665L67.3184 28.8931L87.9294 23.8267L86.4972 18.0002ZM93.9294 68.13V23.8267H87.9294V68.13H93.9294ZM93.9294 76.8706V68.13H87.9294V76.8706H93.9294ZM79.1297 85.2123L89.3616 82.6972L87.9294 76.8706L77.6974 79.3857L79.1297 85.2123ZM67.3184 88.1156L79.1297 85.2123L77.6974 79.3857L65.8862 82.289L67.3184 88.1156ZM40.0432 82.309L64.4976 88.1262L65.8862 82.289L41.4318 76.4719L40.0432 82.309ZM19.4322 87.3753L40.0432 82.309L38.611 76.4824L18 81.5488L19.4322 87.3753ZM12 28.5049V81.5488H18V28.5049H12ZM18 81.5488H12C12 85.4424 15.6511 88.3048 19.4322 87.3753L18 81.5488ZM41.4318 76.4719C40.504 76.2512 39.5371 76.2548 38.611 76.4824L40.0432 82.309L41.4318 76.4719ZM65.8862 82.289L64.4976 88.1262C65.4254 88.3468 66.3923 88.3432 67.3184 88.1156L65.8862 82.289ZM87.9294 76.8706H87.9294L89.3616 82.6972C92.0438 82.0379 93.9294 79.6327 93.9294 76.8706H87.9294ZM87.9294 23.8267V23.8267H93.9294C93.9294 19.9331 90.2783 17.0707 86.4972 18.0002L87.9294 23.8267ZM64.4976 28.9036C65.4253 29.1243 66.3923 29.1207 67.3184 28.8931L65.8862 23.0665L64.4976 28.9036ZM40.0317 23C39.9407 23 39.8298 22.9959 39.7041 22.9821C39.577 22.9681 39.4546 22.9464 39.3374 22.9186L40.7259 17.0814C40.4705 17.0207 40.2349 17 40.0317 17V23ZM16.5678 22.6783C13.8856 23.3376 12 25.7428 12 28.5049H18L18 28.5049L16.5678 22.6783ZM40.7477 22.9133C40.5134 22.9709 40.273 23 40.0317 23V17C39.7903 17 39.5499 17.0291 39.3155 17.0867L40.7477 22.9133Z" fill="#0AC290" mask="url(#path-3-inside-1_1984_5342)"/>
<mask id="path-5-outside-2_1984_5342" maskUnits="userSpaceOnUse" x="49.1044" y="38.4204" width="60.1044" height="66.6185" fill="black">
<rect fill="white" x="49.1044" y="38.4204" width="60.1044" height="66.6185"/>
<path fill-rule="evenodd" clip-rule="evenodd" d="M87.6445 80.32C84.7148 82.67 81.0616 84.1784 77.0303 84.4497C66.5472 85.1553 57.477 77.2291 56.7714 66.746C56.0658 56.2629 63.992 47.1927 74.4751 46.4871C84.9582 45.7815 94.0284 53.7077 94.734 64.1908C95.1155 69.8582 92.9741 75.1126 89.2698 78.8556C89.9329 78.7529 90.6323 78.9862 91.0997 79.5342L101.482 91.707C102.199 92.5475 102.098 93.8098 101.258 94.5266C100.417 95.2434 99.1551 95.1431 98.4383 94.3027L88.0563 82.1299C87.6141 81.6115 87.4829 80.9325 87.6445 80.32Z"/>
</mask>
<path fill-rule="evenodd" clip-rule="evenodd" d="M87.6445 80.32C84.7148 82.67 81.0616 84.1784 77.0303 84.4497C66.5472 85.1553 57.477 77.2291 56.7714 66.746C56.0658 56.2629 63.992 47.1927 74.4751 46.4871C84.9582 45.7815 94.0284 53.7077 94.734 64.1908C95.1155 69.8582 92.9741 75.1126 89.2698 78.8556C89.9329 78.7529 90.6323 78.9862 91.0997 79.5342L101.482 91.707C102.199 92.5475 102.098 93.8098 101.258 94.5266C100.417 95.2434 99.1551 95.1431 98.4383 94.3027L88.0563 82.1299C87.6141 81.6115 87.4829 80.9325 87.6445 80.32Z" fill="white"/>
<path d="M87.6445 80.32L93.4459 81.8507L98.0899 64.2495L83.8902 75.6397L87.6445 80.32ZM89.2698 78.8556L85.0051 74.6351L72.2023 87.572L90.1886 84.7849L89.2698 78.8556ZM91.0997 79.5342L95.6648 75.6407L95.6648 75.6407L91.0997 79.5342ZM101.482 91.707L106.047 87.8135L106.047 87.8135L101.482 91.707ZM101.258 94.5266L97.3644 89.9614L97.3643 89.9615L101.258 94.5266ZM98.4383 94.3027L93.8732 98.1963L93.8732 98.1963L98.4383 94.3027ZM88.0563 82.1299L83.4911 86.0234L83.4912 86.0234L88.0563 82.1299ZM77.4332 90.4362C82.728 90.0798 87.5429 88.0933 91.3987 85.0004L83.8902 75.6397C81.8868 77.2467 79.3952 78.277 76.6273 78.4632L77.4332 90.4362ZM50.7849 67.1489C51.713 80.9382 63.6439 91.3643 77.4332 90.4362L76.6273 78.4632C69.4505 78.9463 63.2409 73.5199 62.7578 66.343L50.7849 67.1489ZM74.0722 40.5006C60.2828 41.4287 49.8568 53.3596 50.7849 67.1489L62.7578 66.343C62.2748 59.1662 67.7012 52.9566 74.878 52.4735L74.0722 40.5006ZM100.72 63.7879C99.7923 49.9985 87.8615 39.5725 74.0722 40.5006L74.878 52.4735C82.0549 51.9905 88.2645 57.4169 88.7475 64.5937L100.72 63.7879ZM93.5345 83.0761C98.3977 78.162 101.222 71.2435 100.72 63.7879L88.7475 64.5937C89.0086 68.4728 87.5505 72.0632 85.0051 74.6351L93.5345 83.0761ZM90.1886 84.7849C88.8806 84.9876 87.4738 84.529 86.5346 83.4277L95.6648 75.6407C93.7908 73.4433 90.9853 72.5182 88.351 72.9264L90.1886 84.7849ZM86.5346 83.4277L96.9166 95.6006L106.047 87.8135L95.6648 75.6407L86.5346 83.4277ZM96.9166 95.6006C95.483 93.9197 95.6835 91.395 97.3644 89.9614L105.151 99.0917C108.513 96.2246 108.914 91.1752 106.047 87.8135L96.9166 95.6006ZM97.3643 89.9615C99.0452 88.5279 101.57 88.7284 103.003 90.4092L93.8732 98.1963C96.7403 101.558 101.79 101.959 105.151 99.0917L97.3643 89.9615ZM103.003 90.4092L92.6214 78.2363L83.4912 86.0234L93.8732 98.1963L103.003 90.4092ZM92.6214 78.2364C93.5091 79.2771 93.7645 80.6432 93.4459 81.8507L81.843 78.7894C81.2012 81.2217 81.7192 83.9458 83.4911 86.0234L92.6214 78.2364Z" fill="white" mask="url(#path-5-outside-2_1984_5342)"/>
<circle cx="76" cy="65" r="17.5" fill="white" stroke="#0AC290" stroke-width="3"/>
<circle cx="76" cy="65" r="11" fill="#B5ECDD"/>
<path d="M88.3669 78.7246L99.393 91.8984" stroke="#0AC290" stroke-width="3" stroke-linecap="round"/>
</g>
<defs>
<clipPath id="clip0_1984_5342">
<rect width="110" height="110" fill="white"/>
</clipPath>
</defs>
</svg>
