<svg width="21" height="18" viewBox="0 0 21 18" fill="none" xmlns="http://www.w3.org/2000/svg">
<path id="&#226;&#128;&#156;" d="M21 18H12.5677V9.79121C12.5677 7.26374 13.1923 5.17582 14.4415 3.52747C15.7123 1.87912 17.5538 0.703297 19.9662 0L20.9677 3.0989C20.1492 3.38462 19.4708 3.69231 18.9323 4.02198C18.3938 4.32967 17.9631 4.69231 17.64 5.10989C17.3169 5.5055 17.0908 5.96703 16.9615 6.49451C16.8323 7.02198 16.7677 7.63736 16.7677 8.34066H21V18ZM8.43231 18H0V9.79121C0 7.26374 0.624615 5.17582 1.87385 3.52747C3.14462 1.87912 4.98615 0.703297 7.39846 0L8.4 3.0989C7.58154 3.38462 6.90308 3.69231 6.36462 4.02198C5.82615 4.32967 5.39538 4.69231 5.07231 5.10989C4.74923 5.5055 4.52308 5.96703 4.39385 6.49451C4.26462 7.02198 4.2 7.63736 4.2 8.34066H8.43231V18Z" fill="white"/>
</svg>
