<svg width="110" height="110" viewBox="0 0 110 110" fill="none" xmlns="http://www.w3.org/2000/svg">
<path d="M12.3611 81.7783L53.3394 58.9609C54.2513 58.4531 55.3616 58.4558 56.271 58.968L96.771 81.7783" stroke="#B5ECDD" stroke-width="3"/>
<path d="M96.121 82.7457L56.6749 105.158C55.7559 105.68 54.6299 105.68 53.7109 105.158L14.2648 82.7457C13.3265 82.2126 12.7468 81.2166 12.7468 80.1374V35.7073C12.7468 34.6125 13.3432 33.6047 14.3028 33.0777L54.8433 10.8146C55.7641 10.309 56.8822 10.3218 57.7912 10.8483L96.1428 33.0654C97.0689 33.6019 97.639 34.5911 97.639 35.6613V80.1374C97.639 81.2166 97.0594 82.2126 96.121 82.7457Z" stroke="#B5ECDD" stroke-width="3"/>
<path d="M78.8551 78.0181L57.266 90.056C56.2823 90.6045 55.0838 90.6001 54.1042 90.0444L34.429 78.8838C33.4192 78.3109 32.7952 77.2396 32.7952 76.0786V47.7931C32.7952 46.6377 33.4132 45.5706 34.4154 44.9957L54.1957 33.6475C55.125 33.1144 56.2583 33.0775 57.2202 33.5491L78.5886 44.0242C79.6936 44.5659 80.3941 45.6893 80.3941 46.92V75.3979C80.3941 76.4857 79.8052 77.4883 78.8551 78.0181Z" fill="white" stroke="#0AC290" stroke-width="3"/>
<path d="M39.8464 69.2853C39.8464 68.8155 40.3549 68.5219 40.7617 68.7567L47.053 72.3868C47.3678 72.5685 47.5618 72.9044 47.5618 73.2678V84.7413C47.5618 85.5271 46.7086 86.0161 46.0306 85.619L40.3495 82.2918C40.0379 82.1093 39.8464 81.7752 39.8464 81.4141V69.2853Z" fill="#0AC290"/>
<path d="M57.7714 66.6344L81.5044 54.9761C82.5311 54.4717 83.1817 53.4274 83.1817 52.2834V42.3126C83.1817 41.1598 82.5663 40.0946 81.5676 39.5187L57.6526 25.7287C56.6867 25.1717 55.5016 25.1532 54.5187 25.6797L34.5985 36.3509C30.4064 38.5966 27.7898 42.9667 27.7898 47.7224V49.2883C27.7898 50.4466 28.4109 51.5159 29.4169 52.0897L54.7515 66.5411C55.6804 67.0709 56.8116 67.1059 57.7714 66.6344Z" fill="white"/>
<path d="M57.7714 66.6344L81.5044 54.9761C82.5311 54.4717 83.1817 53.4274 83.1817 52.2834V42.3126C83.1817 41.1598 82.5663 40.0946 81.5676 39.5187L57.6526 25.7287C56.6867 25.1717 55.5016 25.1532 54.5187 25.6797L34.5985 36.3509C30.4064 38.5966 27.7898 42.9667 27.7898 47.7224V49.2883C27.7898 50.4466 28.4109 51.5159 29.4169 52.0897L54.7515 66.5411C55.6804 67.0709 56.8116 67.1059 57.7714 66.6344Z" fill="#B5ECDD"/>
<path d="M57.7714 66.6344L81.5044 54.9761C82.5311 54.4717 83.1817 53.4274 83.1817 52.2834V42.3126C83.1817 41.1598 82.5663 40.0946 81.5676 39.5187L57.6526 25.7287C56.6867 25.1717 55.5016 25.1532 54.5187 25.6797L34.5985 36.3509C30.4064 38.5966 27.7898 42.9667 27.7898 47.7224V49.2883C27.7898 50.4466 28.4109 51.5159 29.4169 52.0897L54.7515 66.5411C55.6804 67.0709 56.8116 67.1059 57.7714 66.6344Z" stroke="#0AC290" stroke-width="3"/>
<path d="M57.5 56.5L29.5 40.5" stroke="#0AC290" stroke-width="3"/>
<path d="M56.2368 65.0301V62.8942C56.2368 58.0742 58.9239 53.6562 63.2039 51.4393L82.2363 41.5811" stroke="#0AC290" stroke-width="3"/>
<path d="M56.1819 90.1645V65.041" stroke="#0AC290" stroke-width="3"/>
</svg>
