<svg width="51" height="50" viewBox="0 0 51 50" fill="none" xmlns="http://www.w3.org/2000/svg">
<g id="icon_laundry_02">
<path id="Union" fill-rule="evenodd" clip-rule="evenodd" d="M24.135 5.4489C24.2572 5.10589 24.6629 4.8 25.0931 4.8C25.7064 4.8 26.1114 5.23306 26.1114 5.65653C26.1114 6.07896 25.8435 6.49866 25.2158 6.63132C24.5939 6.76276 23.9059 7.30478 23.9059 8.17184V9.05824C23.7134 9.13182 23.5284 9.231 23.3561 9.35566L20.0042 11.7806C19.9783 11.6423 19.9613 11.512 19.9522 11.3927C19.9337 11.1506 19.8183 10.9264 19.6321 10.7707C19.4459 10.615 19.2047 10.5411 18.9632 10.5658C15.5909 10.9107 13.1408 11.8227 11.0967 13.026C9.78148 13.8002 8.9257 14.6742 8.1736 15.4422C8.0134 15.6059 7.85789 15.7647 7.70365 15.9167C6.83524 16.7726 5.89517 17.5495 4.11044 18.156C3.87806 18.2349 3.688 18.4054 3.5843 18.6278C3.48059 18.8503 3.47222 19.1054 3.56114 19.3342L7.02685 28.2507C7.16968 28.6182 7.53505 28.8499 7.92835 28.8225C10.2359 28.6615 12.4865 27.475 14.2101 26.1634C14.5432 28.8793 14.0181 31.5925 13.101 34.0292C12.0184 36.906 10.4126 39.3335 9.14706 40.816C8.83144 41.1857 8.86646 41.7392 9.22617 42.0662C11.9609 44.5524 15.0857 45.0695 17.9564 44.9499C19.3831 44.8904 20.7646 44.6732 22.0098 44.4593C22.2056 44.4256 22.397 44.3923 22.5843 44.3596L22.5854 44.3595L22.5856 44.3594H22.5856C23.6128 44.1805 24.5135 44.0235 25.3078 43.963C28.2225 43.741 30.2428 44.7059 31.7514 45.8432C32.081 46.0916 32.5373 46.0841 32.8585 45.8248C35.6637 43.5604 36.9209 39.4436 37.3885 35.3401C37.7827 31.881 37.6353 28.2559 37.258 25.3466C37.5592 25.488 37.8825 25.641 38.221 25.8012L38.2224 25.8019L38.2247 25.803C38.4144 25.8928 38.6088 25.9848 38.8068 26.0784C40.0463 26.6639 41.406 27.298 42.4937 27.7382C42.7246 27.8317 42.9839 27.8253 43.2099 27.7205C43.4358 27.6157 43.6083 27.422 43.6862 27.1854L46.7535 17.8699C46.8311 17.6343 46.808 17.3771 46.6897 17.1591C46.5714 16.9411 46.3683 16.7816 46.1285 16.7182C45.2355 16.4823 43.8872 15.864 42.3066 15.0251C40.747 14.1972 39.0308 13.1926 37.4248 12.2291C36.1178 11.4448 34.7327 11.1523 33.5368 11.0273C32.9388 10.9648 32.3755 10.9431 31.8921 10.9266L31.7948 10.9233C31.3411 10.908 30.9886 10.896 30.7046 10.8628C30.2702 10.8119 29.8621 11.0807 29.7373 11.4999C29.7264 11.5365 29.715 11.5738 29.703 11.6116L26.0562 9.27851C25.9434 9.20636 25.8262 9.14458 25.7059 9.09312V8.36533C27.046 8.03213 27.9114 6.94521 27.9114 5.65653C27.9114 4.0136 26.4591 3 25.0931 3C23.9137 3 22.821 3.77351 22.4394 4.84492C22.2726 5.31316 22.517 5.82795 22.9852 5.99473C23.4535 6.16152 23.9682 5.91714 24.135 5.4489ZM25.0862 10.7948C24.8786 10.6619 24.6108 10.6696 24.4111 10.814L20.7039 13.496C20.7954 13.6331 20.8964 13.7677 21.0074 13.8978C21.6854 14.692 22.7756 15.363 24.541 15.363C26.3349 15.363 27.5019 14.7423 28.2807 13.9848C28.5217 13.7503 28.7299 13.4983 28.9091 13.2405L25.0862 10.7948ZM18.3101 12.4571C15.628 12.83 13.6613 13.605 12.0099 14.5771C10.917 15.2205 10.2455 15.9039 9.50451 16.6579C9.33128 16.8342 9.15425 17.0143 8.96716 17.1987C8.11723 18.0364 7.1456 18.8574 5.56716 19.5267L8.45155 26.9476C10.5596 26.5837 12.7036 25.2114 14.2059 23.8201C14.44 23.6032 14.7715 23.5266 15.0771 23.6187C15.3826 23.7107 15.6166 23.9577 15.692 24.2678C16.581 27.9249 15.9498 31.57 14.7857 34.6632C13.778 37.3409 12.3536 39.6529 11.0905 41.2785C13.1929 42.8759 15.5377 43.2491 17.8814 43.1514C19.1848 43.0971 20.4695 42.8975 21.705 42.6852C21.8884 42.6537 22.0718 42.6217 22.2545 42.5898L22.2568 42.5894C23.279 42.411 24.2819 42.236 25.171 42.1682C28.241 41.9343 30.515 42.8315 32.2284 43.9749C34.1327 42.0831 35.1793 38.8293 35.6001 35.1363C36.0506 31.1826 35.7569 26.9653 35.2328 23.9995C35.1755 23.6756 35.2996 23.3462 35.5563 23.1405C35.813 22.9349 36.1615 22.8856 36.4652 23.0122C37.0617 23.2607 37.9932 23.7018 39.006 24.1813L39.0146 24.1854C39.1994 24.2729 39.3869 24.3617 39.5756 24.4508C40.4865 24.8811 41.4344 25.3242 42.282 25.6948L44.7618 18.1635C43.7933 17.8004 42.6478 17.2441 41.4627 16.615C39.8603 15.7644 38.1116 14.7403 36.4987 13.7725C35.5042 13.1758 34.4089 12.9283 33.3496 12.8175C32.8199 12.7622 32.3119 12.742 31.8307 12.7256L31.7103 12.7215L31.7101 12.7215C31.5468 12.7161 31.3831 12.7106 31.2228 12.7035C30.9 13.5145 30.3739 14.4598 29.5357 15.2751C28.4229 16.3574 26.8066 17.163 24.541 17.163C22.247 17.163 20.6572 16.2599 19.6384 15.0665C18.93 14.2367 18.5161 13.2897 18.3101 12.4571Z" fill="#0AC290"/>
</g>
</svg>
