<svg width="51" height="50" viewBox="0 0 51 50" fill="none" xmlns="http://www.w3.org/2000/svg">
<g id="icon_laundry_01">
<g id="Group 130">
<path id="Subtract" d="M29.8915 6L30.0541 5.11481C29.7929 5.06684 29.5239 5.13663 29.319 5.30551C29.1142 5.47439 28.9943 5.72513 28.9915 5.99064L29.8915 6ZM20.0465 6.13058L20.9459 6.09774C20.9363 5.83306 20.8105 5.58607 20.6022 5.42256C20.3938 5.25905 20.124 5.19562 19.8646 5.24916L20.0465 6.13058ZM14.2688 8.10523L13.8361 7.31603L14.2688 8.10523ZM7.92055 12.7393L8.51848 13.4119L8.52222 13.4086L7.92055 12.7393ZM7.92052 12.7393L7.32259 12.0666L7.31885 12.07L7.92052 12.7393ZM7.5 13.1135L6.9111 12.4329C6.6092 12.6941 6.51547 13.123 6.68089 13.4864L7.5 13.1135ZM10.9521 20.6962L10.133 21.0691C10.2382 21.3003 10.4363 21.4763 10.6783 21.5535C10.9203 21.6308 11.1837 21.6022 11.4035 21.4748L10.9521 20.6962ZM16.2317 17.6353H17.1317C17.1317 17.3135 16.9599 17.0161 16.681 16.8555C16.4021 16.6948 16.0587 16.6953 15.7803 16.8567L16.2317 17.6353ZM16.2317 30.4356H15.3317C15.3317 30.9327 15.7346 31.3356 16.2317 31.3356V30.4356ZM34.3761 30.4356V31.3356C34.8731 31.3356 35.2761 30.9327 35.2761 30.4356H34.3761ZM34.3761 17.6353L34.8275 16.8567C34.549 16.6953 34.2056 16.6948 33.9268 16.8555C33.6479 17.0161 33.4761 17.3135 33.4761 17.6353H34.3761ZM39.6557 20.6962L39.2043 21.4748C39.4241 21.6022 39.6874 21.6308 39.9295 21.5535C40.1715 21.4763 40.3695 21.3003 40.4748 21.0691L39.6557 20.6962ZM43.1077 13.1135L43.9269 13.4864C44.0923 13.123 43.9986 12.6941 43.6966 12.4329L43.1077 13.1135ZM42.6872 12.7393L42.0855 13.4086L42.6872 12.7393ZM36.339 8.10523L35.9064 8.89443L36.339 8.10523ZM28.9915 5.99064C28.9686 8.19329 27.1757 9.97198 24.9675 9.97198V11.772C28.1636 11.772 30.7583 9.19774 30.7914 6.00936L28.9915 5.99064ZM24.9675 9.97198C22.7952 9.97198 21.0245 8.25044 20.9459 6.09774L19.1471 6.16341C19.2609 9.28046 21.8231 11.772 24.9675 11.772V9.97198ZM19.8646 5.24916C17.82 5.67118 15.6251 6.33533 13.8361 7.31603L14.7014 8.89443C16.2727 8.03304 18.2755 7.41511 20.2285 7.012L19.8646 5.24916ZM13.8361 7.31603C10.6812 9.04549 8.41577 11.0839 7.31887 12.0699L8.52222 13.4086C9.60397 12.4362 11.7402 10.5177 14.7014 8.89443L13.8361 7.31603ZM7.32262 12.0666L7.3226 12.0666L8.51845 13.4119L8.51847 13.4119L7.32262 12.0666ZM7.31885 12.07C7.15006 12.2217 7.01682 12.3414 6.9111 12.4329L8.0889 13.7941C8.21043 13.6889 8.35815 13.5561 8.5222 13.4086L7.31885 12.07ZM6.68089 13.4864L10.133 21.0691L11.7712 20.3233L8.31911 12.7406L6.68089 13.4864ZM11.4035 21.4748L16.6831 18.4139L15.7803 16.8567L10.5007 19.9176L11.4035 21.4748ZM15.3317 17.6353V30.4356H17.1317V17.6353H15.3317ZM16.2317 31.3356H24.9675V29.5356H16.2317V31.3356ZM24.9675 31.3356H25.6403V29.5356H24.9675V31.3356ZM25.6403 31.3356H34.3761V29.5356H25.6403V31.3356ZM35.2761 30.4356V17.6353H33.4761V30.4356H35.2761ZM33.9246 18.4139L39.2043 21.4748L40.1071 19.9176L34.8275 16.8567L33.9246 18.4139ZM40.4748 21.0691L43.9269 13.4864L42.2886 12.7406L38.8366 20.3233L40.4748 21.0691ZM43.6966 12.4329C43.5909 12.3414 43.4577 12.2217 43.2889 12.0699L42.0855 13.4086C42.2496 13.5561 42.3973 13.6889 42.5189 13.7941L43.6966 12.4329ZM43.2889 12.0699C42.192 11.0839 39.9265 9.0455 36.7716 7.31603L35.9064 8.89443C38.8676 10.5177 41.0038 12.4362 42.0855 13.4086L43.2889 12.0699ZM36.7716 7.31603C34.7838 6.22636 32.2915 5.52582 30.0541 5.11481L29.7289 6.88519C31.8739 7.27922 34.1559 7.93488 35.9064 8.89443L36.7716 7.31603Z" fill="#0AC290"/>
<path id="Rectangle 2137" d="M4.5 23.3965L7.73077 45.5H42.1923L46.5 23.3965" stroke="#0AC290" stroke-width="1.8" stroke-linecap="round" stroke-linejoin="round"/>
<path id="Vector 699" d="M39.3528 36.3873C36.096 35.9307 35.8936 38.1238 33.9959 38.7918C32.3523 39.3703 30.9831 39.3084 27.8781 37.2394C26.6156 36.3982 25.7115 35.9724 24.7871 36.0014" stroke="#0AC290" stroke-width="1.8" stroke-linecap="round"/>
<path id="Vector 700" d="M10.1758 36.3873C13.4326 35.9307 13.635 38.1238 15.5327 38.7918C17.1763 39.3703 18.5455 39.3084 21.6505 37.2394C22.913 36.3982 23.8171 35.9724 24.7415 36.0014H24.7852" stroke="#0AC290" stroke-width="1.8" stroke-linecap="round"/>
</g>
</g>
</svg>
