<svg width="171" height="24" viewBox="0 0 171 24" fill="none" xmlns="http://www.w3.org/2000/svg">
<path fill-rule="evenodd" clip-rule="evenodd" d="M22.2864 15.7683H18.9091V14.5636C17.5968 15.5747 15.9189 16.177 13.9613 16.177C9.63739 16.177 6.17395 12.563 6.17395 8.0885C6.17395 3.59249 9.63739 0 13.9613 0C15.9189 0 17.5968 0.580823 18.9091 1.6134V0.40872H22.2864V15.7683ZM18.9091 10.842V5.27043C17.7689 3.63552 16.1555 3.03318 14.4561 3.03318C11.638 3.03318 9.57285 5.29194 9.57285 8.04547C9.57285 10.799 11.638 13.0578 14.4561 13.0578C16.1555 13.0578 17.7689 12.4769 18.9091 10.842ZM22.2864 19.8555V23.2114H0V0.344177H3.63553V19.8555H22.2864ZM37.1727 23.6201C43.1961 23.6201 47.1973 19.5974 47.1973 13.1653V0.344177H43.6048V13.1653C43.6048 17.3601 41.0019 20.2643 37.1727 20.2643C33.3436 20.2643 30.7837 17.3817 30.7837 13.1653V0.344177H27.1481V13.1653C27.1481 19.5759 31.1924 23.6201 37.1727 23.6201ZM71.1832 0.344177V23.2329H68.2791L55.3934 7.07742V23.2329H51.7579V0.344177H54.5544L67.5692 16.8223V0.344177H71.1832ZM84.4346 23.2114C91.469 23.2114 96.5888 18.3282 96.5888 11.638C96.5888 5.11984 91.469 0.344177 84.4346 0.344177H76.174V23.2114H84.4346ZM84.4346 3.65703C89.2532 3.65703 92.9103 7.09894 92.9103 11.638C92.9103 16.3491 89.2532 19.8555 84.4346 19.834H79.8095V3.65703H84.4346ZM109.431 15.4886H103.881V23.2329H100.246V0.344177H109.711C114.831 0.344177 118.531 3.31283 118.531 7.91639C118.531 11.3153 116.509 13.8322 113.411 14.9078L119.8 23.2114H115.369L109.431 15.4886ZM103.881 12.1543H109.582C112.637 12.1543 114.96 10.5409 114.96 7.91639C114.96 5.29193 112.637 3.67853 109.582 3.67853H103.881V12.1543ZM132.492 15.7872L141.742 0.707275H137.741L130.642 12.2807L123.586 0.707275H119.585L128.835 15.7872V23.596H132.492V15.7872ZM152.111 11.2722C154.585 9.2501 156.026 7.59367 156.069 5.03375C156.091 3.74303 155.639 2.58139 154.736 1.67789C153.682 0.602288 152.133 0.0429688 150.369 0.0429688C147.013 0.0644807 144.646 2.32324 144.646 5.50702C144.646 5.85121 144.69 6.45354 144.754 6.94832H147.895C147.852 6.62564 147.83 6.19539 147.83 5.63608C147.873 3.91512 148.82 2.86105 150.347 2.86105C151.724 2.86105 152.67 3.80757 152.67 5.14131C152.67 6.88378 151.444 7.95938 148.884 10.0891L144.539 13.6385V15.8328H156.112V13.0362H149.938L152.111 11.2722ZM163.556 0.344177H168.396V9.78794H170.999V12.5415H168.396V15.7898H165.363V12.5415H157.253V10.5839L163.556 0.344177ZM161.125 9.78794H165.384V2.83956L161.125 9.78794Z" fill="black"/>
</svg>
