<svg width="52" height="36" viewBox="0 0 52 36" fill="none" xmlns="http://www.w3.org/2000/svg">
<rect width="52" height="36" rx="4" fill="#089B73"/>
<path d="M22.8508 14.9724V11.3923H24.0773V19.3149H22.8508V16H19.768V14.9724H22.8508ZM19.7348 12.2873C19.7238 15.768 17.2376 18.2652 13.2376 19.4033L12.7182 18.442C16.0331 17.5028 18.1547 15.663 18.4254 13.3039H13.4365V12.2873H19.7348ZM24.0773 25.0718H15.0608V19.9006H24.0773V25.0718ZM22.8619 20.884H16.2541V24.0773H22.8619V20.884ZM36.8935 15.0166V11.3923H38.0537V19.779H36.8935V16.0442H35.0371V19.7017H33.888V11.6464H35.0371V15.0166H36.8935ZM33.2471 17.9669L32.5952 18.9171C31.2692 18.3812 30.3189 17.3591 29.8217 16.1326C29.3134 17.4751 28.3134 18.663 26.9487 19.2707L26.2747 18.3094C28.109 17.5028 29.225 15.6796 29.225 14.0994V12.232H30.4073V14.0994C30.4073 15.6796 31.4681 17.2707 33.2471 17.9669ZM36.8493 21.558H28.6946V20.5525H38.0537V25.2707H36.8493V21.558Z" fill="white"/>
</svg>
