<svg width="24" height="24" viewBox="0 0 24 24" fill="none" xmlns="http://www.w3.org/2000/svg">
<path fill-rule="evenodd" clip-rule="evenodd" d="M13.5917 6.31467C15.597 8.32833 15.5903 11.5864 13.5766 13.5917C11.5629 15.597 8.30491 15.5903 6.29959 13.5766C4.29426 11.5629 4.30101 8.30491 6.31467 6.29959C8.32833 4.29426 11.5864 4.30102 13.5917 6.31467ZM15.0092 14.6999C17.5641 11.9821 17.5189 7.7073 14.8671 5.04452C12.1603 2.32646 7.76258 2.31735 5.04452 5.02416C2.32646 7.73097 2.31735 12.1287 5.02416 14.8468C7.35075 17.183 10.9266 17.5179 13.6113 15.847L18.5306 20.7867C18.8813 21.1389 19.4511 21.1401 19.8033 20.7894C20.1555 20.4386 20.1567 19.8688 19.806 19.5166L15.0092 14.6999Z" fill="#0AC290"/>
</svg>
