<svg viewBox="0 0 60 60" fill="none" xmlns="http://www.w3.org/2000/svg">
<g opacity="0.8">
<rect width="60" height="60" rx="30" transform="matrix(1 -8.74228e-08 -8.74228e-08 -1 0 60)" fill="#F7F7F7"/>
<path fill-rule="evenodd" clip-rule="evenodd" d="M35.9996 29.505C36.0084 29.8414 35.8755 30.1661 35.6334 30.3998L26.0359 39.6634C25.5591 40.1237 24.7994 40.1102 24.3392 39.6334C23.8789 39.1565 23.8923 38.3968 24.3692 37.9366L33.0238 29.583L24.4156 22.1051C23.9153 21.6705 23.862 20.9126 24.2966 20.4123C24.7313 19.9119 25.4892 19.8587 25.9895 20.2933L35.587 28.6305C35.841 28.8512 35.9908 29.1685 35.9996 29.505Z" fill="#C2C5CD"/>
<circle opacity="0.8" cx="30" cy="30" r="29.4" stroke="#C2C5CD" stroke-width="1.2"/>
</g>
</svg>
