<svg id="logo" xmlns="http://www.w3.org/2000/svg" width="212.146" height="60" viewBox="0 0 212.146 60">
  <path id="패스_1" data-name="패스 1" d="M.476,8.336h9.691V37.9h19.8v7.2H6.726a6.25,6.25,0,0,1-6.25-6.245V8.336Z" transform="translate(-0.476 -8.336)" fill="#0056a2"/>
  <path id="패스_2" data-name="패스 2" d="M54.419,8.336V22.671H39.211V8.336H29.524V45.1h9.687V27.6a6.234,6.234,0,0,0,4.825,2.272H54.418V45.1H64.11V8.336Z" transform="translate(5.168 -8.336)" fill="#0056a2"/>
  <path id="패스_3" data-name="패스 3" d="M69.685,17.114V14.987H68.115a.887.887,0,0,1-.179-.025.473.473,0,0,1-.2-.094v2.247h-.8V12.345h.8v1.99h1.95v-1.99h.788v4.769Z" transform="translate(12.439 -7.557)" fill="#8fc31f"/>
  <path id="패스_4" data-name="패스 4" d="M70.323,14.746a3.156,3.156,0,0,1,.147-.976,2.467,2.467,0,0,1,.417-.794,2.027,2.027,0,0,1,.656-.529,1.859,1.859,0,0,1,.847-.192,1.768,1.768,0,0,1,.889.217,2.11,2.11,0,0,1,.649.567,2.557,2.557,0,0,1,.392.8,3.219,3.219,0,0,1,.131.91,3.153,3.153,0,0,1-.15.991,2.393,2.393,0,0,1-.42.791,2,2,0,0,1-.651.518,1.847,1.847,0,0,1-.84.191,1.767,1.767,0,0,1-.874-.216,2.091,2.091,0,0,1-.65-.568,2.543,2.543,0,0,1-.4-.8,3.063,3.063,0,0,1-.137-.91m.788,0a2.855,2.855,0,0,0,.075.65,2.182,2.182,0,0,0,.234.586,1.291,1.291,0,0,0,.4.424,1.012,1.012,0,0,0,.57.16.97.97,0,0,0,.576-.17,1.365,1.365,0,0,0,.4-.44,2.192,2.192,0,0,0,.215-.584,2.789,2.789,0,0,0,.074-.627,2.941,2.941,0,0,0-.075-.646,2.024,2.024,0,0,0-.229-.59,1.329,1.329,0,0,0-.391-.426,1.064,1.064,0,0,0-1.149.01,1.35,1.35,0,0,0-.388.436,2.193,2.193,0,0,0-.231.6,2.694,2.694,0,0,0-.075.621" transform="translate(13.096 -7.574)" fill="#8fc31f"/>
  <path id="패스_5" data-name="패스 5" d="M76.988,12.345h.766v2.93A2.086,2.086,0,0,1,77.3,16.7a1.938,1.938,0,0,1-2.633.01,2.04,2.04,0,0,1-.466-1.4V12.345h.772v2.93a2.454,2.454,0,0,0,.056.5,1.148,1.148,0,0,0,.167.4.827.827,0,0,0,.306.278.963.963,0,0,0,.471.1,1.086,1.086,0,0,0,.472-.093.835.835,0,0,0,.314-.27,1.244,1.244,0,0,0,.17-.408,2.95,2.95,0,0,0,.067-.515v-2.93Z" transform="translate(13.849 -7.557)" fill="#8fc31f"/>
  <path id="패스_6" data-name="패스 6" d="M79.4,16.585a1.07,1.07,0,0,0,.617-.226.73.73,0,0,0,.257-.6.544.544,0,0,0-.264-.474,2.367,2.367,0,0,0-.84-.293,3.121,3.121,0,0,1-.541-.149,1.91,1.91,0,0,1-.49-.27,1.292,1.292,0,0,1-.35-.4,1.077,1.077,0,0,1-.133-.546,1.243,1.243,0,0,1,.155-.643,1.339,1.339,0,0,1,.4-.424,1.605,1.605,0,0,1,.529-.234,2.36,2.36,0,0,1,.574-.073,1.808,1.808,0,0,1,.574.091,1.672,1.672,0,0,1,.5.266,1.593,1.593,0,0,1,.38.455,2,2,0,0,1,.213.619l-.84-.007a.87.87,0,0,0-.1-.307,1.078,1.078,0,0,0-.186-.245.968.968,0,0,0-.256-.16.737.737,0,0,0-.285-.06,1.281,1.281,0,0,0-.308.038.78.78,0,0,0-.268.119.654.654,0,0,0-.188.2.564.564,0,0,0-.072.291.524.524,0,0,0,.088.3.966.966,0,0,0,.222.235,1.173,1.173,0,0,0,.294.185,1.364,1.364,0,0,0,.294.1c.205.047.414.1.621.166a2.491,2.491,0,0,1,.559.248,1.2,1.2,0,0,1,.392.388,1.081,1.081,0,0,1,.149.583,1.309,1.309,0,0,1-.167.682,1.466,1.466,0,0,1-.42.455,1.835,1.835,0,0,1-.567.257,2.312,2.312,0,0,1-.584.081,1.737,1.737,0,0,1-.626-.11,1.626,1.626,0,0,1-.524-.322,1.752,1.752,0,0,1-.392-.5,2.285,2.285,0,0,1-.231-.668l.847.006a1.5,1.5,0,0,0,.318.671.8.8,0,0,0,.649.27" transform="translate(14.507 -7.574)" fill="#8fc31f"/>
  <rect id="사각형_1" data-name="사각형 1" width="0.8" height="4.769" transform="translate(96.304 4.788)" fill="#8fc31f"/>
  <path id="패스_7" data-name="패스 7" d="M85.475,17.114l-2.153-3.444v3.444h-.73V12.345h.686l2.14,3.477V12.345h.731v4.769Z" transform="translate(15.48 -7.557)" fill="#8fc31f"/>
  <path id="패스_8" data-name="패스 8" d="M89.25,13.868a1.275,1.275,0,0,0-.171-.357,1.474,1.474,0,0,0-.262-.3A1.233,1.233,0,0,0,88.473,13a1.094,1.094,0,0,0-.408-.075.859.859,0,0,0-.553.179,1.37,1.37,0,0,0-.364.448,2.164,2.164,0,0,0-.2.588,2.969,2.969,0,0,0,0,1.219,2.205,2.205,0,0,0,.205.59,1.269,1.269,0,0,0,.367.443.874.874,0,0,0,.543.172.929.929,0,0,0,.439-.1,1.172,1.172,0,0,0,.343-.266,1.585,1.585,0,0,0,.247-.361,1.879,1.879,0,0,0,.143-.373v-.139h-.921v-.658h1.662v2.465h-.742l-.012-.451a.8.8,0,0,1-.219.26,1.2,1.2,0,0,1-.293.172,1.394,1.394,0,0,1-.331.1,1.841,1.841,0,0,1-.325.029,1.691,1.691,0,0,1-.88-.222,1.936,1.936,0,0,1-.616-.58,2.673,2.673,0,0,1-.354-.806,3.5,3.5,0,0,1-.118-.895,3.325,3.325,0,0,1,.131-.941A2.632,2.632,0,0,1,86.606,13a1.968,1.968,0,0,1,.62-.542,1.675,1.675,0,0,1,.831-.2,2.009,2.009,0,0,1,.584.085,1.916,1.916,0,0,1,.527.247,2.195,2.195,0,0,1,.423.386,1.963,1.963,0,0,1,.308.512Z" transform="translate(16.16 -7.574)" fill="#8fc31f"/>
  <path id="패스_9" data-name="패스 9" d="M96.067,12.345h.755l-1.1,4.769h-.69l-.767-3.4-.761,3.4h-.69l-1.1-4.769h.754l.708,3.425.743-3.425h.7l.748,3.425Z" transform="translate(17.252 -7.557)" fill="#8fc31f"/>
  <path id="패스_10" data-name="패스 10" d="M97.579,14.987a1.1,1.1,0,0,1-.2-.025.357.357,0,0,1-.207-.119v1.606h2.491v.665H96.974a.583.583,0,0,1-.44-.141A.672.672,0,0,1,96.4,16.5V12.954a.658.658,0,0,1,.135-.471.593.593,0,0,1,.44-.137h2.618V13H97.176v1.33h2.33v.652H97.579Z" transform="translate(18.163 -7.557)" fill="#8fc31f"/>
  <path id="패스_11" data-name="패스 11" d="M100.232,17.114a.586.586,0,0,1-.434-.141.654.654,0,0,1-.141-.474V12.345h.8v4.117h2.472v.652Z" transform="translate(18.797 -7.557)" fill="#8fc31f"/>
  <path id="패스_12" data-name="패스 12" d="M103.988,14.987a1.06,1.06,0,0,1-.2-.025.392.392,0,0,1-.214-.119v2.272h-.793v-4.16a.658.658,0,0,1,.135-.471.6.6,0,0,1,.445-.137h2.613V13h-2.4v1.33h2.315v.652h-1.9Z" transform="translate(19.404 -7.557)" fill="#8fc31f"/>
  <path id="패스_13" data-name="패스 13" d="M106.105,17.114l-.775-.013,1.6-4.756h.933l1.6,4.769h-.776l-.443-1.249h-1.692Zm1.289-3.978-.638,2.089h1.277Z" transform="translate(19.899 -7.557)" fill="#8fc31f"/>
  <path id="패스_14" data-name="패스 14" d="M110.939,12.345a2.181,2.181,0,0,1,.613.085,1.548,1.548,0,0,1,.526.26,1.311,1.311,0,0,1,.364.451,1.46,1.46,0,0,1,.137.659,1.4,1.4,0,0,1-.156.683,1.258,1.258,0,0,1-.419.465l.782,2.165h-.749l-.69-1.9c-.073.012-.145.023-.217.031a1.938,1.938,0,0,1-.226.012h-.547a.617.617,0,0,1-.185-.043.44.44,0,0,1-.189-.119v2.021h-.793v-4.16a.662.662,0,0,1,.131-.471.6.6,0,0,1,.449-.139h1.169ZM110.9,14.6a1.011,1.011,0,0,0,.666-.207.743.743,0,0,0,.244-.6.752.752,0,0,0-.236-.588A.977.977,0,0,0,110.9,13h-.916v1.6Z" transform="translate(20.649 -7.557)" fill="#8fc31f"/>
  <path id="패스_15" data-name="패스 15" d="M113.775,14.987a1.085,1.085,0,0,1-.2-.025.354.354,0,0,1-.207-.119v1.606h2.491v.665H113.17a.585.585,0,0,1-.44-.141.672.672,0,0,1-.135-.474V12.954a.658.658,0,0,1,.135-.471.6.6,0,0,1,.44-.137h2.619V13h-2.417v1.33H115.7v.652h-1.926Z" transform="translate(21.311 -7.557)" fill="#8fc31f"/>
  <rect id="사각형_2" data-name="사각형 2" width="0.8" height="4.769" transform="translate(140.324 4.788)" fill="#8fc31f"/>
  <path id="패스_16" data-name="패스 16" d="M122.333,17.114l-2.155-3.444v3.444h-.729V12.345h.684l2.141,3.477V12.345h.73v4.769Z" transform="translate(22.642 -7.557)" fill="#8fc31f"/>
  <path id="패스_17" data-name="패스 17" d="M124.281,14.987a1.072,1.072,0,0,1-.2-.025.381.381,0,0,1-.213-.119v2.272h-.8v-4.16a.658.658,0,0,1,.135-.471.609.609,0,0,1,.448-.137h2.612V13h-2.4v1.33h2.313v.652h-1.9Z" transform="translate(23.347 -7.557)" fill="#8fc31f"/>
  <path id="패스_18" data-name="패스 18" d="M125.883,14.746a3.156,3.156,0,0,1,.147-.976,2.467,2.467,0,0,1,.417-.794,2.027,2.027,0,0,1,.656-.529,1.859,1.859,0,0,1,.847-.192,1.784,1.784,0,0,1,.891.217,2.129,2.129,0,0,1,.646.567,2.557,2.557,0,0,1,.392.8,3.219,3.219,0,0,1,.131.91,3.153,3.153,0,0,1-.15.991,2.393,2.393,0,0,1-.42.791,2,2,0,0,1-.651.518,1.85,1.85,0,0,1-.84.191,1.767,1.767,0,0,1-.874-.216,2.091,2.091,0,0,1-.65-.568,2.6,2.6,0,0,1-.4-.8,3.063,3.063,0,0,1-.137-.91m.788,0a2.793,2.793,0,0,0,.078.65,2.1,2.1,0,0,0,.232.586,1.291,1.291,0,0,0,.4.424,1.012,1.012,0,0,0,.57.16.97.97,0,0,0,.576-.17,1.365,1.365,0,0,0,.4-.44,2.281,2.281,0,0,0,.217-.584,2.818,2.818,0,0,0,0-1.273,2.063,2.063,0,0,0-.233-.59,1.313,1.313,0,0,0-.389-.426,1.064,1.064,0,0,0-1.149.01,1.35,1.35,0,0,0-.388.436,2.115,2.115,0,0,0-.228.6,2.7,2.7,0,0,0-.076.621" transform="translate(23.892 -7.574)" fill="#8fc31f"/>
  <path id="패스_19" data-name="패스 19" d="M131.507,12.345a2.181,2.181,0,0,1,.613.085,1.548,1.548,0,0,1,.525.26,1.311,1.311,0,0,1,.364.451,1.475,1.475,0,0,1,.137.659,1.4,1.4,0,0,1-.156.683,1.258,1.258,0,0,1-.419.465l.782,2.165H132.6l-.69-1.9c-.073.012-.145.023-.217.031a1.938,1.938,0,0,1-.226.012h-.547a.631.631,0,0,1-.186-.043.442.442,0,0,1-.187-.119v2.021h-.793v-4.16a.662.662,0,0,1,.131-.471.6.6,0,0,1,.449-.139h1.169Zm-.041,2.258a1,1,0,0,0,.665-.207.74.74,0,0,0,.245-.6.752.752,0,0,0-.236-.588.98.98,0,0,0-.672-.209h-.916v1.6Z" transform="translate(24.645 -7.557)" fill="#8fc31f"/>
  <path id="패스_20" data-name="패스 20" d="M136.543,17.114V13.85l-1.07,2.285h-.518l-1.075-2.285v3.264h-.714V12.345h.684l1.358,2.912,1.369-2.912h.68v4.769Z" transform="translate(25.307 -7.557)" fill="#8fc31f"/>
  <path id="패스_21" data-name="패스 21" d="M137.772,17.114,137,17.1l1.6-4.756h.932l1.6,4.769h-.775l-.443-1.249h-1.692Zm1.289-3.978-.638,2.089H139.7Z" transform="translate(26.052 -7.557)" fill="#8fc31f"/>
  <path id="패스_22" data-name="패스 22" d="M141.683,17.114V12.991h-1.41v-.646h3.608v.646h-1.409v4.123Z" transform="translate(26.689 -7.557)" fill="#8fc31f"/>
  <rect id="사각형_3" data-name="사각형 3" width="0.8" height="4.769" transform="translate(170.955 4.788)" fill="#8fc31f"/>
  <path id="패스_23" data-name="패스 23" d="M144.871,14.746a3.156,3.156,0,0,1,.147-.976,2.488,2.488,0,0,1,.416-.794,2.023,2.023,0,0,1,.658-.529,1.849,1.849,0,0,1,.844-.192,1.771,1.771,0,0,1,.891.217,2.088,2.088,0,0,1,.646.567,2.532,2.532,0,0,1,.392.8,3.267,3.267,0,0,1-.018,1.9,2.373,2.373,0,0,1-.422.791,2,2,0,0,1-.649.518,1.86,1.86,0,0,1-.842.191,1.766,1.766,0,0,1-.873-.216,2.078,2.078,0,0,1-.65-.568,2.544,2.544,0,0,1-.4-.8,3.063,3.063,0,0,1-.137-.91m.788,0a2.791,2.791,0,0,0,.076.65,2.1,2.1,0,0,0,.233.586,1.291,1.291,0,0,0,.4.424,1.013,1.013,0,0,0,.568.16.971.971,0,0,0,.577-.17,1.379,1.379,0,0,0,.4-.44,2.279,2.279,0,0,0,.216-.584,2.93,2.93,0,0,0,.073-.627,2.871,2.871,0,0,0-.075-.646,2.1,2.1,0,0,0-.23-.59,1.316,1.316,0,0,0-.391-.426,1.064,1.064,0,0,0-1.149.01,1.364,1.364,0,0,0-.388.436,2.116,2.116,0,0,0-.229.6,2.63,2.63,0,0,0-.075.621" transform="translate(27.582 -7.574)" fill="#8fc31f"/>
  <path id="패스_24" data-name="패스 24" d="M151.628,17.114l-2.155-3.444v3.444h-.729V12.345h.684l2.141,3.477V12.345h.73v4.769Z" transform="translate(28.335 -7.557)" fill="#8fc31f"/>
  <path id="패스_25" data-name="패스 25" d="M65.71,33.3h19.4V35.62h-8.17v6.762H73.882V35.62H65.71ZM67.868,24.5V22.162h15.09V24.5H76.968a5.374,5.374,0,0,0,.543,1.714,4.737,4.737,0,0,0,1.248,1.463,8.211,8.211,0,0,0,2.1,1.215,21.926,21.926,0,0,0,3.121.987L82.913,31.9a14.743,14.743,0,0,1-4.9-1.508,7.336,7.336,0,0,1-2.61-2.213A6.916,6.916,0,0,1,74.3,29.3a9.2,9.2,0,0,1-1.647,1.077,12.929,12.929,0,0,1-2.144.92,14.9,14.9,0,0,1-2.6.6l-1.089-2.042a18.3,18.3,0,0,0,3.086-.987,9.742,9.742,0,0,0,2.112-1.215A4.84,4.84,0,0,0,73.268,26.2a4.782,4.782,0,0,0,.546-1.7Z" transform="translate(12.2 -5.649)" fill="#727171"/>
  <path id="패스_26" data-name="패스 26" d="M91.48,22.59a2.4,2.4,0,0,1,1.667.477,2.1,2.1,0,0,1,.511,1.59,13.09,13.09,0,0,1-.4,2.859,12.529,12.529,0,0,1-1.442,3.472,15.226,15.226,0,0,1-2.95,3.4,14.017,14.017,0,0,1-4.812,2.632l-1.475-1.77a11.893,11.893,0,0,0,2.825-1.486A12.481,12.481,0,0,0,87.9,31.441a11.72,11.72,0,0,0,1.781-2.983,10.213,10.213,0,0,0,.76-3.575H83.72V22.59H91.48Zm5.7,5.425V21.82h3.063V42.447H97.176V30.352H93.681V28.015Z" transform="translate(15.479 -5.716)" fill="#727171"/>
  <path id="패스_27" data-name="패스 27" d="M110.364,31.908h8.193V34.2h-19.4V31.908H107.3V30.5h-3.2a2.365,2.365,0,0,1-1.667-.487,2.139,2.139,0,0,1-.511-1.6V21.99h3.062v2.225h7.739V21.99h3.062V30.5H110.36v1.407Zm3.45,3.767a2.5,2.5,0,0,1,1.7.488,2.078,2.078,0,0,1,.546,1.622v4.835H113V37.966H101.469V35.673h12.346Zm-1.089-7.352V26.393h-6.833a.857.857,0,0,1-.521-.227,1.979,1.979,0,0,1-.387-.477v2.632Z" transform="translate(18.699 -5.683)" fill="#727171"/>
  <path id="패스_28" data-name="패스 28" d="M121.4,24.882h-4.015V22.591h11.141v2.292h-3.994v2.134A9.147,9.147,0,0,0,125,30.08a7.879,7.879,0,0,0,1.235,2.292,8.527,8.527,0,0,0,1.7,1.645,12.459,12.459,0,0,0,1.817,1.1l-1.43,1.747a9.936,9.936,0,0,1-2.088-1.056,10.311,10.311,0,0,1-1.519-1.236,7.07,7.07,0,0,1-1.068-1.282,10.772,10.772,0,0,1-.68-1.237,9.738,9.738,0,0,1-.7,1.248,7.622,7.622,0,0,1-1.089,1.293,8.845,8.845,0,0,1-1.51,1.236,10.252,10.252,0,0,1-2.076,1.033l-1.43-1.747a11.019,11.019,0,0,0,1.851-1.1,8.192,8.192,0,0,0,1.667-1.645,8.078,8.078,0,0,0,1.248-2.292,8.96,8.96,0,0,0,.477-3.063V24.882Zm10.191-3.063h3.062V42.447h-3.062Z" transform="translate(22.003 -5.716)" fill="#727171"/>
  <path id="패스_29" data-name="패스 29" d="M134.433,24.565V22.25h11.12v2.315H141.56a6.618,6.618,0,0,0,1.305,3.938,8.937,8.937,0,0,0,3.46,2.485l-1.5,1.815A9.143,9.143,0,0,1,143.113,32,8.011,8.011,0,0,1,141.7,30.92a6.113,6.113,0,0,1-1.033-1.169,5.967,5.967,0,0,1-.646-1.215,6.8,6.8,0,0,1-.727,1.293,8.146,8.146,0,0,1-1.133,1.293,8.37,8.37,0,0,1-1.566,1.1,8.194,8.194,0,0,1-1.975.761l-1.43-1.77A9.778,9.778,0,0,0,137,28.639a6.7,6.7,0,0,0,1.431-4.074h-3.995Zm11.008,9.146a8.014,8.014,0,0,1,2.076.295,7.661,7.661,0,0,1,2.053.885,5.12,5.12,0,0,1,1.544,1.44,3.732,3.732,0,0,1,.023,4.063,5.376,5.376,0,0,1-1.5,1.508,8.585,8.585,0,0,1-2.042.9,7.6,7.6,0,0,1-6.331-.942,5.606,5.606,0,0,1-1.51-1.486,3.382,3.382,0,0,1-.6-1.963,3.418,3.418,0,0,1,.6-1.986,5.6,5.6,0,0,1,1.51-1.486,8.638,8.638,0,0,1,2.029-.9,7.5,7.5,0,0,1,2.146-.328m0,2.247a3.763,3.763,0,0,0-1.192.192,3.312,3.312,0,0,0-1.01.534,3.246,3.246,0,0,0-.737.817,1.706,1.706,0,0,0-.283.908,1.737,1.737,0,0,0,.283.93,2.619,2.619,0,0,0,.737.772,2.824,2.824,0,0,0,1.01.579,3.762,3.762,0,0,0,1.192.191,3.94,3.94,0,0,0,1.224-.191,3.107,3.107,0,0,0,1.045-.579,2.625,2.625,0,0,0,.7-.772,1.786,1.786,0,0,0,.272-.93,1.82,1.82,0,0,0-.26-.941,2.7,2.7,0,0,0-.714-.783,3.625,3.625,0,0,0-1.045-.534,3.946,3.946,0,0,0-1.224-.192m3.221-10.213V21.819h3.018V33.1h-3.018V28.083h-4.016V25.745Z" transform="translate(25.311 -5.716)" fill="#727171"/>
  <path id="패스_30" data-name="패스 30" d="M161.688,37.968h8.193v2.293H150.476V37.968h8.148V33.747h-3.561a2.325,2.325,0,0,1-1.668-.5,2.142,2.142,0,0,1-.51-1.588V22.333h3.062V25.8h8.465V22.333h3.062V33.747h-5.786v4.221Zm-5.742-10.325v3.79h8.465V28.1h-7.694a.855.855,0,0,1-.772-.454" transform="translate(28.671 -5.616)" fill="#727171"/>
  <path id="패스_31" data-name="패스 31" d="M168.225,13.9a27.467,27.467,0,0,0-6.479-1.385V16.76a23.331,23.331,0,1,1-23.96,32.346H133.27A27.556,27.556,0,1,0,168.225,13.9" transform="translate(25.328 -7.524)" fill="#8fc31f"/>
</svg>
