<svg xmlns="http://www.w3.org/2000/svg" width="89.052" height="94" viewBox="0 0 89.052 94">
  <path id="패스_1971" data-name="패스 1971" d="M92.05,3v9.895c0,47.63-26.58,69.263-59.368,69.263H14.094A84.794,84.794,0,0,0,12.893,97H3A92.577,92.577,0,0,1,4.709,78.537Q3,68.934,3,52.474A49.474,49.474,0,0,1,52.471,3C62.366,3,72.261,7.947,92.05,3ZM52.471,12.895A39.579,39.579,0,0,0,12.893,52.474q0,2.689.047,5.174c6.206-9.783,15.294-17.519,27.182-24.312l4.909,8.591C30.907,50,21.538,59.17,16.728,72.262H32.682c29.759,0,48.836-19.656,49.458-57.451a81.911,81.911,0,0,1-20.875-.928C55.57,13.03,54.454,12.895,52.471,12.895Z" transform="translate(-2.998 -3)" fill="#fff" opacity="0.41"/>
</svg>
