<svg xmlns="http://www.w3.org/2000/svg" width="57.418" height="84" viewBox="0 0 57.418 84">
  <path id="패스_6150" data-name="패스 6150" d="M36.023-.48A36.773,36.773,0,0,1,21.137-3.375a24.43,24.43,0,0,1-10.4-8.211A20.852,20.852,0,0,1,6.96-23.991H21.374a13.012,13.012,0,0,0,4.194,8.743q3.722,3.426,10.456,3.426,6.97,0,10.869-3.367a10.946,10.946,0,0,0,3.9-8.684,9.483,9.483,0,0,0-2.422-6.734,16.2,16.2,0,0,0-6.025-4.017A90.863,90.863,0,0,0,32.361-37.7a93.535,93.535,0,0,1-13.055-4.312A21.573,21.573,0,0,1,10.741-48.8Q7.2-53.408,7.2-61.088a21.839,21.839,0,0,1,3.544-12.405,22.64,22.64,0,0,1,9.924-8.152A36.059,36.059,0,0,1,35.433-84.48q11.932,0,19.553,5.966t8.447,16.363H48.547a10.785,10.785,0,0,0-4.253-7.679q-3.9-3.19-10.278-3.19a14.583,14.583,0,0,0-9.451,2.954Q20.9-67.113,20.9-61.56a8.634,8.634,0,0,0,2.3,6.2,16.268,16.268,0,0,0,5.848,3.84,90.787,90.787,0,0,0,9.688,3.072,101.136,101.136,0,0,1,13.291,4.489,22.124,22.124,0,0,1,8.743,6.911q3.6,4.667,3.6,12.464a22.411,22.411,0,0,1-3.367,11.814A24.29,24.29,0,0,1,51.2-3.847,32.334,32.334,0,0,1,36.023-.48Z" transform="translate(-6.96 84.48)" fill="#fff" opacity="0.4"/>
</svg>
