<svg xmlns="http://www.w3.org/2000/svg" width="82.699" height="84" viewBox="0 0 82.699 84">
  <path id="패스_6152" data-name="패스 6152" d="M68.446-59.753a21.737,21.737,0,0,0-8.873-9.287A26.728,26.728,0,0,0,46.44-72.176a28.7,28.7,0,0,0-14.552,3.668,25.7,25.7,0,0,0-10,10.411A32.6,32.6,0,0,0,18.282-42.48,32.953,32.953,0,0,0,21.891-26.8a25.611,25.611,0,0,0,10,10.47A28.7,28.7,0,0,0,46.44-12.666q11,0,17.865-6.152T72.7-35.5H41.826V-46.266H87.139v10.53a40.477,40.477,0,0,1-6.8,17.628A40.469,40.469,0,0,1,66.02-5.272,40.322,40.322,0,0,1,46.44-.48,42.5,42.5,0,0,1,25.263-5.863a40.135,40.135,0,0,1-15.2-14.966A42,42,0,0,1,4.44-42.48a42,42,0,0,1,5.62-21.651A40.013,40.013,0,0,1,25.322-79.1,42.594,42.594,0,0,1,46.44-84.48a42.9,42.9,0,0,1,23.366,6.448A36.715,36.715,0,0,1,84.654-59.753Z" transform="translate(-4.44 84.48)" fill="#fff" opacity="0.4"/>
</svg>
