<svg id="그룹_2904" data-name="그룹 2904" xmlns="http://www.w3.org/2000/svg" xmlns:xlink="http://www.w3.org/1999/xlink" width="176.793" height="50" viewBox="0 0 176.793 50">
  <defs>
    <clipPath id="clip-path">
      <rect id="사각형_4" data-name="사각형 4" width="176.793" height="50" fill="none"/>
    </clipPath>
  </defs>
  <g id="그룹_1" data-name="그룹 1" transform="translate(0 0)" clip-path="url(#clip-path)">
    <path id="패스_1" data-name="패스 1" d="M0,0H8.076V24.639h16.5v6H5.208A5.209,5.209,0,0,1,0,25.432Z" transform="translate(0 0)" fill="#004593"/>
    <path id="패스_2" data-name="패스 2" d="M49.795,0V11.946H37.122V0H29.048V30.637h8.074V16.052a5.194,5.194,0,0,0,4.021,1.893h8.652V30.637H57.87V0Z" transform="translate(-0.137 0)" fill="#004593"/>
    <path id="패스_3" data-name="패스 3" d="M68.751,7.982V6.21H67.443a.747.747,0,0,1-.15-.021.394.394,0,0,1-.167-.079V7.982h-.663V4.008h.663V5.666h1.625V4.008h.657V7.982Z" transform="translate(-0.314 -0.019)" fill="#8cb808"/>
    <path id="패스_4" data-name="패스 4" d="M69.847,6a2.63,2.63,0,0,1,.122-.813,2.073,2.073,0,0,1,.346-.662,1.7,1.7,0,0,1,.546-.441,1.552,1.552,0,0,1,.706-.16,1.471,1.471,0,0,1,.74.181,1.758,1.758,0,0,1,.54.473,2.154,2.154,0,0,1,.327.664A2.682,2.682,0,0,1,73.286,6a2.627,2.627,0,0,1-.125.826,2,2,0,0,1-.35.659,1.663,1.663,0,0,1-.542.432,1.539,1.539,0,0,1-.7.159,1.475,1.475,0,0,1-.729-.18,1.731,1.731,0,0,1-.541-.474,2.1,2.1,0,0,1-.336-.664A2.552,2.552,0,0,1,69.847,6M70.5,6a2.325,2.325,0,0,0,.063.541,1.82,1.82,0,0,0,.2.489,1.076,1.076,0,0,0,.331.353.84.84,0,0,0,.474.133.813.813,0,0,0,.481-.141A1.149,1.149,0,0,0,72.379,7a1.826,1.826,0,0,0,.178-.487A2.323,2.323,0,0,0,72.619,6a2.454,2.454,0,0,0-.064-.538,1.687,1.687,0,0,0-.191-.492,1.108,1.108,0,0,0-.325-.355.887.887,0,0,0-.957.008,1.125,1.125,0,0,0-.323.363,1.829,1.829,0,0,0-.193.5A2.353,2.353,0,0,0,70.5,6" transform="translate(-0.33 -0.019)" fill="#8cb808"/>
    <path id="패스_5" data-name="패스 5" d="M76.047,4.009h.638V6.45A1.738,1.738,0,0,1,76.3,7.638a1.615,1.615,0,0,1-2.195.008,1.7,1.7,0,0,1-.388-1.168V4.009h.643V6.45a2.046,2.046,0,0,0,.047.419,1,1,0,0,0,.139.334.689.689,0,0,0,.255.232.8.8,0,0,0,.391.087.9.9,0,0,0,.393-.078.7.7,0,0,0,.262-.225,1.015,1.015,0,0,0,.14-.34,2.366,2.366,0,0,0,.056-.429Z" transform="translate(-0.348 -0.019)" fill="#8cb808"/>
    <path id="패스_6" data-name="패스 6" d="M78.619,7.527a.891.891,0,0,0,.515-.188.612.612,0,0,0,.214-.5.455.455,0,0,0-.22-.4,1.981,1.981,0,0,0-.7-.244,2.611,2.611,0,0,1-.452-.124,1.592,1.592,0,0,1-.408-.225,1.09,1.09,0,0,1-.292-.33.9.9,0,0,1-.11-.455,1.036,1.036,0,0,1,.129-.535,1.116,1.116,0,0,1,.331-.353,1.338,1.338,0,0,1,.441-.2,1.968,1.968,0,0,1,.48-.061,1.507,1.507,0,0,1,.479.076,1.382,1.382,0,0,1,.418.222,1.331,1.331,0,0,1,.318.379,1.691,1.691,0,0,1,.176.516l-.7-.006a.725.725,0,0,0-.085-.256.9.9,0,0,0-.155-.2.806.806,0,0,0-.213-.133.614.614,0,0,0-.238-.05,1.067,1.067,0,0,0-.257.032.65.65,0,0,0-.223.1.545.545,0,0,0-.156.17.47.47,0,0,0-.06.243.437.437,0,0,0,.075.248.8.8,0,0,0,.184.2,1,1,0,0,0,.245.154,1.125,1.125,0,0,0,.246.082c.17.039.344.085.517.138a2.076,2.076,0,0,1,.466.207,1.014,1.014,0,0,1,.326.323.9.9,0,0,1,.124.486,1.091,1.091,0,0,1-.139.568,1.219,1.219,0,0,1-.349.379A1.529,1.529,0,0,1,79.073,8a1.926,1.926,0,0,1-.487.068,1.453,1.453,0,0,1-.523-.092,1.365,1.365,0,0,1-.437-.269,1.46,1.46,0,0,1-.326-.416,1.876,1.876,0,0,1-.192-.556l.706,0a1.24,1.24,0,0,0,.264.559.673.673,0,0,0,.541.225" transform="translate(-0.364 -0.019)" fill="#8cb808"/>
    <rect id="사각형_1" data-name="사각형 1" width="0.667" height="3.974" transform="translate(80.255 3.989)" fill="#8cb808"/>
    <path id="패스_7" data-name="패스 7" d="M84.519,7.983l-1.8-2.87v2.87h-.607V4.008h.57l1.785,2.9v-2.9h.609V7.983Z" transform="translate(-0.387 -0.019)" fill="#8cb808"/>
    <path id="패스_8" data-name="패스 8" d="M88.248,5.264a1.062,1.062,0,0,0-.142-.3,1.194,1.194,0,0,0-.217-.252,1.028,1.028,0,0,0-.288-.172.916.916,0,0,0-.34-.063.716.716,0,0,0-.461.149A1.142,1.142,0,0,0,86.5,5a1.8,1.8,0,0,0-.169.49,2.52,2.52,0,0,0,0,1.016A1.837,1.837,0,0,0,86.5,7a1.057,1.057,0,0,0,.306.369.728.728,0,0,0,.453.143.774.774,0,0,0,.366-.087.977.977,0,0,0,.286-.222,1.321,1.321,0,0,0,.206-.3,1.566,1.566,0,0,0,.119-.311V6.477h-.766V5.928h1.384V7.983h-.618l-.01-.376a.661.661,0,0,1-.181.217,1,1,0,0,1-.244.143,1.156,1.156,0,0,1-.277.081,1.518,1.518,0,0,1-.271.024,1.409,1.409,0,0,1-.734-.185,1.613,1.613,0,0,1-.514-.484,2.227,2.227,0,0,1-.295-.672,2.917,2.917,0,0,1-.1-.745,2.771,2.771,0,0,1,.11-.784,2.17,2.17,0,0,1,.32-.659,1.651,1.651,0,0,1,.517-.452,1.393,1.393,0,0,1,.693-.17,1.674,1.674,0,0,1,.487.071,1.616,1.616,0,0,1,.44.206,1.823,1.823,0,0,1,.351.321,1.583,1.583,0,0,1,.257.427Z" transform="translate(-0.404 -0.019)" fill="#8cb808"/>
    <path id="패스_9" data-name="패스 9" d="M94.865,4.009h.629l-.917,3.974H94l-.639-2.835-.634,2.835h-.575l-.92-3.974h.628l.59,2.854.619-2.854h.585l.623,2.854Z" transform="translate(-0.43 -0.019)" fill="#8cb808"/>
    <path id="패스_10" data-name="패스 10" d="M96.906,6.21a.914.914,0,0,1-.163-.021.3.3,0,0,1-.172-.1V7.428h2.076v.554H96.4a.486.486,0,0,1-.366-.117.56.56,0,0,1-.112-.4V4.516a.548.548,0,0,1,.112-.392.494.494,0,0,1,.366-.114h2.183v.548H96.571V5.666h1.942V6.21Z" transform="translate(-0.453 -0.019)" fill="#8cb808"/>
    <path id="패스_11" data-name="패스 11" d="M99.661,7.982a.489.489,0,0,1-.361-.117.545.545,0,0,1-.117-.4V4.008h.663V7.439h2.06v.543Z" transform="translate(-0.468 -0.019)" fill="#8cb808"/>
    <path id="패스_12" data-name="패스 12" d="M103.31,6.21a.884.884,0,0,1-.163-.021.327.327,0,0,1-.178-.1V7.982h-.661V4.516a.548.548,0,0,1,.112-.392.508.508,0,0,1,.372-.114h2.177v.548h-2V5.666H104.9V6.21Z" transform="translate(-0.483 -0.019)" fill="#8cb808"/>
    <path id="패스_13" data-name="패스 13" d="M105.5,7.983l-.647-.011,1.332-3.963h.778L108.3,7.983h-.647l-.369-1.041h-1.41Zm1.074-3.315-.531,1.741h1.064Z" transform="translate(-0.495 -0.019)" fill="#8cb808"/>
    <path id="패스_14" data-name="패스 14" d="M110.17,4.009a1.818,1.818,0,0,1,.511.071,1.313,1.313,0,0,1,.439.217,1.1,1.1,0,0,1,.3.376,1.23,1.23,0,0,1,.113.549,1.17,1.17,0,0,1-.13.569,1.055,1.055,0,0,1-.348.387l.652,1.8h-.624L110.511,6.4c-.062.01-.121.019-.182.026a1.591,1.591,0,0,1-.188.01h-.456a.521.521,0,0,1-.154-.036.376.376,0,0,1-.158-.1V7.983h-.661V4.517a.551.551,0,0,1,.11-.392.5.5,0,0,1,.375-.115Zm-.033,1.882a.841.841,0,0,0,.554-.172.623.623,0,0,0,.2-.5.63.63,0,0,0-.2-.49.816.816,0,0,0-.56-.174h-.764V5.891Z" transform="translate(-0.513 -0.019)" fill="#8cb808"/>
    <path id="패스_15" data-name="패스 15" d="M113.1,6.21a.9.9,0,0,1-.163-.021.3.3,0,0,1-.172-.1V7.428h2.076v.554H112.6a.488.488,0,0,1-.366-.117.56.56,0,0,1-.112-.4V4.516a.548.548,0,0,1,.112-.392.5.5,0,0,1,.366-.114h2.183v.548h-2.014V5.666h1.941V6.21Z" transform="translate(-0.529 -0.019)" fill="#8cb808"/>
    <rect id="사각형_2" data-name="사각형 2" width="0.667" height="3.974" transform="translate(116.939 3.989)" fill="#8cb808"/>
    <path id="패스_16" data-name="패스 16" d="M121.376,7.983l-1.8-2.87v2.87h-.607V4.008h.57l1.785,2.9v-2.9h.608V7.983Z" transform="translate(-0.561 -0.019)" fill="#8cb808"/>
    <path id="패스_17" data-name="패스 17" d="M123.6,6.21a.894.894,0,0,1-.163-.021.317.317,0,0,1-.177-.1V7.982H122.6V4.516a.548.548,0,0,1,.112-.392.511.511,0,0,1,.373-.114h2.177v.548h-2V5.666h1.928V6.21Z" transform="translate(-0.578 -0.019)" fill="#8cb808"/>
    <path id="패스_18" data-name="패스 18" d="M125.407,6a2.63,2.63,0,0,1,.122-.813,2.056,2.056,0,0,1,.347-.662,1.7,1.7,0,0,1,.545-.441,1.552,1.552,0,0,1,.706-.16,1.488,1.488,0,0,1,.743.181,1.8,1.8,0,0,1,.538.473,2.175,2.175,0,0,1,.326.664,2.682,2.682,0,0,1,.109.758,2.627,2.627,0,0,1-.125.826,2,2,0,0,1-.35.659,1.67,1.67,0,0,1-.541.432,1.546,1.546,0,0,1-.7.159,1.475,1.475,0,0,1-.729-.18,1.743,1.743,0,0,1-.541-.474,2.162,2.162,0,0,1-.336-.664A2.552,2.552,0,0,1,125.407,6m.657,0a2.328,2.328,0,0,0,.066.541,1.722,1.722,0,0,0,.193.489,1.076,1.076,0,0,0,.331.353.842.842,0,0,0,.474.133.814.814,0,0,0,.481-.141,1.138,1.138,0,0,0,.33-.366,1.9,1.9,0,0,0,.181-.487,2.386,2.386,0,0,0,0-1.061,1.721,1.721,0,0,0-.2-.492,1.094,1.094,0,0,0-.324-.355.887.887,0,0,0-.957.008,1.125,1.125,0,0,0-.323.363,1.762,1.762,0,0,0-.19.5,2.248,2.248,0,0,0-.064.518" transform="translate(-0.592 -0.019)" fill="#8cb808"/>
    <path id="패스_19" data-name="패스 19" d="M130.739,4.009a1.818,1.818,0,0,1,.511.071,1.3,1.3,0,0,1,.438.217,1.092,1.092,0,0,1,.3.376,1.229,1.229,0,0,1,.114.549,1.171,1.171,0,0,1-.13.569,1.055,1.055,0,0,1-.348.387l.652,1.8h-.624L131.079,6.4c-.061.01-.12.019-.181.026a1.6,1.6,0,0,1-.188.01h-.456A.526.526,0,0,1,130.1,6.4a.366.366,0,0,1-.157-.1V7.983h-.661V4.517a.547.547,0,0,1,.11-.392.5.5,0,0,1,.374-.115Zm-.034,1.882a.838.838,0,0,0,.554-.172.62.62,0,0,0,.2-.5.627.627,0,0,0-.2-.49.815.815,0,0,0-.56-.174h-.763V5.891Z" transform="translate(-0.61 -0.019)" fill="#8cb808"/>
    <path id="패스_20" data-name="패스 20" d="M135.5,7.983V5.263l-.892,1.9h-.432l-.9-1.9V7.983h-.6V4.008h.57l1.132,2.427,1.141-2.427h.567V7.983Z" transform="translate(-0.626 -0.019)" fill="#8cb808"/>
    <path id="패스_21" data-name="패스 21" d="M137.167,7.983l-.647-.011,1.333-3.963h.777l1.333,3.974h-.647l-.369-1.041h-1.41Zm1.074-3.315-.531,1.741h1.063Z" transform="translate(-0.644 -0.019)" fill="#8cb808"/>
    <path id="패스_22" data-name="패스 22" d="M140.972,7.983V4.547H139.8V4.008H142.8v.538h-1.175V7.983Z" transform="translate(-0.66 -0.019)" fill="#8cb808"/>
    <rect id="사각형_3" data-name="사각형 3" width="0.667" height="3.974" transform="translate(142.466 3.989)" fill="#8cb808"/>
    <path id="패스_23" data-name="패스 23" d="M144.4,6a2.63,2.63,0,0,1,.122-.813,2.074,2.074,0,0,1,.346-.662,1.682,1.682,0,0,1,.547-.441,1.544,1.544,0,0,1,.7-.16,1.471,1.471,0,0,1,.742.181,1.74,1.74,0,0,1,.538.473,2.133,2.133,0,0,1,.327.664,2.722,2.722,0,0,1-.015,1.584,1.978,1.978,0,0,1-.351.659,1.666,1.666,0,0,1-.54.432,1.547,1.547,0,0,1-.7.159,1.474,1.474,0,0,1-.728-.18,1.721,1.721,0,0,1-.541-.474,2.119,2.119,0,0,1-.336-.664A2.553,2.553,0,0,1,144.4,6m.657,0a2.326,2.326,0,0,0,.064.541,1.755,1.755,0,0,0,.2.489,1.076,1.076,0,0,0,.331.353.843.843,0,0,0,.473.133.814.814,0,0,0,.482-.141,1.149,1.149,0,0,0,.33-.366,1.9,1.9,0,0,0,.179-.487A2.381,2.381,0,0,0,147.167,6a2.449,2.449,0,0,0-.062-.538,1.747,1.747,0,0,0-.193-.492,1.1,1.1,0,0,0-.325-.355.887.887,0,0,0-.957.008,1.137,1.137,0,0,0-.323.363,1.8,1.8,0,0,0-.192.5,2.3,2.3,0,0,0-.062.518" transform="translate(-0.681 -0.019)" fill="#8cb808"/>
    <path id="패스_24" data-name="패스 24" d="M150.671,7.983l-1.8-2.87v2.87h-.607V4.008h.57l1.785,2.9v-2.9h.608V7.983Z" transform="translate(-0.699 -0.019)" fill="#8cb808"/>
    <path id="패스_25" data-name="패스 25" d="M65.234,23.111H81.4V25.04H74.6v5.635H72.044V25.04h-6.81Zm1.8-7.338V13.825H79.608v1.948H74.616a4.478,4.478,0,0,0,.453,1.428,3.948,3.948,0,0,0,1.04,1.219,6.843,6.843,0,0,0,1.75,1.012,18.273,18.273,0,0,0,2.6.822l-.888,1.683a12.3,12.3,0,0,1-4.087-1.257,6.1,6.1,0,0,1-2.174-1.844,5.806,5.806,0,0,1-.917.937,7.668,7.668,0,0,1-1.373.9,10.774,10.774,0,0,1-1.787.766,12.413,12.413,0,0,1-2.166.5l-.908-1.7a15.249,15.249,0,0,0,2.572-.822,8.118,8.118,0,0,0,1.76-1.012,4.029,4.029,0,0,0,1.039-1.21,3.986,3.986,0,0,0,.456-1.418Z" transform="translate(-0.308 -0.066)" fill="#5f5e5e"/>
    <path id="패스_26" data-name="패스 26" d="M89.522,14.125a2,2,0,0,1,1.389.4,1.751,1.751,0,0,1,.426,1.325,10.971,10.971,0,0,1-.329,2.383,10.441,10.441,0,0,1-1.2,2.893,12.715,12.715,0,0,1-2.458,2.837,11.681,11.681,0,0,1-4.01,2.194l-1.23-1.475a9.936,9.936,0,0,0,2.355-1.238A10.428,10.428,0,0,0,86.535,21.5a9.766,9.766,0,0,0,1.484-2.486,8.534,8.534,0,0,0,.633-2.979h-5.6V14.125Zm4.747,4.521V13.483h2.554v17.19H94.268V20.593H91.356V18.646Z" transform="translate(-0.387 -0.064)" fill="#5f5e5e"/>
    <path id="패스_27" data-name="패스 27" d="M108.019,21.919h6.829v1.91H98.678v-1.91h6.79V20.746H102.8a1.968,1.968,0,0,1-1.388-.406,1.783,1.783,0,0,1-.426-1.334V13.654h2.553v1.854h6.449V13.654h2.552v7.092h-4.521Zm2.876,3.139a2.081,2.081,0,0,1,1.417.407,1.732,1.732,0,0,1,.455,1.352v4.029h-2.554V26.969h-9.607V25.058Zm-.908-6.127V17.324h-5.694a.711.711,0,0,1-.433-.189,1.626,1.626,0,0,1-.322-.4v2.194Z" transform="translate(-0.466 -0.065)" fill="#5f5e5e"/>
    <path id="패스_28" data-name="패스 28" d="M120.052,16.036h-3.346v-1.91h9.284v1.91h-3.328v1.779a7.631,7.631,0,0,0,.389,2.553,6.56,6.56,0,0,0,1.029,1.909,7.079,7.079,0,0,0,1.418,1.371,10.2,10.2,0,0,0,1.513.918l-1.191,1.456a8.28,8.28,0,0,1-1.74-.88,8.591,8.591,0,0,1-1.266-1.03,5.88,5.88,0,0,1-.89-1.067,9.142,9.142,0,0,1-.566-1.032,8.1,8.1,0,0,1-.587,1.04,6.351,6.351,0,0,1-.908,1.078,7.453,7.453,0,0,1-1.258,1.031,8.594,8.594,0,0,1-1.73.86l-1.191-1.456a9.043,9.043,0,0,0,1.542-.918,6.8,6.8,0,0,0,1.389-1.371,6.726,6.726,0,0,0,1.04-1.909,7.5,7.5,0,0,0,.4-2.553Zm8.492-2.553H131.1V30.674h-2.552Z" transform="translate(-0.546 -0.064)" fill="#5f5e5e"/>
    <path id="패스_29" data-name="패스 29" d="M133.749,15.771V13.842h9.266v1.929h-3.327a5.508,5.508,0,0,0,1.088,3.281,7.44,7.44,0,0,0,2.883,2.071l-1.248,1.513a7.581,7.581,0,0,1-1.427-.672,6.64,6.64,0,0,1-1.181-.9,5.094,5.094,0,0,1-.861-.974,4.925,4.925,0,0,1-.538-1.012,5.616,5.616,0,0,1-.607,1.078,6.74,6.74,0,0,1-.945,1.078,7,7,0,0,1-1.3.918,6.82,6.82,0,0,1-1.647.634l-1.191-1.475a8.149,8.149,0,0,0,3.177-2.147,5.578,5.578,0,0,0,1.193-3.395Zm9.174,7.622a6.678,6.678,0,0,1,1.73.246,6.37,6.37,0,0,1,1.711.738,4.278,4.278,0,0,1,1.287,1.2,3.108,3.108,0,0,1,.018,3.386,4.48,4.48,0,0,1-1.248,1.257,7.12,7.12,0,0,1-1.7.747,6.378,6.378,0,0,1-1.8.275,6.289,6.289,0,0,1-1.789-.275,6.385,6.385,0,0,1-1.691-.785,4.671,4.671,0,0,1-1.258-1.238,2.819,2.819,0,0,1-.5-1.636,2.849,2.849,0,0,1,.5-1.655,4.671,4.671,0,0,1,1.258-1.238,7.181,7.181,0,0,1,1.691-.747,6.252,6.252,0,0,1,1.789-.274m0,1.872a3.136,3.136,0,0,0-.993.16,2.748,2.748,0,0,0-.842.445,2.7,2.7,0,0,0-.614.681,1.422,1.422,0,0,0-.236.756,1.447,1.447,0,0,0,.236.775,2.182,2.182,0,0,0,.614.643,2.362,2.362,0,0,0,.842.483,3.107,3.107,0,0,0,.993.159,3.259,3.259,0,0,0,1.02-.159,2.572,2.572,0,0,0,.871-.483,2.187,2.187,0,0,0,.585-.643,1.489,1.489,0,0,0,.227-.775,1.526,1.526,0,0,0-.217-.784,2.261,2.261,0,0,0-.6-.653,3.021,3.021,0,0,0-.871-.445,3.289,3.289,0,0,0-1.02-.16m2.684-8.511V13.483h2.515v9.4h-2.515V18.7H142.26V16.754Z" transform="translate(-0.626 -0.064)" fill="#5f5e5e"/>
    <path id="패스_30" data-name="패스 30" d="M159.344,27.025h6.828v1.911H150V27.025h6.79V23.508h-2.968a1.938,1.938,0,0,1-1.391-.416,1.785,1.785,0,0,1-.424-1.324V14h2.552v2.893h7.055V14h2.552v9.512h-4.821Zm-4.785-8.6v3.158h7.055V18.8H155.2a.711.711,0,0,1-.642-.378" transform="translate(-0.708 -0.066)" fill="#5f5e5e"/>
    <path id="패스_31" data-name="패스 31" d="M161.923,5.332a22.89,22.89,0,0,0-5.4-1.155V7.716a19.442,19.442,0,1,1-19.966,26.955h-3.763a22.964,22.964,0,1,0,29.129-29.34" transform="translate(-0.626 -0.02)" fill="#8cb808"/>
  </g>
</svg>
